{
.appVersion = "3086";
date = "2021-09-22 15:07:47 +0000";
familyName = "Radio Canada Italic";
fontMaster = (
{
alignmentZones = (
"{800, 16}",
"{700, 16}",
"{500, 16}",
"{0, -16}",
"{-200, -16}"
);
ascender = 800;
capHeight = 700;
descender = -200;
id = m01;
xHeight = 500;
}
);
glyphs = (
{
color = 5;
glyphname = A;
lastChange = "2021-09-23 17:11:44 +0000";
layers = (
{
anchors = (
{
name = bottom;
position = "{248, 0}";
},
{
name = ogonek;
position = "{528, 0}";
},
{
name = top;
position = "{386, 690}";
}
);
layerId = m01;
paths = (
{
closed = 1;
nodes = (
"54 0 LINE",
"389 605 LINE",
"401 690 LINE",
"349 690 LINE",
"-50 0 LINE"
);
},
{
closed = 1;
nodes = (
"436 194 LINE",
"453 274 LINE",
"148 274 LINE",
"131 194 LINE"
);
},
{
closed = 1;
nodes = (
"432 0 LINE",
"528 0 LINE",
"424 690 LINE",
"372 690 LINE",
"354 605 LINE"
);
}
);
userData = {
com.schriftgestaltung.Glyphs.lastChange = "2021-03-08 18:08:36 +0000";
};
width = 598;
}
);
leftKerningGroup = A;
rightKerningGroup = A;
unicode = 0041;
},
{
color = 5;
glyphname = AE;
lastChange = "2021-09-23 17:11:44 +0000";
layers = (
{
anchors = (
{
name = top;
position = "{640, 690}";
}
);
layerId = m01;
paths = (
{
closed = 1;
nodes = (
"57 0 LINE",
"448 625 LINE",
"450 690 LINE",
"390 690 LINE",
"-45 0 LINE"
);
},
{
closed = 1;
nodes = (
"451 194 LINE",
"468 274 LINE",
"164 274 LINE",
"146 194 LINE"
);
},
{
closed = 1;
nodes = (
"466 0 LINE",
"613 690 LINE",
"516 690 LINE",
"369 0 LINE"
);
},
{
closed = 1;
nodes = (
"935 605 LINE",
"953 690 LINE",
"434 690 LINE",
"415 605 LINE"
);
},
{
closed = 1;
nodes = (
"811 0 LINE",
"829 85 LINE",
"432 85 LINE",
"415 0 LINE"
);
},
{
closed = 1;
nodes = (
"825 308 LINE",
"842 388 LINE",
"497 388 LINE",
"480 308 LINE"
);
}
);
userData = {
com.schriftgestaltung.Glyphs.lastChange = "2021-03-02 23:45:59 +0000";
};
width = 937;
}
);
leftKerningGroup = AE;
rightKerningGroup = E;
unicode = 00C6;
},
{
color = 5;
glyphname = B;
lastChange = "2021-09-23 17:11:44 +0000";
layers = (
{
layerId = m01;
paths = (
{
closed = 1;
nodes = (
"132 0 LINE",
"279 690 LINE",
"182 690 LINE",
"35 0 LINE"
);
},
{
closed = 1;
nodes = (
"267 0 LINE SMOOTH",
"429 0 OFFCURVE",
"542 93 OFFCURVE",
"542 218 CURVE",
"542 315 OFFCURVE",
"463 376 OFFCURVE",
"347 376 CURVE SMOOTH",
"161 376 LINE",
"148 315 LINE",
"326 315 LINE SMOOTH",
"399 315 OFFCURVE",
"444 279 OFFCURVE",
"444 216 CURVE",
"444 142 OFFCURVE",
"381 82 OFFCURVE",
"276 82 CURVE SMOOTH",
"98 82 LINE",
"81 0 LINE"
);
},
{
closed = 1;
nodes = (
"317 336 LINE SMOOTH",
"469 336 OFFCURVE",
"583 424 OFFCURVE",
"583 536 CURVE",
"583 630 OFFCURVE",
"501 690 OFFCURVE",
"392 690 CURVE SMOOTH",
"228 690 LINE",
"210 608 LINE",
"368 608 LINE SMOOTH",
"439 608 OFFCURVE",
"483 578 OFFCURVE",
"483 520 CURVE",
"483 455 OFFCURVE",
"420 391 OFFCURVE",
"322 391 CURVE SMOOTH",
"164 391 LINE",
"152 336 LINE"
);
}
);
userData = {
com.schriftgestaltung.Glyphs.lastChange = "2021-03-02 23:45:59 +0000";
};
width = 615;
}
);
leftKerningGroup = H;
unicode = 0042;
},
{
color = 5;
glyphname = C;
lastChange = "2021-09-23 17:11:44 +0000";
layers = (
{
anchors = (
{
name = bottom;
position = "{297, 0}";
},
{
name = top;
position = "{434, 690}";
}
);
layerId = m01;
paths = (
{
closed = 1;
nodes = (
"60 79 OFFCURVE",
"156 -10 OFFCURVE",
"301 -10 CURVE",
"382 -10 OFFCURVE",
"466 22 OFFCURVE",
"536 83 CURVE",
"483 158 LINE",
"434 111 OFFCURVE",
"371 80 OFFCURVE",
"313 80 CURVE",
"218 80 OFFCURVE",
"161 138 OFFCURVE",
"161 249 CURVE",
"161 445 OFFCURVE",
"289 610 OFFCURVE",
"432 610 CURVE SMOOTH",
"491 610 OFFCURVE",
"534 588 OFFCURVE",
"566 545 CURVE",
"641 609 LINE",
"587 671 OFFCURVE",
"527 700 OFFCURVE",
"447 700 CURVE SMOOTH",
"240 700 OFFCURVE",
"60 487 OFFCURVE",
"60 237 CURVE"
);
}
);
userData = {
com.schriftgestaltung.Glyphs.lastChange = "2021-03-02 23:45:59 +0000";
};
width = 626;
}
);
leftKerningGroup = O;
rightKerningGroup = C;
unicode = 0043;
},
{
color = 5;
glyphname = D;
lastChange = "2021-09-23 17:11:44 +0000";
layers = (
{
anchors = (
{
name = top;
position = "{391, 690}";
}
);
layerId = m01;
paths = (
{
closed = 1;
nodes = (
"132 0 LINE",
"279 690 LINE",
"182 690 LINE",
"35 0 LINE"
);
},
{
closed = 1;
nodes = (
"231 0 LINE SMOOTH",
"476 0 OFFCURVE",
"651 191 OFFCURVE",
"651 439 CURVE SMOOTH",
"652 591 OFFCURVE",
"544 690 OFFCURVE",
"378 690 CURVE SMOOTH",
"228 690 LINE",
"209 605 LINE",
"361 605 LINE SMOOTH",
"481 605 OFFCURVE",
"550 539 OFFCURVE",
"551 425 CURVE SMOOTH",
"550 239 OFFCURVE",
"415 85 OFFCURVE",
"242 85 CURVE SMOOTH",
"98 85 LINE",
"81 0 LINE"
);
}
);
userData = {
com.schriftgestaltung.Glyphs.lastChange = "2021-03-02 23:45:59 +0000";
};
width = 687;
}
);
leftKerningGroup = H;
rightKerningGroup = O;
unicode = 0044;
},
{
color = 5;
glyphname = Eth;
lastChange = "2021-09-23 17:11:44 +0000";
layers = (
{
layerId = m01;
paths = (
{
closed = 1;
nodes = (
"358 308 LINE",
"374 383 LINE",
"53 383 LINE",
"37 308 LINE"
);
},
{
closed = 1;
nodes = (
"142 0 LINE",
"289 690 LINE",
"192 690 LINE",
"45 0 LINE"
);
},
{
closed = 1;
nodes = (
"241 0 LINE SMOOTH",
"486 0 OFFCURVE",
"661 191 OFFCURVE",
"661 439 CURVE SMOOTH",
"662 591 OFFCURVE",
"554 690 OFFCURVE",
"388 690 CURVE SMOOTH",
"238 690 LINE",
"219 605 LINE",
"371 605 LINE SMOOTH",
"491 605 OFFCURVE",
"560 539 OFFCURVE",
"561 425 CURVE SMOOTH",
"560 239 OFFCURVE",
"425 85 OFFCURVE",
"252 85 CURVE SMOOTH",
"108 85 LINE",
"91 0 LINE"
);
}
);
userData = {
com.schriftgestaltung.Glyphs.lastChange = "2021-03-02 23:45:59 +0000";
};
width = 698;
}
);
leftKerningGroup = H;
rightKerningGroup = O;
unicode = 00D0;
},
{
color = 5;
glyphname = E;
lastChange = "2021-09-23 17:11:44 +0000";
layers = (
{
anchors = (
{
name = bottom;
position = "{259, 0}";
},
{
name = ogonek;
position = "{396, 0}";
},
{
name = top;
position = "{403, 690}";
}
);
layerId = m01;
paths = (
{
closed = 1;
nodes = (
"132 0 LINE",
"279 690 LINE",
"182 690 LINE",
"35 0 LINE"
);
},
{
closed = 1;
nodes = (
"477 0 LINE",
"495 85 LINE",
"99 85 LINE",
"81 0 LINE"
);
},
{
closed = 1;
nodes = (
"491 308 LINE",
"509 388 LINE",
"163 388 LINE",
"146 308 LINE"
);
},
{
closed = 1;
nodes = (
"601 605 LINE",
"619 690 LINE",
"227 690 LINE",
"209 605 LINE"
);
}
);
userData = {
com.schriftgestaltung.Glyphs.lastChange = "2021-03-02 23:45:59 +0000";
};
width = 603;
}
);
leftKerningGroup = H;
rightKerningGroup = E;
unicode = 0045;
},
{
color = 5;
glyphname = F;
lastChange = "2021-09-23 17:11:44 +0000";
layers = (
{
layerId = m01;
paths = (
{
closed = 1;
nodes = (
"132 0 LINE",
"279 690 LINE",
"182 690 LINE",
"35 0 LINE"
);
},
{
closed = 1;
nodes = (
"480 282 LINE",
"498 366 LINE",
"159 366 LINE",
"141 282 LINE"
);
},
{
closed = 1;
nodes = (
"587 605 LINE",
"605 690 LINE",
"227 690 LINE",
"209 605 LINE"
);
}
);
userData = {
com.schriftgestaltung.Glyphs.lastChange = "2021-03-02 23:45:59 +0000";
};
width = 563;
}
);
leftKerningGroup = H;
unicode = 0046;
},
{
color = 5;
glyphname = G;
lastChange = "2021-09-23 17:11:44 +0000";
layers = (
{
anchors = (
{
name = bottom;
position = "{342, 0}";
},
{
name = top;
position = "{435, 690}";
}
);
layerId = m01;
paths = (
{
closed = 1;
nodes = (
"60 81 OFFCURVE",
"161 -10 OFFCURVE",
"306 -10 CURVE",
"392 -10 OFFCURVE",
"489 23 OFFCURVE",
"562 85 CURVE",
"503 143 LINE",
"452 101 OFFCURVE",
"382 76 OFFCURVE",
"321 76 CURVE",
"223 76 OFFCURVE",
"161 138 OFFCURVE",
"161 249 CURVE SMOOTH",
"161 445 OFFCURVE",
"288 610 OFFCURVE",
"434 610 CURVE SMOOTH",
"495 610 OFFCURVE",
"540 588 OFFCURVE",
"573 545 CURVE",
"648 609 LINE",
"593 671 OFFCURVE",
"530 700 OFFCURVE",
"449 700 CURVE SMOOTH",
"239 700 OFFCURVE",
"60 487 OFFCURVE",
"60 237 CURVE SMOOTH"
);
},
{
closed = 1;
nodes = (
"557 266 LINE",
"574 348 LINE",
"380 348 LINE",
"363 266 LINE"
);
},
{
closed = 1;
nodes = (
"562 85 LINE",
"618 348 LINE",
"523 348 LINE",
"466 81 LINE"
);
}
);
userData = {
com.schriftgestaltung.Glyphs.lastChange = "2021-03-08 20:42:53 +0000";
};
width = 680;
}
);
leftKerningGroup = O;
rightKerningGroup = G;
unicode = 0047;
},
{
color = 5;
glyphname = H;
lastChange = "2021-09-23 17:11:44 +0000";
layers = (
{
anchors = (
{
name = top;
position = "{440, 690}";
}
);
layerId = m01;
paths = (
{
closed = 1;
nodes = (
"132 0 LINE",
"279 690 LINE",
"182 690 LINE",
"35 0 LINE"
);
},
{
closed = 1;
nodes = (
"582 306 LINE",
"600 390 LINE",
"164 390 LINE",
"146 306 LINE"
);
},
{
closed = 1;
nodes = (
"562 0 LINE",
"709 690 LINE",
"612 690 LINE",
"466 0 LINE"
);
}
);
userData = {
com.schriftgestaltung.Glyphs.lastChange = "2021-03-02 23:45:59 +0000";
};
width = 717;
}
);
leftKerningGroup = H;
rightKerningGroup = H;
unicode = 0048;
},
{
color = 5;
glyphname = Hbar;
lastChange = "2021-09-23 17:11:44 +0000";
layers = (
{
layerId = m01;
paths = (
{
closed = 1;
nodes = (
"757 526 LINE",
"773 594 LINE",
"88 594 LINE",
"72 526 LINE"
);
},
{
closed = 1;
nodes = (
"137 0 LINE",
"284 690 LINE",
"187 690 LINE",
"40 0 LINE"
);
},
{
closed = 1;
nodes = (
"587 306 LINE",
"605 390 LINE",
"169 390 LINE",
"151 306 LINE"
);
},
{
closed = 1;
nodes = (
"567 0 LINE",
"714 690 LINE",
"617 690 LINE",
"471 0 LINE"
);
}
);
userData = {
com.schriftgestaltung.Glyphs.lastChange = "2021-03-02 23:45:59 +0000";
};
width = 727;
}
);
leftKerningGroup = H;
rightKerningGroup = H;
unicode = 0126;
},
{
color = 5;
glyphname = I;
lastChange = "2021-09-23 17:11:44 +0000";
layers = (
{
anchors = (
{
name = bottom;
position = "{159, 0}";
},
{
name = ogonek;
position = "{307, 0}";
},
{
name = top;
position = "{306, 690}";
}
);
layerId = m01;
paths = (
{
closed = 1;
nodes = (
"307 0 LINE",
"323 75 LINE",
"27 75 LINE",
"11 0 LINE"
);
},
{
closed = 1;
nodes = (
"208 0 LINE",
"354 690 LINE",
"257 690 LINE",
"111 0 LINE"
);
},
{
closed = 1;
nodes = (
"438 615 LINE",
"454 690 LINE",
"158 690 LINE",
"142 615 LINE"
);
}
);
userData = {
com.schriftgestaltung.Glyphs.lastChange = "2021-03-08 00:51:59 +0000";
};
width = 438;
}
);
leftKerningGroup = I;
rightKerningGroup = I;
unicode = 0049;
},
{
color = 5;
glyphname = IJ;
lastChange = "2021-09-23 17:11:44 +0000";
layers = (
{
layerId = m01;
paths = (
{
closed = 1;
nodes = (
"133 0 LINE",
"279 690 LINE",
"182 690 LINE",
"36 0 LINE"
);
},
{
closed = 1;
nodes = (
"270 4 OFFCURVE",
"319 -10 OFFCURVE",
"376 -10 CURVE SMOOTH",
"495 -10 OFFCURVE",
"596 58 OFFCURVE",
"634 236 CURVE SMOOTH",
"731 690 LINE",
"637 690 LINE",
"542 246 LINE SMOOTH",
"516 123 OFFCURVE",
"453 78 OFFCURVE",
"378 78 CURVE SMOOTH",
"344 78 OFFCURVE",
"312 88 OFFCURVE",
"291 104 CURVE",
"236 26 LINE"
);
}
);
userData = {
com.schriftgestaltung.Glyphs.lastChange = "2021-03-02 23:45:59 +0000";
};
width = 735;
}
);
leftKerningGroup = H;
rightKerningGroup = U;
unicode = 0132;
},
{
color = 5;
glyphname = J;
lastChange = "2021-09-23 17:11:44 +0000";
layers = (
{
anchors = (
{
name = top;
position = "{407, 690}";
}
);
layerId = m01;
paths = (
{
closed = 1;
nodes = (
"33 21 OFFCURVE",
"94 -10 OFFCURVE",
"172 -10 CURVE",
"291 -10 OFFCURVE",
"393 58 OFFCURVE",
"429 226 CURVE SMOOTH",
"528 690 LINE",
"433 690 LINE",
"336 236 LINE SMOOTH",
"312 123 OFFCURVE",
"249 78 OFFCURVE",
"174 78 CURVE",
"120 78 OFFCURVE",
"80 102 OFFCURVE",
"49 139 CURVE",
"-10 72 LINE"
);
},
{
closed = 1;
nodes = (
"476 615 LINE",
"492 690 LINE",
"257 690 LINE",
"241 615 LINE"
);
}
);
userData = {
com.schriftgestaltung.Glyphs.lastChange = "2021-03-02 23:45:59 +0000";
};
width = 532;
}
);
leftKerningGroup = J;
rightKerningGroup = U;
unicode = 004A;
},
{
color = 5;
glyphname = K;
lastChange = "2021-09-23 17:11:44 +0000";
layers = (
{
anchors = (
{
name = bottom;
position = "{286, 0}";
}
);
layerId = m01;
paths = (
{
closed = 1;
nodes = (
"132 0 LINE",
"279 690 LINE",
"182 690 LINE",
"35 0 LINE"
);
},
{
closed = 1;
nodes = (
"676 690 LINE",
"552 690 LINE",
"174 312 LINE",
"147 180 LINE"
);
},
{
closed = 1;
nodes = (
"438 0 LINE",
"545 0 LINE",
"351 397 LINE",
"284 329 LINE"
);
}
);
userData = {
com.schriftgestaltung.Glyphs.lastChange = "2021-03-02 23:45:59 +0000";
};
width = 620;
}
);
leftKerningGroup = H;
rightKerningGroup = K;
unicode = 004B;
},
{
color = 5;
glyphname = L;
lastChange = "2021-09-23 17:11:44 +0000";
layers = (
{
anchors = (
{
name = bottom;
position = "{249, 0}";
},
{
name = caron.alt;
position = "{444, 680}";
},
{
name = top;
position = "{230, 690}";
}
);
layerId = m01;
paths = (
{
closed = 1;
nodes = (
"132 0 LINE",
"279 690 LINE",
"182 690 LINE",
"35 0 LINE"
);
},
{
closed = 1;
nodes = (
"448 0 LINE",
"466 85 LINE",
"99 85 LINE",
"81 0 LINE"
);
}
);
userData = {
com.schriftgestaltung.Glyphs.lastChange = "2021-03-02 23:45:59 +0000";
};
width = 538;
}
);
leftKerningGroup = H;
rightKerningGroup = L;
unicode = 004C;
},
{
color = 5;
glyphname = Lslash;
lastChange = "2021-09-23 17:11:44 +0000";
layers = (
{
layerId = m01;
paths = (
{
closed = 1;
nodes = (
"352 390 LINE",
"375 481 LINE",
"38 301 LINE",
"15 210 LINE"
);
},
{
closed = 1;
nodes = (
"137 0 LINE",
"284 690 LINE",
"187 690 LINE",
"40 0 LINE"
);
},
{
closed = 1;
nodes = (
"453 0 LINE",
"471 85 LINE",
"104 85 LINE",
"86 0 LINE"
);
}
);
userData = {
com.schriftgestaltung.Glyphs.lastChange = "2021-03-02 23:45:59 +0000";
};
width = 548;
}
);
leftKerningGroup = H;
rightKerningGroup = L;
unicode = 0141;
},
{
color = 5;
glyphname = M;
lastChange = "2021-09-23 17:11:44 +0000";
layers = (
{
layerId = m01;
paths = (
{
closed = 1;
nodes = (
"129 0 LINE",
"276 690 LINE",
"182 690 LINE",
"35 0 LINE"
);
},
{
closed = 1;
nodes = (
"353 163 LINE",
"388 163 LINE",
"413 282 LINE",
"319 690 LINE",
"230 690 LINE"
);
},
{
closed = 1;
nodes = (
"420 163 LINE",
"766 690 LINE",
"666 690 LINE",
"403 282 LINE",
"378 163 LINE"
);
},
{
closed = 1;
nodes = (
"668 0 LINE",
"814 690 LINE",
"720 690 LINE",
"573 0 LINE"
);
}
);
userData = {
com.schriftgestaltung.Glyphs.lastChange = "2021-03-02 23:45:59 +0000";
};
width = 823;
}
);
leftKerningGroup = H;
rightKerningGroup = H;
unicode = 004D;
},
{
color = 5;
glyphname = N;
lastChange = "2021-09-23 17:11:44 +0000";
layers = (
{
anchors = (
{
name = bottom;
position = "{293, 0}";
},
{
name = top;
position = "{457, 690}";
}
);
layerId = m01;
paths = (
{
closed = 1;
nodes = (
"126 0 LINE",
"273 690 LINE",
"182 690 LINE",
"35 0 LINE"
);
},
{
closed = 1;
nodes = (
"447 0 LINE",
"537 0 LINE",
"304 690 LINE",
"213 690 LINE"
);
},
{
closed = 1;
nodes = (
"565 0 LINE",
"712 690 LINE",
"621 690 LINE",
"474 0 LINE"
);
}
);
userData = {
com.schriftgestaltung.Glyphs.lastChange = "2021-03-02 23:45:59 +0000";
};
width = 720;
}
);
leftKerningGroup = H;
rightKerningGroup = H;
unicode = 004E;
},
{
color = 5;
glyphname = Nhookleft;
lastChange = "2021-09-23 17:11:44 +0000";
layers = (
{
layerId = m01;
paths = (
{
closed = 1;
nodes = (
"-120 -186 OFFCURVE",
"-90 -195 OFFCURVE",
"-57 -195 CURVE",
"33 -195 OFFCURVE",
"93 -153 OFFCURVE",
"119 -32 CURVE SMOOTH",
"273 690 LINE",
"182 690 LINE",
"29 -30 LINE SMOOTH",
"15 -94 OFFCURVE",
"-17 -117 OFFCURVE",
"-61 -117 CURVE",
"-80 -117 OFFCURVE",
"-100 -112 OFFCURVE",
"-115 -104 CURVE",
"-141 -175 LINE"
);
},
{
closed = 1;
nodes = (
"447 0 LINE",
"537 0 LINE",
"304 690 LINE",
"213 690 LINE"
);
},
{
closed = 1;
nodes = (
"565 0 LINE",
"712 690 LINE",
"621 690 LINE",
"474 0 LINE"
);
}
);
userData = {
com.schriftgestaltung.Glyphs.lastChange = "2021-03-02 23:45:59 +0000";
};
width = 720;
}
);
leftKerningGroup = j;
rightKerningGroup = H;
unicode = 019D;
},
{
color = 5;
glyphname = Eng;
lastChange = "2021-09-23 17:11:44 +0000";
layers = (
{
layerId = m01;
paths = (
{
closed = 1;
nodes = (
"126 0 LINE",
"273 690 LINE",
"182 690 LINE",
"35 0 LINE"
);
},
{
closed = 1;
nodes = (
"475 0 LINE",
"564 0 LINE",
"304 690 LINE",
"213 690 LINE"
);
},
{
closed = 1;
nodes = (
"319 -186 OFFCURVE",
"349 -195 OFFCURVE",
"382 -195 CURVE",
"472 -195 OFFCURVE",
"532 -153 OFFCURVE",
"558 -32 CURVE SMOOTH",
"712 690 LINE",
"621 690 LINE",
"468 -30 LINE SMOOTH",
"454 -94 OFFCURVE",
"422 -117 OFFCURVE",
"378 -117 CURVE",
"359 -117 OFFCURVE",
"339 -112 OFFCURVE",
"324 -104 CURVE",
"298 -175 LINE"
);
}
);
userData = {
com.schriftgestaltung.Glyphs.lastChange = "2021-03-02 23:45:59 +0000";
};
width = 720;
}
);
leftKerningGroup = H;
rightKerningGroup = H;
unicode = 014A;
},
{
color = 5;
glyphname = O;
lastChange = "2021-09-23 17:11:44 +0000";
layers = (
{
anchors = (
{
name = bottom;
position = "{286, 0}";
},
{
name = horn;
position = "{556, 690}";
},
{
name = ogonek;
position = "{360, 0}";
},
{
name = top;
position = "{441, 690}";
}
);
layerId = m01;
paths = (
{
closed = 1;
nodes = (
"60 79 OFFCURVE",
"157 -10 OFFCURVE",
"293 -10 CURVE",
"497 -10 OFFCURVE",
"678 203 OFFCURVE",
"678 453 CURVE",
"678 611 OFFCURVE",
"581 700 OFFCURVE",
"446 700 CURVE",
"241 700 OFFCURVE",
"60 487 OFFCURVE",
"60 237 CURVE"
);
},
{
closed = 1;
nodes = (
"161 446 OFFCURVE",
"290 612 OFFCURVE",
"430 612 CURVE",
"519 612 OFFCURVE",
"577 553 OFFCURVE",
"578 441 CURVE",
"577 244 OFFCURVE",
"448 78 OFFCURVE",
"308 78 CURVE",
"219 78 OFFCURVE",
"161 137 OFFCURVE",
"161 249 CURVE"
);
}
);
userData = {
com.schriftgestaltung.Glyphs.lastChange = "2021-03-08 22:08:12 +0000";
};
width = 711;
}
);
leftKerningGroup = O;
rightKerningGroup = O;
unicode = 004F;
},
{
color = 5;
glyphname = Oslash;
lastChange = "2021-09-23 17:11:44 +0000";
layers = (
{
anchors = (
{
name = top;
position = "{441, 690}";
}
);
layerId = m01;
paths = (
{
closed = 1;
nodes = (
"60 79 OFFCURVE",
"157 -10 OFFCURVE",
"293 -10 CURVE",
"497 -10 OFFCURVE",
"678 203 OFFCURVE",
"678 453 CURVE",
"678 611 OFFCURVE",
"581 700 OFFCURVE",
"446 700 CURVE",
"241 700 OFFCURVE",
"60 487 OFFCURVE",
"60 237 CURVE"
);
},
{
closed = 1;
nodes = (
"161 446 OFFCURVE",
"290 612 OFFCURVE",
"430 612 CURVE",
"519 612 OFFCURVE",
"577 553 OFFCURVE",
"578 441 CURVE",
"577 244 OFFCURVE",
"448 78 OFFCURVE",
"308 78 CURVE",
"219 78 OFFCURVE",
"161 137 OFFCURVE",
"161 249 CURVE"
);
},
{
closed = 1;
nodes = (
"37 -10 LINE",
"749 647 LINE",
"701 700 LINE",
"-11 43 LINE"
);
}
);
userData = {
com.schriftgestaltung.Glyphs.lastChange = "2021-03-02 23:45:59 +0000";
};
width = 711;
}
);
leftKerningGroup = O;
rightKerningGroup = O;
unicode = 00D8;
},
{
color = 5;
glyphname = OE;
lastChange = "2021-09-23 17:11:44 +0000";
layers = (
{
layerId = m01;
paths = (
{
closed = 1;
nodes = (
"65 84 OFFCURVE",
"188 0 OFFCURVE",
"346 0 CURVE SMOOTH",
"431 0 LINE",
"449 85 LINE",
"362 85 LINE SMOOTH",
"244 85 OFFCURVE",
"166 142 OFFCURVE",
"166 273 CURVE SMOOTH",
"166 448 OFFCURVE",
"284 605 OFFCURVE",
"472 605 CURVE SMOOTH",
"560 605 LINE",
"578 690 LINE",
"489 690 LINE SMOOTH",
"234 690 OFFCURVE",
"65 509 OFFCURVE",
"65 263 CURVE SMOOTH"
);
},
{
closed = 1;
nodes = (
"512 0 LINE",
"659 690 LINE",
"562 690 LINE",
"415 0 LINE"
);
},
{
closed = 1;
nodes = (
"834 0 LINE",
"851 85 LINE",
"478 85 LINE",
"460 0 LINE"
);
},
{
closed = 1;
nodes = (
"847 308 LINE",
"864 388 LINE",
"543 388 LINE",
"526 308 LINE"
);
},
{
closed = 1;
nodes = (
"957 605 LINE",
"976 690 LINE",
"607 690 LINE",
"589 605 LINE"
);
}
);
userData = {
com.schriftgestaltung.Glyphs.lastChange = "2021-03-02 23:45:59 +0000";
};
width = 960;
}
);
leftKerningGroup = O;
rightKerningGroup = E;
unicode = 0152;
},
{
color = 5;
glyphname = P;
lastChange = "2021-09-23 17:11:44 +0000";
layers = (
{
layerId = m01;
paths = (
{
closed = 1;
nodes = (
"132 0 LINE",
"279 690 LINE",
"182 690 LINE",
"35 0 LINE"
);
},
{
closed = 1;
nodes = (
"293 229 LINE SMOOTH",
"479 229 OFFCURVE",
"608 343 OFFCURVE",
"608 497 CURVE SMOOTH",
"608 612 OFFCURVE",
"515 690 OFFCURVE",
"388 690 CURVE SMOOTH",
"228 690 LINE",
"209 605 LINE",
"366 605 LINE SMOOTH",
"456 605 OFFCURVE",
"507 563 OFFCURVE",
"507 488 CURVE",
"507 386 OFFCURVE",
"428 313 OFFCURVE",
"300 313 CURVE SMOOTH",
"148 313 LINE",
"129 229 LINE"
);
}
);
userData = {
com.schriftgestaltung.Glyphs.lastChange = "2021-03-02 23:45:59 +0000";
};
width = 613;
}
);
leftKerningGroup = H;
unicode = 0050;
},
{
color = 5;
glyphname = Thorn;
lastChange = "2021-09-23 17:11:44 +0000";
layers = (
{
layerId = m01;
paths = (
{
closed = 1;
nodes = (
"131 0 LINE",
"278 690 LINE",
"182 690 LINE",
"35 0 LINE"
);
},
{
closed = 1;
nodes = (
"307 132 LINE SMOOTH",
"481 132 OFFCURVE",
"592 224 OFFCURVE",
"592 392 CURVE SMOOTH",
"592 498 OFFCURVE",
"511 558 OFFCURVE",
"396 558 CURVE SMOOTH",
"199 558 LINE",
"181 473 LINE",
"375 473 LINE SMOOTH",
"451 473 OFFCURVE",
"494 443 OFFCURVE",
"494 378 CURVE SMOOTH",
"494 278 OFFCURVE",
"425 217 OFFCURVE",
"320 217 CURVE SMOOTH",
"126 217 LINE",
"108 132 LINE"
);
}
);
userData = {
com.schriftgestaltung.Glyphs.lastChange = "2021-03-02 23:45:59 +0000";
};
width = 621;
}
);
leftKerningGroup = H;
unicode = 00DE;
},
{
color = 5;
glyphname = Q;
lastChange = "2021-09-23 17:11:44 +0000";
layers = (
{
layerId = m01;
paths = (
{
closed = 1;
nodes = (
"371 -103 OFFCURVE",
"450 -155 OFFCURVE",
"578 -158 CURVE",
"599 -64 LINE",
"509 -64 OFFCURVE",
"448 -39 OFFCURVE",
"425 35 CURVE",
"344 8 LINE"
);
},
{
closed = 1;
nodes = (
"60 79 OFFCURVE",
"157 -10 OFFCURVE",
"293 -10 CURVE",
"497 -10 OFFCURVE",
"678 203 OFFCURVE",
"678 453 CURVE",
"678 611 OFFCURVE",
"581 700 OFFCURVE",
"446 700 CURVE",
"241 700 OFFCURVE",
"60 487 OFFCURVE",
"60 237 CURVE"
);
},
{
closed = 1;
nodes = (
"161 446 OFFCURVE",
"290 612 OFFCURVE",
"430 612 CURVE",
"519 612 OFFCURVE",
"577 553 OFFCURVE",
"578 441 CURVE",
"577 244 OFFCURVE",
"448 78 OFFCURVE",
"308 78 CURVE",
"219 78 OFFCURVE",
"161 137 OFFCURVE",
"161 249 CURVE"
);
}
);
userData = {
com.schriftgestaltung.Glyphs.lastChange = "2021-03-02 23:45:59 +0000";
};
width = 711;
}
);
leftKerningGroup = O;
rightKerningGroup = O;
unicode = 0051;
},
{
color = 5;
glyphname = R;
lastChange = "2021-09-23 17:11:44 +0000";
layers = (
{
anchors = (
{
name = bottom;
position = "{276, 0}";
},
{
name = top;
position = "{381, 690}";
}
);
layerId = m01;
paths = (
{
closed = 1;
nodes = (
"132 0 LINE",
"279 690 LINE",
"182 690 LINE",
"35 0 LINE"
);
},
{
closed = 1;
nodes = (
"296 263 LINE SMOOTH",
"476 263 OFFCURVE",
"598 366 OFFCURVE",
"598 506 CURVE SMOOTH",
"598 617 OFFCURVE",
"509 690 OFFCURVE",
"386 690 CURVE SMOOTH",
"228 690 LINE",
"209 605 LINE",
"363 605 LINE SMOOTH",
"449 605 OFFCURVE",
"497 566 OFFCURVE",
"497 498 CURVE SMOOTH",
"497 407 OFFCURVE",
"425 344 OFFCURVE",
"303 344 CURVE SMOOTH",
"154 344 LINE",
"136 263 LINE"
);
},
{
closed = 1;
nodes = (
"421 0 LINE",
"524 0 LINE",
"400 290 LINE",
"305 290 LINE"
);
}
);
userData = {
com.schriftgestaltung.Glyphs.lastChange = "2021-03-02 23:45:59 +0000";
};
width = 619;
}
);
leftKerningGroup = H;
rightKerningGroup = R;
unicode = 0052;
},
{
color = 5;
glyphname = S;
lastChange = "2021-09-23 17:11:44 +0000";
layers = (
{
anchors = (
{
name = bottom;
position = "{264, 0}";
},
{
name = top;
position = "{367, 690}";
}
);
layerId = m01;
paths = (
{
closed = 1;
nodes = (
"80 32 OFFCURVE",
"165 -10 OFFCURVE",
"272 -10 CURVE",
"437 -10 OFFCURVE",
"526 79 OFFCURVE",
"526 184 CURVE",
"526 261 OFFCURVE",
"484 326 OFFCURVE",
"339 401 CURVE SMOOTH",
"242 451 OFFCURVE",
"219 483 OFFCURVE",
"219 524 CURVE",
"219 569 OFFCURVE",
"265 615 OFFCURVE",
"355 615 CURVE",
"424 615 OFFCURVE",
"484 586 OFFCURVE",
"531 547 CURVE",
"582 624 LINE",
"526 669 OFFCURVE",
"453 700 OFFCURVE",
"368 700 CURVE",
"211 700 OFFCURVE",
"121 611 OFFCURVE",
"121 518 CURVE",
"121 445 OFFCURVE",
"162 387 OFFCURVE",
"288 319 CURVE SMOOTH",
"403 259 OFFCURVE",
"422 223 OFFCURVE",
"422 175 CURVE",
"422 124 OFFCURVE",
"375 75 OFFCURVE",
"278 75 CURVE",
"196 75 OFFCURVE",
"120 115 OFFCURVE",
"68 167 CURVE",
"10 92 LINE"
);
}
);
userData = {
com.schriftgestaltung.Glyphs.lastChange = "2021-03-02 23:45:59 +0000";
};
width = 601;
}
);
leftKerningGroup = S;
rightKerningGroup = S;
unicode = 0053;
},
{
color = 5;
glyphname = Schwa;
lastChange = "2021-09-23 17:11:44 +0000";
layers = (
{
layerId = m01;
paths = (
{
closed = 1;
nodes = (
"60 87 OFFCURVE",
"158 -11 OFFCURVE",
"313 -11 CURVE",
"551 -11 OFFCURVE",
"686 202 OFFCURVE",
"686 428 CURVE SMOOTH",
"686 603 OFFCURVE",
"580 701 OFFCURVE",
"421 701 CURVE SMOOTH",
"329 701 OFFCURVE",
"246 669 OFFCURVE",
"176 631 CURVE",
"199 548 LINE",
"255 582 OFFCURVE",
"332 609 OFFCURVE",
"407 609 CURVE SMOOTH",
"521 609 OFFCURVE",
"587 543 OFFCURVE",
"587 426 CURVE SMOOTH",
"587 245 OFFCURVE",
"497 77 OFFCURVE",
"324 77 CURVE",
"217 77 OFFCURVE",
"157 142 OFFCURVE",
"157 250 CURVE SMOOTH",
"157 285 OFFCURVE",
"166 317 OFFCURVE",
"173 338 CURVE",
"141 293 LINE",
"603 293 LINE",
"620 374 LINE",
"82 374 LINE",
"76 361 OFFCURVE",
"60 316 OFFCURVE",
"60 248 CURVE SMOOTH"
);
}
);
userData = {
com.schriftgestaltung.Glyphs.lastChange = "2021-03-02 23:45:59 +0000";
};
width = 726;
}
);
leftKerningGroup = O;
rightKerningGroup = O;
unicode = 018F;
},
{
color = 5;
glyphname = T;
lastChange = "2021-09-23 17:11:44 +0000";
layers = (
{
anchors = (
{
name = bottom;
position = "{227, 0}";
},
{
name = top;
position = "{372, 690}";
}
);
layerId = m01;
paths = (
{
closed = 1;
nodes = (
"608 605 LINE",
"626 690 LINE",
"117 690 LINE",
"99 605 LINE"
);
},
{
closed = 1;
nodes = (
"273 0 LINE",
"420 690 LINE",
"323 690 LINE",
"177 0 LINE"
);
}
);
userData = {
com.schriftgestaltung.Glyphs.lastChange = "2021-03-02 23:45:59 +0000";
};
width = 569;
}
);
leftKerningGroup = T;
rightKerningGroup = T;
unicode = 0054;
},
{
color = 5;
glyphname = Tbar;
lastChange = "2021-09-23 17:11:44 +0000";
layers = (
{
layerId = m01;
paths = (
{
closed = 1;
nodes = (
"489 293 LINE",
"506 370 LINE",
"113 370 LINE",
"96 293 LINE"
);
},
{
closed = 1;
nodes = (
"613 605 LINE",
"631 690 LINE",
"122 690 LINE",
"104 605 LINE"
);
},
{
closed = 1;
nodes = (
"278 0 LINE",
"425 690 LINE",
"328 690 LINE",
"182 0 LINE"
);
}
);
userData = {
com.schriftgestaltung.Glyphs.lastChange = "2021-03-02 23:45:59 +0000";
};
width = 579;
}
);
leftKerningGroup = T;
rightKerningGroup = T;
unicode = 0166;
},
{
color = 5;
glyphname = U;
lastChange = "2021-09-23 17:11:44 +0000";
layers = (
{
anchors = (
{
name = bottom;
position = "{294, 0}";
},
{
name = horn;
position = "{664, 715}";
},
{
name = ogonek;
position = "{360, 0}";
},
{
name = top;
position = "{438, 690}";
}
);
layerId = m01;
paths = (
{
closed = 1;
nodes = (
"80 75 OFFCURVE",
"166 -10 OFFCURVE",
"299 -10 CURVE",
"446 -10 OFFCURVE",
"567 73 OFFCURVE",
"604 249 CURVE SMOOTH",
"698 690 LINE",
"603 690 LINE",
"512 266 LINE SMOOTH",
"485 139 OFFCURVE",
"406 78 OFFCURVE",
"315 78 CURVE",
"230 78 OFFCURVE",
"176 120 OFFCURVE",
"176 208 CURVE SMOOTH",
"176 225 OFFCURVE",
"179 247 OFFCURVE",
"184 269 CURVE SMOOTH",
"274 690 LINE",
"177 690 LINE",
"88 272 LINE SMOOTH",
"82 246 OFFCURVE",
"80 221 OFFCURVE",
"80 201 CURVE SMOOTH"
);
}
);
userData = {
com.schriftgestaltung.Glyphs.lastChange = "2021-03-08 22:50:13 +0000";
};
width = 701;
}
);
leftKerningGroup = U;
rightKerningGroup = U;
unicode = 0055;
},
{
color = 5;
glyphname = V;
lastChange = "2021-09-23 17:11:44 +0000";
layers = (
{
layerId = m01;
paths = (
{
closed = 1;
nodes = (
"200 0 LINE",
"252 0 LINE",
"270 85 LINE",
"194 690 LINE",
"97 690 LINE"
);
},
{
closed = 1;
nodes = (
"275 0 LINE",
"672 690 LINE",
"570 690 LINE",
"234 85 LINE",
"223 0 LINE"
);
}
);
userData = {
com.schriftgestaltung.Glyphs.lastChange = "2021-03-02 23:45:59 +0000";
};
width = 595;
}
);
leftKerningGroup = V;
rightKerningGroup = V;
unicode = 0056;
},
{
color = 5;
glyphname = W;
lastChange = "2021-09-23 17:11:44 +0000";
layers = (
{
anchors = (
{
name = top;
position = "{535, 690}";
}
);
layerId = m01;
paths = (
{
closed = 1;
nodes = (
"157 0 LINE",
"211 0 LINE",
"231 90 LINE",
"195 690 LINE",
"99 690 LINE"
);
},
{
closed = 1;
nodes = (
"234 0 LINE",
"537 589 LINE",
"555 690 LINE",
"496 690 LINE",
"195 90 LINE",
"182 0 LINE"
);
},
{
closed = 1;
nodes = (
"545 0 LINE",
"599 0 LINE",
"619 90 LINE",
"576 690 LINE",
"515 690 LINE",
"498 589 LINE"
);
},
{
closed = 1;
nodes = (
"622 0 LINE",
"975 690 LINE",
"874 690 LINE",
"584 90 LINE",
"570 0 LINE"
);
}
);
userData = {
com.schriftgestaltung.Glyphs.lastChange = "2021-03-02 23:45:59 +0000";
};
width = 900;
}
);
leftKerningGroup = V;
rightKerningGroup = V;
unicode = 0057;
},
{
color = 5;
glyphname = X;
lastChange = "2021-09-23 17:11:44 +0000";
layers = (
{
layerId = m01;
paths = (
{
closed = 1;
nodes = (
"73 0 LINE",
"302 291 LINE",
"341 331 LINE",
"635 690 LINE",
"522 690 LINE",
"306 415 LINE",
"268 375 LINE",
"-40 0 LINE"
);
},
{
closed = 1;
nodes = (
"271 315 LINE",
"395 0 LINE",
"498 0 LINE",
"338 390 LINE",
"220 690 LINE",
"117 690 LINE"
);
}
);
userData = {
com.schriftgestaltung.Glyphs.lastChange = "2021-03-02 23:45:59 +0000";
};
width = 578;
}
);
unicode = 0058;
},
{
color = 5;
glyphname = Y;
lastChange = "2021-09-23 17:11:44 +0000";
layers = (
{
anchors = (
{
name = bottom;
position = "{241, 0}";
},
{
name = top;
position = "{373, 690}";
}
);
layerId = m01;
paths = (
{
closed = 1;
nodes = (
"254 273 LINE",
"307 273 LINE",
"320 348 LINE",
"196 690 LINE",
"92 690 LINE"
);
},
{
closed = 1;
nodes = (
"284 0 LINE",
"349 303 LINE",
"252 303 LINE",
"188 0 LINE"
);
},
{
closed = 1;
nodes = (
"335 273 LINE",
"674 690 LINE",
"561 690 LINE",
"293 348 LINE",
"285 273 LINE"
);
}
);
userData = {
com.schriftgestaltung.Glyphs.lastChange = "2021-03-08 23:05:02 +0000";
};
width = 592;
}
);
leftKerningGroup = Y;
rightKerningGroup = Y;
unicode = 0059;
},
{
color = 5;
glyphname = Z;
lastChange = "2021-09-23 17:11:44 +0000";
layers = (
{
anchors = (
{
name = top;
position = "{384, 690}";
}
);
layerId = m01;
paths = (
{
closed = 1;
nodes = (
"489 0 LINE",
"507 85 LINE",
"50 85 LINE",
"15 64 LINE",
"1 0 LINE"
);
},
{
closed = 1;
nodes = (
"82 0 LINE",
"614 626 LINE",
"547 690 LINE",
"15 64 LINE"
);
},
{
closed = 1;
nodes = (
"578 605 LINE",
"614 626 LINE",
"627 690 LINE",
"157 690 LINE",
"139 605 LINE"
);
}
);
userData = {
com.schriftgestaltung.Glyphs.lastChange = "2021-03-02 23:45:59 +0000";
};
width = 611;
}
);
leftKerningGroup = Z;
rightKerningGroup = Z;
unicode = 005A;
},
{
color = 5;
glyphname = a;
lastChange = "2021-09-23 17:11:44 +0000";
layers = (
{
anchors = (
{
name = bottom;
position = "{244, 0}";
},
{
name = ogonek;
position = "{449, 0}";
},
{
name = top;
position = "{353, 515}";
}
);
layerId = m01;
paths = (
{
closed = 1;
nodes = (
"39 58 OFFCURVE",
"109 -10 OFFCURVE",
"195 -10 CURVE",
"268 -10 OFFCURVE",
"335 29 OFFCURVE",
"377 100 CURVE",
"364 112 LINE",
"361 0 LINE",
"449 0 LINE",
"449 34 LINE SMOOTH",
"449 65 OFFCURVE",
"451 92 OFFCURVE",
"458 123 CURVE SMOOTH",
"541 515 LINE",
"459 515 LINE",
"436 454 LINE",
"394 254 LINE SMOOTH",
"370 138 OFFCURVE",
"287 72 OFFCURVE",
"219 72 CURVE",
"168 72 OFFCURVE",
"133 109 OFFCURVE",
"133 187 CURVE",
"133 325 OFFCURVE",
"219 448 OFFCURVE",
"315 448 CURVE",
"361 448 OFFCURVE",
"401 428 OFFCURVE",
"438 386 CURVE",
"452 464 LINE",
"413 505 OFFCURVE",
"363 525 OFFCURVE",
"312 525 CURVE",
"172 525 OFFCURVE",
"39 369 OFFCURVE",
"39 177 CURVE"
);
}
);
userData = {
com.schriftgestaltung.Glyphs.lastChange = "2021-03-07 21:55:43 +0000";
};
width = 580;
}
);
leftKerningGroup = a;
rightKerningGroup = a;
unicode = 0061;
},
{
color = 5;
glyphname = ae;
lastChange = "2021-09-23 17:11:44 +0000";
layers = (
{
anchors = (
{
name = top;
position = "{464, 515}";
}
);
layerId = m01;
paths = (
{
closed = 1;
nodes = (
"14 44 OFFCURVE",
"71 -10 OFFCURVE",
"156 -10 CURVE",
"230 -10 OFFCURVE",
"299 16 OFFCURVE",
"373 91 CURVE",
"352 153 LINE",
"296 99 OFFCURVE",
"244 67 OFFCURVE",
"183 67 CURVE",
"133 67 OFFCURVE",
"107 94 OFFCURVE",
"107 131 CURVE",
"107 203 OFFCURVE",
"202 246 OFFCURVE",
"301 246 CURVE SMOOTH",
"322 246 OFFCURVE",
"343 245 OFFCURVE",
"363 244 CURVE",
"375 303 LINE",
"354 305 OFFCURVE",
"318 306 OFFCURVE",
"289 306 CURVE SMOOTH",
"135 306 OFFCURVE",
"14 242 OFFCURVE",
"14 121 CURVE"
);
},
{
closed = 1;
nodes = (
"123 406 LINE",
"171 430 OFFCURVE",
"221 442 OFFCURVE",
"271 442 CURVE SMOOTH",
"333 442 OFFCURVE",
"367 418 OFFCURVE",
"367 361 CURVE SMOOTH",
"367 347 OFFCURVE",
"366 338 OFFCURVE",
"356 288 CURVE",
"442 277 LINE",
"452 330 OFFCURVE",
"458 363 OFFCURVE",
"458 383 CURVE SMOOTH",
"458 477 OFFCURVE",
"392 525 OFFCURVE",
"297 525 CURVE SMOOTH",
"230 525 OFFCURVE",
"161 505 OFFCURVE",
"106 479 CURVE"
);
},
{
closed = 1;
nodes = (
"340 59 OFFCURVE",
"418 -10 OFFCURVE",
"526 -10 CURVE SMOOTH",
"608 -10 OFFCURVE",
"673 25 OFFCURVE",
"732 80 CURVE",
"687 137 LINE",
"646 96 OFFCURVE",
"599 70 OFFCURVE",
"542 70 CURVE SMOOTH",
"476 70 OFFCURVE",
"434 108 OFFCURVE",
"434 186 CURVE SMOOTH",
"434 336 OFFCURVE",
"527 446 OFFCURVE",
"625 446 CURVE",
"677 446 OFFCURVE",
"703 419 OFFCURVE",
"703 384 CURVE SMOOTH",
"703 328 OFFCURVE",
"638 293 OFFCURVE",
"496 293 CURVE SMOOTH",
"475 293 OFFCURVE",
"450 295 OFFCURVE",
"423 299 CURVE",
"410 235 LINE",
"444 230 OFFCURVE",
"474 228 OFFCURVE",
"502 228 CURVE SMOOTH",
"692 228 OFFCURVE",
"792 290 OFFCURVE",
"792 392 CURVE",
"792 465 OFFCURVE",
"737 525 OFFCURVE",
"640 525 CURVE",
"470 525 OFFCURVE",
"340 357 OFFCURVE",
"340 171 CURVE SMOOTH"
);
}
);
userData = {
com.schriftgestaltung.Glyphs.lastChange = "2021-03-02 23:45:59 +0000";
};
width = 827;
}
);
leftKerningGroup = a;
rightKerningGroup = e;
unicode = 00E6;
},
{
color = 5;
glyphname = b;
lastChange = "2021-09-23 17:11:44 +0000";
layers = (
{
layerId = m01;
paths = (
{
closed = 1;
nodes = (
"109 0 LINE",
"132 62 LINE",
"174 261 LINE SMOOTH",
"199 378 OFFCURVE",
"281 444 OFFCURVE",
"349 444 CURVE",
"400 444 OFFCURVE",
"435 407 OFFCURVE",
"435 328 CURVE",
"435 191 OFFCURVE",
"350 68 OFFCURVE",
"253 68 CURVE",
"207 68 OFFCURVE",
"167 87 OFFCURVE",
"130 129 CURVE",
"116 51 LINE",
"155 10 OFFCURVE",
"205 -10 OFFCURVE",
"256 -10 CURVE",
"396 -10 OFFCURVE",
"529 146 OFFCURVE",
"529 339 CURVE",
"529 457 OFFCURVE",
"459 525 OFFCURVE",
"374 525 CURVE",
"301 525 OFFCURVE",
"234 486 OFFCURVE",
"192 416 CURVE",
"204 403 LINE",
"274 732 LINE",
"179 716 LINE",
"27 0 LINE"
);
}
);
userData = {
com.schriftgestaltung.Glyphs.lastChange = "2021-03-02 23:45:59 +0000";
};
width = 578;
}
);
leftKerningGroup = l;
rightKerningGroup = o;
unicode = 0062;
},
{
color = 5;
glyphname = c;
lastChange = "2021-09-23 17:11:44 +0000";
layers = (
{
anchors = (
{
name = bottom;
position = "{215, 0}";
},
{
name = top;
position = "{321, 515}";
}
);
layerId = m01;
paths = (
{
closed = 1;
nodes = (
"38 61 OFFCURVE",
"107 -10 OFFCURVE",
"212 -10 CURVE SMOOTH",
"289 -10 OFFCURVE",
"354 24 OFFCURVE",
"411 79 CURVE",
"365 140 LINE",
"326 99 OFFCURVE",
"277 72 OFFCURVE",
"226 72 CURVE SMOOTH",
"167 72 OFFCURVE",
"131 111 OFFCURVE",
"131 187 CURVE SMOOTH",
"131 312 OFFCURVE",
"210 443 OFFCURVE",
"315 443 CURVE SMOOTH",
"355 443 OFFCURVE",
"385 426 OFFCURVE",
"406 392 CURVE",
"470 448 LINE",
"442 495 OFFCURVE",
"386 525 OFFCURVE",
"326 525 CURVE SMOOTH",
"161 525 OFFCURVE",
"38 358 OFFCURVE",
"38 174 CURVE SMOOTH"
);
}
);
userData = {
com.schriftgestaltung.Glyphs.lastChange = "2021-03-04 00:14:57 +0000";
};
width = 495;
}
);
leftKerningGroup = o;
rightKerningGroup = c;
unicode = 0063;
},
{
color = 5;
glyphname = d;
lastChange = "2021-09-23 17:11:44 +0000";
layers = (
{
anchors = (
{
name = caron.alt;
position = "{673, 720}";
}
);
layerId = m01;
paths = (
{
closed = 1;
nodes = (
"39 58 OFFCURVE",
"108 -10 OFFCURVE",
"194 -10 CURVE",
"267 -10 OFFCURVE",
"335 29 OFFCURVE",
"376 100 CURVE",
"364 112 LINE",
"361 0 LINE",
"448 0 LINE",
"448 34 LINE SMOOTH",
"448 65 OFFCURVE",
"451 92 OFFCURVE",
"458 123 CURVE SMOOTH",
"587 732 LINE",
"492 716 LINE",
"394 254 LINE SMOOTH",
"369 138 OFFCURVE",
"286 72 OFFCURVE",
"219 72 CURVE",
"168 72 OFFCURVE",
"133 109 OFFCURVE",
"133 187 CURVE",
"133 325 OFFCURVE",
"218 449 OFFCURVE",
"314 449 CURVE",
"361 449 OFFCURVE",
"401 430 OFFCURVE",
"438 386 CURVE",
"455 468 LINE",
"415 507 OFFCURVE",
"365 525 OFFCURVE",
"316 525 CURVE",
"169 525 OFFCURVE",
"39 369 OFFCURVE",
"39 177 CURVE"
);
}
);
userData = {
com.schriftgestaltung.Glyphs.lastChange = "2021-03-02 23:45:59 +0000";
};
width = 580;
}
);
leftKerningGroup = o;
rightKerningGroup = l;
unicode = 0064;
},
{
color = 5;
glyphname = eth;
lastChange = "2021-09-23 17:11:44 +0000";
layers = (
{
layerId = m01;
paths = (
{
closed = 1;
nodes = (
"40 73 OFFCURVE",
"119 -10 OFFCURVE",
"227 -10 CURVE",
"382 -10 OFFCURVE",
"508 135 OFFCURVE",
"508 360 CURVE SMOOTH",
"508 501 OFFCURVE",
"426 642 OFFCURVE",
"346 720 CURVE",
"237 720 LINE",
"346 624 OFFCURVE",
"426 505 OFFCURVE",
"426 356 CURVE SMOOTH",
"426 170 OFFCURVE",
"326 69 OFFCURVE",
"236 69 CURVE",
"171 69 OFFCURVE",
"130 118 OFFCURVE",
"130 196 CURVE",
"130 292 OFFCURVE",
"195 401 OFFCURVE",
"303 401 CURVE SMOOTH",
"354 401 OFFCURVE",
"401 376 OFFCURVE",
"432 319 CURVE",
"451 380 LINE",
"430 426 OFFCURVE",
"378 479 OFFCURVE",
"292 479 CURVE",
"152 479 OFFCURVE",
"40 340 OFFCURVE",
"40 193 CURVE"
);
},
{
closed = 1;
nodes = (
"231 533 LINE",
"527 669 LINE",
"506 729 LINE",
"209 594 LINE"
);
}
);
userData = {
com.schriftgestaltung.Glyphs.lastChange = "2021-03-02 23:45:59 +0000";
};
width = 559;
}
);
unicode = 00F0;
},
{
color = 5;
glyphname = dcroat;
lastChange = "2021-09-23 17:11:44 +0000";
layers = (
{
layerId = m01;
paths = (
{
closed = 1;
nodes = (
"631 586 LINE",
"643 644 LINE",
"327 644 LINE",
"315 586 LINE"
);
},
{
closed = 1;
nodes = (
"39 58 OFFCURVE",
"108 -10 OFFCURVE",
"194 -10 CURVE",
"267 -10 OFFCURVE",
"335 29 OFFCURVE",
"376 100 CURVE",
"364 112 LINE",
"361 0 LINE",
"448 0 LINE",
"448 34 LINE SMOOTH",
"448 65 OFFCURVE",
"451 92 OFFCURVE",
"458 123 CURVE SMOOTH",
"587 732 LINE",
"492 716 LINE",
"394 254 LINE SMOOTH",
"369 138 OFFCURVE",
"286 72 OFFCURVE",
"219 72 CURVE",
"168 72 OFFCURVE",
"133 109 OFFCURVE",
"133 187 CURVE",
"133 325 OFFCURVE",
"218 449 OFFCURVE",
"314 449 CURVE",
"361 449 OFFCURVE",
"401 430 OFFCURVE",
"438 386 CURVE",
"455 468 LINE",
"415 507 OFFCURVE",
"365 525 OFFCURVE",
"316 525 CURVE",
"169 525 OFFCURVE",
"39 369 OFFCURVE",
"39 177 CURVE"
);
}
);
userData = {
com.schriftgestaltung.Glyphs.lastChange = "2021-03-02 23:45:59 +0000";
};
width = 585;
}
);
leftKerningGroup = o;
unicode = 0111;
},
{
color = 5;
glyphname = e;
lastChange = "2021-09-23 17:11:44 +0000";
layers = (
{
anchors = (
{
name = bottom;
position = "{224, 0}";
},
{
name = ogonek;
position = "{287, 0}";
},
{
name = top;
position = "{337, 515}";
}
);
layerId = m01;
paths = (
{
closed = 1;
nodes = (
"37 59 OFFCURVE",
"114 -10 OFFCURVE",
"223 -10 CURVE SMOOTH",
"305 -10 OFFCURVE",
"370 25 OFFCURVE",
"429 80 CURVE",
"383 139 LINE",
"342 98 OFFCURVE",
"290 71 OFFCURVE",
"233 71 CURVE SMOOTH",
"171 71 OFFCURVE",
"130 108 OFFCURVE",
"130 186 CURVE SMOOTH",
"130 312 OFFCURVE",
"216 446 OFFCURVE",
"328 446 CURVE SMOOTH",
"371 446 OFFCURVE",
"399 422 OFFCURVE",
"399 384 CURVE SMOOTH",
"399 342 OFFCURVE",
"357 294 OFFCURVE",
"207 294 CURVE SMOOTH",
"180 294 OFFCURVE",
"151 296 OFFCURVE",
"117 299 CURVE",
"106 235 LINE",
"145 231 OFFCURVE",
"180 229 OFFCURVE",
"212 229 CURVE SMOOTH",
"367 229 OFFCURVE",
"491 277 OFFCURVE",
"491 393 CURVE SMOOTH",
"491 468 OFFCURVE",
"428 525 OFFCURVE",
"338 525 CURVE SMOOTH",
"164 525 OFFCURVE",
"37 357 OFFCURVE",
"37 171 CURVE SMOOTH"
);
}
);
userData = {
com.schriftgestaltung.Glyphs.lastChange = "2021-03-02 23:45:59 +0000";
};
width = 524;
}
);
leftKerningGroup = o;
rightKerningGroup = e;
unicode = 0065;
},
{
color = 5;
glyphname = "ipa:schwa";
lastChange = "2021-09-23 17:11:44 +0000";
layers = (
{
layerId = m01;
paths = (
{
closed = 1;
nodes = (
"36 75 OFFCURVE",
"105 -10 OFFCURVE",
"222 -10 CURVE",
"399 -10 OFFCURVE",
"492 147 OFFCURVE",
"492 314 CURVE",
"492 462 OFFCURVE",
"409 525 OFFCURVE",
"295 525 CURVE SMOOTH",
"232 525 OFFCURVE",
"177 504 OFFCURVE",
"122 470 CURVE",
"145 400 LINE",
"188 426 OFFCURVE",
"238 443 OFFCURVE",
"284 443 CURVE SMOOTH",
"360 443 OFFCURVE",
"404 405 OFFCURVE",
"404 310 CURVE",
"404 185 OFFCURVE",
"347 68 OFFCURVE",
"231 68 CURVE",
"159 68 OFFCURVE",
"123 117 OFFCURVE",
"123 178 CURVE SMOOTH",
"123 210 OFFCURVE",
"136 236 OFFCURVE",
"138 245 CURVE",
"107 215 LINE",
"414 215 LINE",
"429 281 LINE",
"54 281 LINE",
"48 266 OFFCURVE",
"36 223 OFFCURVE",
"36 173 CURVE"
);
}
);
userData = {
com.schriftgestaltung.Glyphs.lastChange = "2021-03-02 23:45:59 +0000";
};
width = 547;
}
);
leftKerningGroup = o;
rightKerningGroup = o;
unicode = 0259;
},
{
color = 5;
glyphname = f;
lastChange = "2021-09-23 17:11:44 +0000";
layers = (
{
layerId = m01;
paths = (
{
closed = 1;
nodes = (
"144 0 LINE",
"262 555 LINE SMOOTH",
"275 619 OFFCURVE",
"311 651 OFFCURVE",
"357 651 CURVE SMOOTH",
"381 651 OFFCURVE",
"405 647 OFFCURVE",
"427 636 CURVE",
"457 707 LINE",
"430 720 OFFCURVE",
"394 730 OFFCURVE",
"361 730 CURVE SMOOTH",
"261 730 OFFCURVE",
"195 673 OFFCURVE",
"171 562 CURVE SMOOTH",
"52 0 LINE"
);
},
{
closed = 1;
nodes = (
"381 442 LINE",
"396 515 LINE",
"69 515 LINE",
"54 442 LINE"
);
}
);
userData = {
com.schriftgestaltung.Glyphs.lastChange = "2021-03-02 23:45:59 +0000";
};
width = 347;
}
);
leftKerningGroup = f;
rightKerningGroup = f;
unicode = 0066;
},
{
color = 5;
glyphname = g;
lastChange = "2021-09-23 17:11:44 +0000";
layers = (
{
anchors = (
{
name = top;
position = "{343, 515}";
}
);
layerId = m01;
paths = (
{
closed = 1;
nodes = (
"37 -178 OFFCURVE",
"95 -195 OFFCURVE",
"160 -195 CURVE",
"296 -195 OFFCURVE",
"403 -127 OFFCURVE",
"437 29 CURVE SMOOTH",
"540 515 LINE",
"458 515 LINE",
"435 454 LINE",
"394 258 LINE SMOOTH",
"371 144 OFFCURVE",
"287 80 OFFCURVE",
"220 80 CURVE",
"168 80 OFFCURVE",
"134 117 OFFCURVE",
"134 192 CURVE",
"134 328 OFFCURVE",
"218 449 OFFCURVE",
"314 449 CURVE",
"360 449 OFFCURVE",
"400 430 OFFCURVE",
"437 386 CURVE",
"454 468 LINE",
"414 507 OFFCURVE",
"364 525 OFFCURVE",
"315 525 CURVE",
"168 525 OFFCURVE",
"40 373 OFFCURVE",
"40 182 CURVE",
"40 67 OFFCURVE",
"107 0 OFFCURVE",
"194 0 CURVE",
"266 0 OFFCURVE",
"334 36 OFFCURVE",
"375 103 CURVE",
"364 116 LINE",
"345 31 LINE SMOOTH",
"323 -71 OFFCURVE",
"251 -113 OFFCURVE",
"167 -113 CURVE",
"114 -113 OFFCURVE",
"63 -97 OFFCURVE",
"26 -75 CURVE",
"-13 -151 LINE"
);
}
);
userData = {
com.schriftgestaltung.Glyphs.lastChange = "2021-03-02 23:45:59 +0000";
};
width = 575;
}
);
leftKerningGroup = o;
rightKerningGroup = u;
unicode = 0067;
},
{
color = 5;
glyphname = h;
lastChange = "2021-09-23 17:11:44 +0000";
layers = (
{
anchors = (
{
name = top;
position = "{225, 720}";
}
);
layerId = m01;
paths = (
{
closed = 1;
nodes = (
"119 0 LINE",
"174 261 LINE SMOOTH",
"199 378 OFFCURVE",
"283 444 OFFCURVE",
"349 444 CURVE",
"400 444 OFFCURVE",
"432 416 OFFCURVE",
"432 358 CURVE SMOOTH",
"432 344 OFFCURVE",
"430 330 OFFCURVE",
"426 313 CURVE SMOOTH",
"360 0 LINE",
"452 0 LINE",
"519 314 LINE SMOOTH",
"523 334 OFFCURVE",
"525 354 OFFCURVE",
"525 371 CURVE SMOOTH",
"525 468 OFFCURVE",
"458 525 OFFCURVE",
"378 525 CURVE",
"302 525 OFFCURVE",
"235 486 OFFCURVE",
"193 416 CURVE",
"204 403 LINE",
"274 732 LINE",
"179 716 LINE",
"27 0 LINE"
);
}
);
userData = {
com.schriftgestaltung.Glyphs.lastChange = "2021-03-02 23:45:59 +0000";
};
width = 594;
}
);
leftKerningGroup = l;
rightKerningGroup = n;
unicode = 0068;
},
{
color = 5;
glyphname = hbar;
lastChange = "2021-09-23 17:11:44 +0000";
layers = (
{
layerId = m01;
paths = (
{
closed = 1;
nodes = (
"397 585 LINE",
"410 644 LINE",
"94 644 LINE",
"81 585 LINE"
);
},
{
closed = 1;
nodes = (
"124 0 LINE",
"179 261 LINE SMOOTH",
"204 378 OFFCURVE",
"288 444 OFFCURVE",
"354 444 CURVE",
"405 444 OFFCURVE",
"437 416 OFFCURVE",
"437 358 CURVE SMOOTH",
"437 344 OFFCURVE",
"435 330 OFFCURVE",
"431 313 CURVE SMOOTH",
"365 0 LINE",
"457 0 LINE",
"524 314 LINE SMOOTH",
"528 334 OFFCURVE",
"530 354 OFFCURVE",
"530 371 CURVE SMOOTH",
"530 468 OFFCURVE",
"463 525 OFFCURVE",
"383 525 CURVE",
"307 525 OFFCURVE",
"240 486 OFFCURVE",
"198 416 CURVE",
"209 403 LINE",
"279 732 LINE",
"184 716 LINE",
"32 0 LINE"
);
}
);
userData = {
com.schriftgestaltung.Glyphs.lastChange = "2021-03-02 23:45:59 +0000";
};
width = 600;
}
);
leftKerningGroup = l;
rightKerningGroup = n;
unicode = 0127;
},
{
color = 5;
glyphname = i;
lastChange = "2021-09-23 17:11:44 +0000";
layers = (
{
anchors = (
{
name = bottom;
position = "{73, 0}";
},
{
name = ogonek;
position = "{119, 0}";
}
);
layerId = m01;
paths = (
{
closed = 1;
nodes = (
"119 0 LINE",
"228 515 LINE",
"136 515 LINE",
"27 0 LINE"
);
},
{
closed = 1;
nodes = (
"154 630 OFFCURVE",
"173 608 OFFCURVE",
"205 608 CURVE",
"244 608 OFFCURVE",
"276 641 OFFCURVE",
"276 679 CURVE",
"276 708 OFFCURVE",
"257 730 OFFCURVE",
"225 730 CURVE",
"186 730 OFFCURVE",
"154 696 OFFCURVE",
"154 658 CURVE"
);
}
);
userData = {
com.schriftgestaltung.Glyphs.lastChange = "2021-03-08 00:34:42 +0000";
};
width = 266;
}
);
leftKerningGroup = i;
rightKerningGroup = i;
unicode = 0069;
},
{
color = 5;
glyphname = idotless;
lastChange = "2021-09-23 17:11:44 +0000";
layers = (
{
anchors = (
{
name = bottom;
position = "{73, 0}";
},
{
name = ogonek;
position = "{119, 0}";
},
{
name = top;
position = "{184, 515}";
}
);
layerId = m01;
paths = (
{
closed = 1;
nodes = (
"119 0 LINE",
"228 515 LINE",
"136 515 LINE",
"27 0 LINE"
);
}
);
userData = {
com.schriftgestaltung.Glyphs.lastChange = "2021-03-08 00:36:58 +0000";
};
width = 266;
}
);
unicode = 0131;
},
{
color = 5;
glyphname = j;
lastChange = "2021-09-23 17:11:44 +0000";
layers = (
{
layerId = m01;
paths = (
{
closed = 1;
nodes = (
"-129 -186 OFFCURVE",
"-99 -195 OFFCURVE",
"-66 -195 CURVE",
"24 -195 OFFCURVE",
"89 -142 OFFCURVE",
"112 -32 CURVE SMOOTH",
"228 515 LINE",
"136 515 LINE",
"20 -30 LINE SMOOTH",
"7 -94 OFFCURVE",
"-26 -117 OFFCURVE",
"-70 -117 CURVE",
"-89 -117 OFFCURVE",
"-109 -112 OFFCURVE",
"-124 -104 CURVE",
"-150 -175 LINE"
);
},
{
closed = 1;
nodes = (
"154 630 OFFCURVE",
"173 608 OFFCURVE",
"205 608 CURVE",
"244 608 OFFCURVE",
"276 641 OFFCURVE",
"276 679 CURVE",
"276 708 OFFCURVE",
"257 730 OFFCURVE",
"225 730 CURVE",
"186 730 OFFCURVE",
"154 696 OFFCURVE",
"154 658 CURVE"
);
}
);
userData = {
com.schriftgestaltung.Glyphs.lastChange = "2021-03-02 23:45:59 +0000";
};
width = 266;
}
);
leftKerningGroup = j;
rightKerningGroup = i;
unicode = 006A;
},
{
color = 4;
glyphname = jdotless;
lastChange = "2021-09-23 17:11:44 +0000";
layers = (
{
anchors = (
{
name = top;
position = "{184, 515}";
}
);
layerId = m01;
paths = (
{
closed = 1;
nodes = (
"-129 -186 OFFCURVE",
"-99 -195 OFFCURVE",
"-66 -195 CURVE",
"24 -195 OFFCURVE",
"89 -142 OFFCURVE",
"112 -32 CURVE SMOOTH",
"228 515 LINE",
"136 515 LINE",
"20 -30 LINE SMOOTH",
"6 -94 OFFCURVE",
"-26 -117 OFFCURVE",
"-70 -117 CURVE",
"-89 -117 OFFCURVE",
"-109 -112 OFFCURVE",
"-124 -104 CURVE",
"-150 -175 LINE"
);
}
);
userData = {
com.schriftgestaltung.Glyphs.lastChange = "2021-03-09 01:04:45 +0000";
};
width = 266;
}
);
unicode = 0237;
},
{
color = 5;
glyphname = k;
lastChange = "2021-09-23 17:11:44 +0000";
layers = (
{
anchors = (
{
name = bottom;
position = "{236, 0}";
}
);
layerId = m01;
paths = (
{
closed = 1;
nodes = (
"119 0 LINE",
"275 732 LINE",
"179 716 LINE",
"27 0 LINE"
);
},
{
closed = 1;
nodes = (
"547 515 LINE",
"425 515 LINE",
"151 267 LINE",
"127 153 LINE"
);
},
{
closed = 1;
nodes = (
"348 0 LINE",
"447 0 LINE",
"291 330 LINE",
"225 273 LINE"
);
}
);
userData = {
com.schriftgestaltung.Glyphs.lastChange = "2021-03-02 23:45:59 +0000";
};
width = 517;
}
);
leftKerningGroup = l;
rightKerningGroup = k;
unicode = 006B;
},
{
color = 5;
glyphname = kra;
lastChange = "2021-09-23 17:11:44 +0000";
layers = (
{
layerId = m01;
paths = (
{
closed = 1;
nodes = (
"119 0 LINE",
"228 515 LINE",
"136 515 LINE",
"27 0 LINE"
);
},
{
closed = 1;
nodes = (
"547 515 LINE",
"425 515 LINE",
"151 267 LINE",
"127 153 LINE"
);
},
{
closed = 1;
nodes = (
"348 0 LINE",
"447 0 LINE",
"291 330 LINE",
"225 273 LINE"
);
}
);
userData = {
com.schriftgestaltung.Glyphs.lastChange = "2021-03-03 04:25:16 +0000";
};
width = 517;
}
);
rightKerningGroup = k;
unicode = 0138;
},
{
color = 5;
glyphname = l;
lastChange = "2021-09-23 17:11:44 +0000";
layers = (
{
anchors = (
{
name = bottom;
position = "{73, 0}";
},
{
name = caron.alt;
position = "{359, 720}";
},
{
name = top;
position = "{226, 720}";
}
);
layerId = m01;
paths = (
{
closed = 1;
nodes = (
"119 0 LINE",
"274 732 LINE",
"179 716 LINE",
"27 0 LINE"
);
}
);
userData = {
com.schriftgestaltung.Glyphs.lastChange = "2021-03-02 23:45:59 +0000";
};
width = 266;
}
);
leftKerningGroup = l;
rightKerningGroup = l;
unicode = 006C;
},
{
color = 5;
glyphname = lslash;
lastChange = "2021-09-23 17:11:44 +0000";
layers = (
{
layerId = m01;
paths = (
{
closed = 1;
nodes = (
"139 0 LINE",
"294 732 LINE",
"199 716 LINE",
"47 0 LINE"
);
},
{
closed = 1;
nodes = (
"285 351 LINE",
"308 442 LINE",
"41 301 LINE",
"18 210 LINE"
);
}
);
userData = {
com.schriftgestaltung.Glyphs.lastChange = "2021-03-02 23:45:59 +0000";
};
width = 306;
}
);
unicode = 0142;
},
{
color = 5;
glyphname = m;
lastChange = "2021-09-23 17:11:44 +0000";
layers = (
{
layerId = m01;
paths = (
{
closed = 1;
nodes = (
"120 0 LINE",
"175 261 LINE SMOOTH",
"199 375 OFFCURVE",
"274 444 OFFCURVE",
"337 444 CURVE",
"384 444 OFFCURVE",
"408 416 OFFCURVE",
"408 358 CURVE SMOOTH",
"408 344 OFFCURVE",
"406 330 OFFCURVE",
"402 313 CURVE SMOOTH",
"336 0 LINE",
"428 0 LINE",
"483 261 LINE SMOOTH",
"508 375 OFFCURVE",
"583 444 OFFCURVE",
"645 444 CURVE",
"692 444 OFFCURVE",
"716 416 OFFCURVE",
"716 358 CURVE SMOOTH",
"716 344 OFFCURVE",
"714 330 OFFCURVE",
"711 313 CURVE SMOOTH",
"645 0 LINE",
"737 0 LINE",
"804 314 LINE SMOOTH",
"808 334 OFFCURVE",
"810 354 OFFCURVE",
"810 371 CURVE SMOOTH",
"810 468 OFFCURVE",
"751 525 OFFCURVE",
"671 525 CURVE",
"592 525 OFFCURVE",
"521 479 OFFCURVE",
"485 399 CURVE",
"501 383 LINE",
"497 472 OFFCURVE",
"440 525 OFFCURVE",
"367 525 CURVE",
"294 525 OFFCURVE",
"232 486 OFFCURVE",
"193 416 CURVE",
"205 403 LINE",
"208 515 LINE",
"121 515 LINE",
"121 482 LINE SMOOTH",
"121 450 OFFCURVE",
"118 423 OFFCURVE",
"111 392 CURVE SMOOTH",
"28 0 LINE"
);
}
);
userData = {
com.schriftgestaltung.Glyphs.lastChange = "2021-03-02 23:45:59 +0000";
};
width = 879;
}
);
leftKerningGroup = n;
rightKerningGroup = n;
unicode = 006D;
},
{
color = 5;
glyphname = n;
lastChange = "2021-09-23 17:11:44 +0000";
layers = (
{
anchors = (
{
name = bottom;
position = "{242, 0}";
},
{
name = top;
position = "{343, 515}";
}
);
layerId = m01;
paths = (
{
closed = 1;
nodes = (
"120 0 LINE",
"175 261 LINE SMOOTH",
"200 378 OFFCURVE",
"284 444 OFFCURVE",
"350 444 CURVE",
"401 444 OFFCURVE",
"433 416 OFFCURVE",
"433 358 CURVE SMOOTH",
"433 344 OFFCURVE",
"431 330 OFFCURVE",
"427 313 CURVE SMOOTH",
"361 0 LINE",
"453 0 LINE",
"520 314 LINE SMOOTH",
"524 334 OFFCURVE",
"526 354 OFFCURVE",
"526 371 CURVE SMOOTH",
"526 468 OFFCURVE",
"459 525 OFFCURVE",
"379 525 CURVE",
"303 525 OFFCURVE",
"234 486 OFFCURVE",
"193 416 CURVE",
"205 403 LINE",
"208 515 LINE",
"121 515 LINE",
"121 482 LINE SMOOTH",
"121 450 OFFCURVE",
"118 423 OFFCURVE",
"111 392 CURVE SMOOTH",
"28 0 LINE"
);
}
);
userData = {
com.schriftgestaltung.Glyphs.lastChange = "2021-03-02 23:45:59 +0000";
};
width = 595;
}
);
leftKerningGroup = n;
rightKerningGroup = n;
unicode = 006E;
},
{
color = 5;
glyphname = nhookleft;
lastChange = "2021-09-23 17:11:44 +0000";
layers = (
{
layerId = m01;
paths = (
{
closed = 1;
nodes = (
"-126 -186 OFFCURVE",
"-96 -195 OFFCURVE",
"-63 -195 CURVE SMOOTH",
"27 -195 OFFCURVE",
"87 -153 OFFCURVE",
"113 -32 CURVE SMOOTH",
"175 261 LINE SMOOTH",
"200 378 OFFCURVE",
"284 444 OFFCURVE",
"350 444 CURVE",
"401 444 OFFCURVE",
"433 416 OFFCURVE",
"433 358 CURVE SMOOTH",
"433 344 OFFCURVE",
"431 330 OFFCURVE",
"427 313 CURVE SMOOTH",
"361 0 LINE",
"453 0 LINE",
"520 314 LINE SMOOTH",
"524 334 OFFCURVE",
"526 354 OFFCURVE",
"526 371 CURVE SMOOTH",
"526 468 OFFCURVE",
"459 525 OFFCURVE",
"379 525 CURVE",
"303 525 OFFCURVE",
"234 486 OFFCURVE",
"193 416 CURVE",
"205 403 LINE",
"208 515 LINE",
"121 515 LINE",
"121 482 LINE SMOOTH",
"121 450 OFFCURVE",
"118 423 OFFCURVE",
"111 392 CURVE",
"22 -30 LINE SMOOTH",
"9 -94 OFFCURVE",
"-23 -117 OFFCURVE",
"-67 -117 CURVE SMOOTH",
"-86 -117 OFFCURVE",
"-106 -112 OFFCURVE",
"-121 -104 CURVE",
"-147 -175 LINE"
);
}
);
userData = {
com.schriftgestaltung.Glyphs.lastChange = "2021-03-02 23:45:59 +0000";
};
width = 595;
}
);
leftKerningGroup = j;
rightKerningGroup = n;
unicode = 0272;
},
{
color = 5;
glyphname = eng;
lastChange = "2021-09-23 17:11:44 +0000";
layers = (
{
layerId = m01;
paths = (
{
closed = 1;
nodes = (
"120 0 LINE",
"175 261 LINE SMOOTH",
"200 378 OFFCURVE",
"284 444 OFFCURVE",
"350 444 CURVE",
"401 444 OFFCURVE",
"433 416 OFFCURVE",
"433 358 CURVE SMOOTH",
"433 344 OFFCURVE",
"431 330 OFFCURVE",
"427 313 CURVE",
"355 -30 LINE SMOOTH",
"342 -94 OFFCURVE",
"310 -117 OFFCURVE",
"266 -117 CURVE",
"247 -117 OFFCURVE",
"227 -112 OFFCURVE",
"212 -104 CURVE",
"186 -175 LINE",
"207 -186 OFFCURVE",
"237 -195 OFFCURVE",
"270 -195 CURVE",
"360 -195 OFFCURVE",
"420 -153 OFFCURVE",
"446 -32 CURVE SMOOTH",
"520 314 LINE SMOOTH",
"524 334 OFFCURVE",
"526 354 OFFCURVE",
"526 371 CURVE SMOOTH",
"526 468 OFFCURVE",
"459 525 OFFCURVE",
"379 525 CURVE",
"303 525 OFFCURVE",
"234 486 OFFCURVE",
"193 416 CURVE",
"205 403 LINE",
"208 515 LINE",
"121 515 LINE",
"121 482 LINE SMOOTH",
"121 450 OFFCURVE",
"118 423 OFFCURVE",
"111 392 CURVE SMOOTH",
"28 0 LINE"
);
}
);
userData = {
com.schriftgestaltung.Glyphs.lastChange = "2021-03-02 23:45:59 +0000";
};
width = 595;
}
);
leftKerningGroup = n;
rightKerningGroup = n;
unicode = 014B;
},
{
color = 5;
glyphname = o;
lastChange = "2021-09-23 17:11:44 +0000";
layers = (
{
anchors = (
{
name = bottom;
position = "{215, 0}";
},
{
name = horn;
position = "{425, 515}";
},
{
name = ogonek;
position = "{260, 0}";
},
{
name = top;
position = "{320, 515}";
}
);
layerId = m01;
paths = (
{
closed = 1;
nodes = (
"38 60 OFFCURVE",
"109 -10 OFFCURVE",
"213 -10 CURVE",
"382 -10 OFFCURVE",
"504 160 OFFCURVE",
"504 341 CURVE",
"504 455 OFFCURVE",
"433 525 OFFCURVE",
"329 525 CURVE",
"159 525 OFFCURVE",
"38 358 OFFCURVE",
"38 174 CURVE"
);
},
{
closed = 1;
nodes = (
"131 312 OFFCURVE",
"210 446 OFFCURVE",
"317 446 CURVE",
"376 446 OFFCURVE",
"411 407 OFFCURVE",
"411 328 CURVE",
"411 202 OFFCURVE",
"332 69 OFFCURVE",
"224 69 CURVE",
"165 69 OFFCURVE",
"131 108 OFFCURVE",
"131 186 CURVE"
);
}
);
userData = {
com.schriftgestaltung.Glyphs.lastChange = "2021-03-09 01:52:30 +0000";
};
width = 553;
}
);
leftKerningGroup = o;
rightKerningGroup = o;
unicode = 006F;
},
{
color = 5;
glyphname = oslash;
lastChange = "2021-09-23 17:11:44 +0000";
layers = (
{
anchors = (
{
name = top;
position = "{320, 515}";
}
);
layerId = m01;
paths = (
{
closed = 1;
nodes = (
"38 60 OFFCURVE",
"109 -10 OFFCURVE",
"213 -10 CURVE",
"382 -10 OFFCURVE",
"504 160 OFFCURVE",
"504 341 CURVE",
"504 455 OFFCURVE",
"433 525 OFFCURVE",
"329 525 CURVE",
"159 525 OFFCURVE",
"38 358 OFFCURVE",
"38 174 CURVE"
);
},
{
closed = 1;
nodes = (
"131 312 OFFCURVE",
"210 446 OFFCURVE",
"317 446 CURVE",
"376 446 OFFCURVE",
"411 407 OFFCURVE",
"411 328 CURVE",
"411 202 OFFCURVE",
"332 69 OFFCURVE",
"224 69 CURVE",
"165 69 OFFCURVE",
"131 108 OFFCURVE",
"131 186 CURVE"
);
},
{
closed = 1;
nodes = (
"31 -10 LINE",
"558 475 LINE",
"512 525 LINE",
"-15 40 LINE"
);
}
);
userData = {
com.schriftgestaltung.Glyphs.lastChange = "2021-03-02 23:45:59 +0000";
};
width = 553;
}
);
leftKerningGroup = o;
rightKerningGroup = o;
unicode = 00F8;
},
{
color = 5;
glyphname = oe;
lastChange = "2021-09-23 17:11:44 +0000";
layers = (
{
layerId = m01;
paths = (
{
closed = 1;
nodes = (
"40 60 OFFCURVE",
"102 -10 OFFCURVE",
"208 -10 CURVE",
"377 -10 OFFCURVE",
"485 168 OFFCURVE",
"485 341 CURVE",
"485 452 OFFCURVE",
"422 525 OFFCURVE",
"319 525 CURVE",
"152 525 OFFCURVE",
"40 363 OFFCURVE",
"40 176 CURVE"
);
},
{
closed = 1;
nodes = (
"132 312 OFFCURVE",
"203 446 OFFCURVE",
"310 446 CURVE",
"364 446 OFFCURVE",
"395 407 OFFCURVE",
"395 328 CURVE",
"395 202 OFFCURVE",
"325 69 OFFCURVE",
"217 69 CURVE",
"162 69 OFFCURVE",
"132 108 OFFCURVE",
"132 186 CURVE"
);
},
{
closed = 1;
nodes = (
"390 59 OFFCURVE",
"465 -10 OFFCURVE",
"562 -10 CURVE SMOOTH",
"644 -10 OFFCURVE",
"709 25 OFFCURVE",
"768 80 CURVE",
"722 139 LINE",
"681 98 OFFCURVE",
"629 71 OFFCURVE",
"572 71 CURVE SMOOTH",
"517 71 OFFCURVE",
"476 111 OFFCURVE",
"476 186 CURVE SMOOTH",
"476 312 OFFCURVE",
"560 446 OFFCURVE",
"667 446 CURVE SMOOTH",
"711 446 OFFCURVE",
"739 422 OFFCURVE",
"739 384 CURVE SMOOTH",
"739 341 OFFCURVE",
"696 293 OFFCURVE",
"530 293 CURVE SMOOTH",
"509 293 OFFCURVE",
"490 295 OFFCURVE",
"462 299 CURVE",
"452 235 LINE",
"486 230 OFFCURVE",
"509 228 OFFCURVE",
"537 228 CURVE SMOOTH",
"731 228 OFFCURVE",
"830 294 OFFCURVE",
"830 393 CURVE SMOOTH",
"830 468 OFFCURVE",
"767 525 OFFCURVE",
"677 525 CURVE SMOOTH",
"517 525 OFFCURVE",
"390 357 OFFCURVE",
"390 171 CURVE SMOOTH"
);
}
);
userData = {
com.schriftgestaltung.Glyphs.lastChange = "2021-03-02 23:45:59 +0000";
};
width = 863;
}
);
leftKerningGroup = o;
rightKerningGroup = e;
unicode = 0153;
},
{
color = 5;
glyphname = p;
lastChange = "2021-09-23 17:11:44 +0000";
layers = (
{
layerId = m01;
paths = (
{
closed = 1;
nodes = (
"81 -181 LINE",
"175 261 LINE SMOOTH",
"200 378 OFFCURVE",
"282 444 OFFCURVE",
"350 444 CURVE",
"401 444 OFFCURVE",
"436 407 OFFCURVE",
"436 328 CURVE",
"436 191 OFFCURVE",
"351 67 OFFCURVE",
"254 67 CURVE",
"208 67 OFFCURVE",
"168 85 OFFCURVE",
"131 129 CURVE",
"114 48 LINE",
"154 9 OFFCURVE",
"204 -10 OFFCURVE",
"253 -10 CURVE",
"400 -10 OFFCURVE",
"530 146 OFFCURVE",
"530 339 CURVE",
"530 457 OFFCURVE",
"460 525 OFFCURVE",
"375 525 CURVE",
"302 525 OFFCURVE",
"234 486 OFFCURVE",
"193 416 CURVE",
"205 403 LINE",
"208 515 LINE",
"121 515 LINE",
"121 482 LINE SMOOTH",
"121 450 OFFCURVE",
"118 423 OFFCURVE",
"111 392 CURVE SMOOTH",
"-14 -197 LINE"
);
}
);
userData = {
com.schriftgestaltung.Glyphs.lastChange = "2021-03-02 23:45:59 +0000";
};
width = 579;
}
);
leftKerningGroup = n;
rightKerningGroup = o;
unicode = 0070;
},
{
color = 5;
glyphname = thorn;
lastChange = "2021-09-23 17:11:44 +0000";
layers = (
{
layerId = m01;
paths = (
{
closed = 1;
nodes = (
"81 -180 LINE",
"175 261 LINE SMOOTH",
"200 378 OFFCURVE",
"282 444 OFFCURVE",
"350 444 CURVE",
"401 444 OFFCURVE",
"436 407 OFFCURVE",
"436 328 CURVE",
"436 191 OFFCURVE",
"351 67 OFFCURVE",
"254 67 CURVE",
"208 67 OFFCURVE",
"168 85 OFFCURVE",
"131 129 CURVE",
"114 48 LINE",
"154 9 OFFCURVE",
"204 -10 OFFCURVE",
"253 -10 CURVE",
"400 -10 OFFCURVE",
"530 146 OFFCURVE",
"530 339 CURVE",
"530 457 OFFCURVE",
"460 525 OFFCURVE",
"375 525 CURVE",
"302 525 OFFCURVE",
"234 486 OFFCURVE",
"193 416 CURVE",
"206 406 LINE",
"276 735 LINE",
"180 715 LINE",
"-14 -197 LINE"
);
}
);
userData = {
com.schriftgestaltung.Glyphs.lastChange = "2021-03-02 23:45:59 +0000";
};
width = 579;
}
);
leftKerningGroup = l;
rightKerningGroup = o;
unicode = 00FE;
},
{
color = 5;
glyphname = q;
lastChange = "2021-09-23 17:11:44 +0000";
layers = (
{
layerId = m01;
paths = (
{
closed = 1;
nodes = (
"39 58 OFFCURVE",
"109 -10 OFFCURVE",
"195 -10 CURVE",
"268 -10 OFFCURVE",
"334 29 OFFCURVE",
"376 100 CURVE",
"364 112 LINE",
"298 -197 LINE",
"393 -181 LINE",
"541 515 LINE",
"459 515 LINE",
"436 454 LINE",
"394 254 LINE SMOOTH",
"369 138 OFFCURVE",
"287 72 OFFCURVE",
"219 72 CURVE",
"168 72 OFFCURVE",
"133 109 OFFCURVE",
"133 187 CURVE",
"133 325 OFFCURVE",
"219 448 OFFCURVE",
"315 448 CURVE",
"361 448 OFFCURVE",
"401 428 OFFCURVE",
"438 386 CURVE",
"452 464 LINE",
"413 505 OFFCURVE",
"363 525 OFFCURVE",
"312 525 CURVE",
"172 525 OFFCURVE",
"39 369 OFFCURVE",
"39 177 CURVE"
);
}
);
userData = {
com.schriftgestaltung.Glyphs.lastChange = "2021-03-02 23:45:59 +0000";
};
width = 579;
}
);
leftKerningGroup = o;
rightKerningGroup = u;
unicode = 0071;
},
{
color = 5;
glyphname = r;
lastChange = "2021-09-23 17:11:44 +0000";
layers = (
{
anchors = (
{
name = bottom;
position = "{76, 0}";
},
{
name = top;
position = "{254, 515}";
}
);
layerId = m01;
paths = (
{
closed = 1;
nodes = (
"120 0 LINE",
"169 235 LINE SMOOTH",
"202 386 OFFCURVE",
"281 430 OFFCURVE",
"362 433 CURVE",
"381 525 LINE",
"305 522 OFFCURVE",
"241 491 OFFCURVE",
"189 398 CURVE",
"205 387 LINE",
"208 515 LINE",
"121 515 LINE",
"121 482 LINE SMOOTH",
"121 450 OFFCURVE",
"118 423 OFFCURVE",
"111 392 CURVE SMOOTH",
"28 0 LINE"
);
}
);
userData = {
com.schriftgestaltung.Glyphs.lastChange = "2021-03-02 23:45:59 +0000";
};
width = 353;
}
);
leftKerningGroup = n;
rightKerningGroup = r;
unicode = 0072;
},
{
color = 5;
glyphname = s;
lastChange = "2021-09-23 17:11:44 +0000";
layers = (
{
anchors = (
{
name = bottom;
position = "{186, 0}";
},
{
name = top;
position = "{271, 515}";
}
);
layerId = m01;
paths = (
{
closed = 1;
nodes = (
"49 17 OFFCURVE",
"118 -10 OFFCURVE",
"193 -10 CURVE",
"322 -10 OFFCURVE",
"391 63 OFFCURVE",
"391 136 CURVE",
"391 205 OFFCURVE",
"354 247 OFFCURVE",
"253 303 CURVE SMOOTH",
"189 338 OFFCURVE",
"170 358 OFFCURVE",
"170 386 CURVE",
"170 418 OFFCURVE",
"200 448 OFFCURVE",
"257 448 CURVE",
"308 448 OFFCURVE",
"358 424 OFFCURVE",
"389 395 CURVE",
"436 464 LINE",
"392 501 OFFCURVE",
"327 525 OFFCURVE",
"266 525 CURVE",
"147 525 OFFCURVE",
"78 456 OFFCURVE",
"78 379 CURVE",
"78 319 OFFCURVE",
"112 278 OFFCURVE",
"206 226 CURVE SMOOTH",
"276 187 OFFCURVE",
"296 164 OFFCURVE",
"296 131 CURVE",
"296 102 OFFCURVE",
"265 69 OFFCURVE",
"201 69 CURVE",
"143 69 OFFCURVE",
"92 91 OFFCURVE",
"50 131 CURVE",
"-2 62 LINE"
);
}
);
userData = {
com.schriftgestaltung.Glyphs.lastChange = "2021-03-02 23:45:59 +0000";
};
width = 470;
}
);
leftKerningGroup = s;
rightKerningGroup = s;
unicode = 0073;
},
{
color = 5;
glyphname = germandbls;
lastChange = "2021-09-23 17:11:44 +0000";
layers = (
{
layerId = m01;
paths = (
{
closed = 1;
nodes = (
"119 0 LINE",
"230 520 LINE SMOOTH",
"248 608 OFFCURVE",
"300 648 OFFCURVE",
"362 648 CURVE SMOOTH",
"415 648 OFFCURVE",
"446 623 OFFCURVE",
"446 572 CURVE",
"446 509 OFFCURVE",
"383 458 OFFCURVE",
"273 392 CURVE",
"257 317 LINE",
"365 250 LINE SMOOTH",
"405 225 OFFCURVE",
"429 196 OFFCURVE",
"429 159 CURVE SMOOTH",
"429 109 OFFCURVE",
"380 69 OFFCURVE",
"322 69 CURVE SMOOTH",
"280 69 OFFCURVE",
"248 81 OFFCURVE",
"222 99 CURVE",
"180 34 LINE",
"205 16 OFFCURVE",
"254 -10 OFFCURVE",
"324 -10 CURVE",
"432 -10 OFFCURVE",
"522 56 OFFCURVE",
"522 165 CURVE SMOOTH",
"522 229 OFFCURVE",
"482 275 OFFCURVE",
"425 310 CURVE SMOOTH",
"352 355 LINE",
"455 420 OFFCURVE",
"539 483 OFFCURVE",
"539 584 CURVE",
"539 674 OFFCURVE",
"469 730 OFFCURVE",
"368 730 CURVE SMOOTH",
"242 730 OFFCURVE",
"168 664 OFFCURVE",
"139 524 CURVE SMOOTH",
"27 0 LINE"
);
}
);
userData = {
com.schriftgestaltung.Glyphs.lastChange = "2021-03-02 23:45:59 +0000";
};
width = 595;
}
);
unicode = 00DF;
},
{
color = 5;
glyphname = t;
lastChange = "2021-09-23 17:11:44 +0000";
layers = (
{
anchors = (
{
name = bottom;
position = "{177, 0}";
},
{
name = caron.alt;
position = "{480, 720}";
}
);
layerId = m01;
paths = (
{
closed = 1;
nodes = (
"377 442 LINE",
"392 515 LINE",
"69 515 LINE",
"54 442 LINE"
);
},
{
closed = 1;
nodes = (
"81 36 OFFCURVE",
"131 -10 OFFCURVE",
"209 -10 CURVE",
"241 -10 OFFCURVE",
"278 0 OFFCURVE",
"305 13 CURVE",
"294 93 LINE",
"270 82 OFFCURVE",
"245 75 OFFCURVE",
"224 75 CURVE",
"193 75 OFFCURVE",
"174 91 OFFCURVE",
"174 126 CURVE",
"174 138 OFFCURVE",
"175 150 OFFCURVE",
"178 163 CURVE SMOOTH",
"283 656 LINE",
"188 640 LINE",
"87 163 LINE SMOOTH",
"83 147 OFFCURVE",
"81 129 OFFCURVE",
"81 112 CURVE"
);
}
);
userData = {
com.schriftgestaltung.Glyphs.lastChange = "2021-03-02 23:45:59 +0000";
};
width = 387;
}
);
leftKerningGroup = t;
rightKerningGroup = t;
unicode = 0074;
},
{
color = 5;
glyphname = tbar;
lastChange = "2021-09-23 17:11:44 +0000";
layers = (
{
layerId = m01;
paths = (
{
closed = 1;
nodes = (
"344 241 LINE",
"359 308 LINE",
"36 308 LINE",
"21 241 LINE"
);
},
{
closed = 1;
nodes = (
"387 442 LINE",
"402 515 LINE",
"79 515 LINE",
"64 442 LINE"
);
},
{
closed = 1;
nodes = (
"91 36 OFFCURVE",
"141 -10 OFFCURVE",
"219 -10 CURVE",
"251 -10 OFFCURVE",
"288 0 OFFCURVE",
"315 13 CURVE",
"304 93 LINE",
"280 82 OFFCURVE",
"255 75 OFFCURVE",
"234 75 CURVE",
"203 75 OFFCURVE",
"184 91 OFFCURVE",
"184 126 CURVE",
"184 138 OFFCURVE",
"185 150 OFFCURVE",
"188 163 CURVE SMOOTH",
"293 656 LINE",
"198 640 LINE",
"97 163 LINE SMOOTH",
"93 147 OFFCURVE",
"91 129 OFFCURVE",
"91 112 CURVE"
);
}
);
userData = {
com.schriftgestaltung.Glyphs.lastChange = "2021-03-02 23:45:59 +0000";
};
width = 408;
}
);
unicode = 0167;
},
{
color = 5;
glyphname = u;
lastChange = "2021-09-23 17:11:44 +0000";
layers = (
{
anchors = (
{
name = bottom;
position = "{246, 0}";
},
{
name = horn;
position = "{517, 539}";
},
{
name = ogonek;
position = "{464, 0}";
},
{
name = top;
position = "{342, 515}";
}
);
layerId = m01;
paths = (
{
closed = 1;
nodes = (
"59 47 OFFCURVE",
"126 -10 OFFCURVE",
"206 -10 CURVE",
"282 -10 OFFCURVE",
"351 29 OFFCURVE",
"392 100 CURVE",
"380 112 LINE",
"377 0 LINE",
"464 0 LINE",
"464 34 LINE SMOOTH",
"464 65 OFFCURVE",
"467 92 OFFCURVE",
"474 123 CURVE SMOOTH",
"557 515 LINE",
"465 515 LINE",
"410 254 LINE SMOOTH",
"386 138 OFFCURVE",
"301 72 OFFCURVE",
"235 72 CURVE",
"184 72 OFFCURVE",
"152 99 OFFCURVE",
"152 157 CURVE SMOOTH",
"152 171 OFFCURVE",
"155 186 OFFCURVE",
"158 202 CURVE SMOOTH",
"224 515 LINE",
"132 515 LINE",
"65 202 LINE SMOOTH",
"61 182 OFFCURVE",
"59 162 OFFCURVE",
"59 144 CURVE SMOOTH"
);
}
);
userData = {
com.schriftgestaltung.Glyphs.lastChange = "2021-03-09 02:48:42 +0000";
};
width = 596;
}
);
leftKerningGroup = u;
rightKerningGroup = u;
unicode = 0075;
},
{
color = 5;
glyphname = v;
lastChange = "2021-09-23 17:11:44 +0000";
layers = (
{
layerId = m01;
paths = (
{
closed = 1;
nodes = (
"144 0 LINE",
"202 0 LINE",
"215 53 LINE",
"153 515 LINE",
"59 515 LINE"
);
},
{
closed = 1;
nodes = (
"217 0 LINE",
"519 515 LINE",
"418 515 LINE",
"168 53 LINE",
"161 0 LINE"
);
}
);
userData = {
com.schriftgestaltung.Glyphs.lastChange = "2021-03-02 23:45:59 +0000";
};
width = 480;
}
);
leftKerningGroup = v;
rightKerningGroup = v;
unicode = 0076;
},
{
color = 5;
glyphname = w;
lastChange = "2021-09-23 17:11:44 +0000";
layers = (
{
anchors = (
{
name = top;
position = "{410, 515}";
}
);
layerId = m01;
paths = (
{
closed = 1;
nodes = (
"112 0 LINE",
"172 0 LINE",
"183 58 LINE",
"153 515 LINE",
"59 515 LINE"
);
},
{
closed = 1;
nodes = (
"186 0 LINE",
"403 403 LINE",
"425 515 LINE",
"375 515 LINE",
"139 58 LINE",
"131 0 LINE"
);
},
{
closed = 1;
nodes = (
"418 0 LINE",
"479 0 LINE",
"490 58 LINE",
"448 515 LINE",
"396 515 LINE",
"374 403 LINE"
);
},
{
closed = 1;
nodes = (
"493 0 LINE",
"766 515 LINE",
"667 515 LINE",
"446 58 LINE",
"438 0 LINE"
);
}
);
userData = {
com.schriftgestaltung.Glyphs.lastChange = "2021-03-02 23:45:59 +0000";
};
width = 727;
}
);
leftKerningGroup = v;
rightKerningGroup = v;
unicode = 0077;
},
{
color = 5;
glyphname = x;
lastChange = "2021-09-23 17:11:44 +0000";
layers = (
{
layerId = m01;
paths = (
{
closed = 1;
nodes = (
"73 0 LINE",
"247 208 LINE",
"288 250 LINE",
"525 515 LINE",
"417 515 LINE",
"257 324 LINE",
"215 281 LINE",
"-35 0 LINE"
);
},
{
closed = 1;
nodes = (
"220 230 LINE",
"324 0 LINE",
"425 0 LINE",
"284 298 LINE",
"186 515 LINE",
"85 515 LINE"
);
}
);
userData = {
com.schriftgestaltung.Glyphs.lastChange = "2021-03-02 23:45:59 +0000";
};
width = 510;
}
);
unicode = 0078;
},
{
color = 5;
glyphname = y;
lastChange = "2021-09-23 17:11:44 +0000";
layers = (
{
anchors = (
{
name = bottom;
position = "{107, -97}";
},
{
name = top;
position = "{290, 515}";
}
);
layerId = m01;
paths = (
{
closed = 1;
nodes = (
"-63 -187 OFFCURVE",
"-33 -195 OFFCURVE",
"-7 -195 CURVE",
"68 -195 OFFCURVE",
"127 -153 OFFCURVE",
"195 -37 CURVE SMOOTH",
"519 515 LINE",
"418 515 LINE",
"169 55 LINE",
"145 24 LINE",
"90 -79 OFFCURVE",
"43 -117 OFFCURVE",
"1 -117 CURVE",
"-21 -117 OFFCURVE",
"-39 -111 OFFCURVE",
"-57 -103 CURVE",
"-84 -176 LINE"
);
},
{
closed = 1;
nodes = (
"144 0 LINE",
"202 0 LINE",
"215 53 LINE",
"153 515 LINE",
"59 515 LINE"
);
}
);
userData = {
com.schriftgestaltung.Glyphs.lastChange = "2021-03-09 02:49:17 +0000";
};
width = 480;
}
);
leftKerningGroup = v;
rightKerningGroup = v;
unicode = 0079;
},
{
color = 5;
glyphname = z;
lastChange = "2021-09-23 17:11:44 +0000";
layers = (
{
anchors = (
{
name = top;
position = "{282, 515}";
}
);
layerId = m01;
paths = (
{
closed = 1;
nodes = (
"370 0 LINE",
"386 73 LINE",
"33 73 LINE",
"-1 56 LINE",
"-13 0 LINE"
);
},
{
closed = 1;
nodes = (
"66 0 LINE",
"460 459 LINE",
"392 515 LINE",
"-1 56 LINE"
);
},
{
closed = 1;
nodes = (
"424 442 LINE",
"460 459 LINE",
"471 515 LINE",
"105 515 LINE",
"90 442 LINE"
);
}
);
userData = {
com.schriftgestaltung.Glyphs.lastChange = "2021-03-02 23:45:59 +0000";
};
width = 477;
}
);
leftKerningGroup = z;
rightKerningGroup = z;
unicode = 007A;
},
{
color = 5;
glyphname = f_f;
lastChange = "2021-09-23 17:11:44 +0000";
layers = (
{
layerId = m01;
paths = (
{
closed = 1;
nodes = (
"144 0 LINE",
"262 555 LINE SMOOTH",
"275 619 OFFCURVE",
"311 651 OFFCURVE",
"357 651 CURVE",
"381 651 OFFCURVE",
"405 647 OFFCURVE",
"427 636 CURVE",
"457 707 LINE",
"430 720 OFFCURVE",
"394 730 OFFCURVE",
"361 730 CURVE",
"261 730 OFFCURVE",
"195 673 OFFCURVE",
"171 562 CURVE SMOOTH",
"52 0 LINE"
);
},
{
closed = 1;
nodes = (
"390 442 LINE",
"405 515 LINE",
"69 515 LINE",
"54 442 LINE"
);
},
{
closed = 1;
nodes = (
"480 0 LINE",
"598 555 LINE SMOOTH",
"611 619 OFFCURVE",
"647 651 OFFCURVE",
"693 651 CURVE",
"717 651 OFFCURVE",
"741 647 OFFCURVE",
"763 636 CURVE",
"793 707 LINE",
"766 720 OFFCURVE",
"730 730 OFFCURVE",
"697 730 CURVE",
"597 730 OFFCURVE",
"531 673 OFFCURVE",
"507 562 CURVE SMOOTH",
"388 0 LINE"
);
},
{
closed = 1;
nodes = (
"717 442 LINE",
"732 515 LINE",
"405 515 LINE",
"390 442 LINE"
);
}
);
userData = {
com.schriftgestaltung.Glyphs.lastChange = "2021-03-02 23:45:59 +0000";
};
width = 683;
}
);
leftKerningGroup = f;
rightKerningGroup = f;
unicode = FB00;
},
{
color = 5;
glyphname = ordfeminine;
lastChange = "2021-09-23 17:11:44 +0000";
layers = (
{
layerId = m01;
paths = (
{
closed = 1;
nodes = (
"96 334 OFFCURVE",
"149 282 OFFCURVE",
"217 282 CURVE",
"274 282 OFFCURVE",
"325 317 OFFCURVE",
"357 372 CURVE",
"341 377 LINE",
"339 290 LINE",
"413 290 LINE",
"413 316 LINE SMOOTH",
"413 341 OFFCURVE",
"415 361 OFFCURVE",
"420 385 CURVE SMOOTH",
"487 690 LINE",
"417 690 LINE",
"399 642 LINE",
"365 487 LINE SMOOTH",
"345 396 OFFCURVE",
"288 353 OFFCURVE",
"242 353 CURVE",
"201 353 OFFCURVE",
"175 381 OFFCURVE",
"175 437 CURVE",
"175 541 OFFCURVE",
"235 633 OFFCURVE",
"314 633 CURVE",
"351 633 OFFCURVE",
"377 617 OFFCURVE",
"406 584 CURVE",
"417 651 LINE",
"386 682 OFFCURVE",
"347 700 OFFCURVE",
"312 700 CURVE",
"194 700 OFFCURVE",
"96 580 OFFCURVE",
"96 432 CURVE"
);
}
);
userData = {
com.schriftgestaltung.Glyphs.lastChange = "2021-03-02 23:45:59 +0000";
};
width = 476;
}
);
unicode = 00AA;
},
{
color = 5;
glyphname = ordmasculine;
lastChange = "2021-09-23 17:11:44 +0000";
layers = (
{
layerId = m01;
paths = (
{
closed = 1;
nodes = (
"97 333 OFFCURVE",
"165 278 OFFCURVE",
"255 278 CURVE",
"395 278 OFFCURVE",
"483 407 OFFCURVE",
"483 540 CURVE",
"483 647 OFFCURVE",
"413 700 OFFCURVE",
"328 700 CURVE",
"185 700 OFFCURVE",
"97 573 OFFCURVE",
"97 437 CURVE"
);
},
{
closed = 1;
nodes = (
"178 531 OFFCURVE",
"230 632 OFFCURVE",
"322 632 CURVE",
"366 632 OFFCURVE",
"402 603 OFFCURVE",
"402 532 CURVE",
"402 444 OFFCURVE",
"350 346 OFFCURVE",
"262 346 CURVE",
"216 346 OFFCURVE",
"178 378 OFFCURVE",
"178 445 CURVE"
);
}
);
userData = {
com.schriftgestaltung.Glyphs.lastChange = "2021-03-02 23:45:59 +0000";
};
width = 492;
}
);
unicode = 00BA;
},
{
color = 5;
glyphname = Delta;
lastChange = "2021-09-23 17:11:44 +0000";
layers = (
{
layerId = m01;
paths = (
{
closed = 1;
nodes = (
"57 0 LINE",
"393 606 LINE",
"404 690 LINE",
"347 690 LINE",
"-50 0 LINE"
);
},
{
closed = 1;
nodes = (
"468 0 LINE",
"486 86 LINE",
"37 86 LINE",
"19 0 LINE"
);
},
{
closed = 1;
nodes = (
"438 0 LINE",
"537 0 LINE",
"433 690 LINE",
"376 690 LINE",
"363 606 LINE"
);
}
);
userData = {
com.schriftgestaltung.Glyphs.lastChange = "2021-03-03 04:58:27 +0000";
};
width = 607;
}
);
unicode = 0394;
},
{
color = 5;
glyphname = Omega;
lastChange = "2021-09-23 17:11:44 +0000";
layers = (
{
layerId = m01;
paths = (
{
closed = 1;
nodes = (
"236 0 LINE",
"258 102 LINE",
"215 145 OFFCURVE",
"177 227 OFFCURVE",
"177 310 CURVE",
"177 474 OFFCURVE",
"281 607 OFFCURVE",
"421 607 CURVE",
"514 607 OFFCURVE",
"578 546 OFFCURVE",
"578 435 CURVE",
"578 292 OFFCURVE",
"473 160 OFFCURVE",
"385 99 CURVE",
"362 0 LINE",
"587 0 LINE",
"604 82 LINE",
"414 82 LINE",
"369 25 LINE",
"537 100 OFFCURVE",
"675 262 OFFCURVE",
"675 456 CURVE",
"675 608 OFFCURVE",
"573 700 OFFCURVE",
"430 700 CURVE",
"235 700 OFFCURVE",
"85 538 OFFCURVE",
"85 332 CURVE",
"85 191 OFFCURVE",
"156 84 OFFCURVE",
"242 27 CURVE",
"220 82 LINE",
"32 82 LINE",
"13 0 LINE"
);
}
);
userData = {
com.schriftgestaltung.Glyphs.lastChange = "2021-03-03 04:58:27 +0000";
};
width = 712;
}
);
unicode = 03A9;
},
{
color = 5;
glyphname = mu;
lastChange = "2021-09-23 17:11:44 +0000";
layers = (
{
layerId = m01;
paths = (
{
closed = 1;
nodes = (
"67 -185 LINE",
"130 134 LINE",
"98 68 LINE",
"120 0 OFFCURVE",
"174 -10 OFFCURVE",
"206 -10 CURVE",
"278 -10 OFFCURVE",
"355 25 OFFCURVE",
"402 115 CURVE",
"390 120 LINE",
"370 30 OFFCURVE",
"409 -10 OFFCURVE",
"469 -10 CURVE",
"490 -10 OFFCURVE",
"499 -5 OFFCURVE",
"511 0 CURVE",
"526 71 LINE",
"519 69 OFFCURVE",
"512 67 OFFCURVE",
"502 67 CURVE",
"477 67 OFFCURVE",
"467 85 OFFCURVE",
"480 149 CURVE SMOOTH",
"557 515 LINE",
"465 515 LINE",
"410 254 LINE SMOOTH",
"385 138 OFFCURVE",
"301 72 OFFCURVE",
"235 72 CURVE",
"171.69 72 OFFCURVE",
"141 119 OFFCURVE",
"158 202 CURVE SMOOTH",
"224 515 LINE",
"132 515 LINE",
"-16 -185 LINE"
);
}
);
userData = {
com.schriftgestaltung.Glyphs.lastChange = "2021-03-02 23:45:59 +0000";
};
width = 596;
}
);
unicode = 03BC;
},
{
color = 5;
glyphname = pi;
lastChange = "2021-09-23 17:11:44 +0000";
layers = (
{
layerId = m01;
paths = (
{
closed = 1;
nodes = (
"140 0 LINE",
"250 519 LINE",
"159 519 LINE",
"48 0 LINE"
);
},
{
closed = 1;
nodes = (
"581 441 LINE",
"598 519 LINE",
"86 519 LINE",
"69 441 LINE"
);
},
{
closed = 1;
nodes = (
"327 22 OFFCURVE",
"359 -10 OFFCURVE",
"416 -10 CURVE SMOOTH",
"433 -10 OFFCURVE",
"452 -6 OFFCURVE",
"466 0 CURVE",
"482 74 LINE",
"475 72 OFFCURVE",
"465 70 OFFCURVE",
"458 70 CURVE SMOOTH",
"439 70 OFFCURVE",
"431 79 OFFCURVE",
"437 104 CURVE SMOOTH",
"524 515 LINE",
"432 515 LINE",
"344 103 LINE SMOOTH"
);
}
);
userData = {
com.schriftgestaltung.Glyphs.lastChange = "2021-03-02 23:45:59 +0000";
};
width = 588;
}
);
unicode = 03C0;
},
{
color = 5;
glyphname = zero;
lastChange = "2021-09-23 17:11:44 +0000";
layers = (
{
layerId = m01;
paths = (
{
closed = 1;
nodes = (
"49 73 OFFCURVE",
"125 -10 OFFCURVE",
"243 -10 CURVE",
"461 -10 OFFCURVE",
"577 255 OFFCURVE",
"578 466 CURVE",
"578 599 OFFCURVE",
"517 700 OFFCURVE",
"384 700 CURVE",
"156 700 OFFCURVE",
"49 433 OFFCURVE",
"49 222 CURVE"
);
},
{
closed = 1;
nodes = (
"144 396 OFFCURVE",
"236 612 OFFCURVE",
"367 612 CURVE",
"446 612 OFFCURVE",
"483 555 OFFCURVE",
"483 459 CURVE",
"483 293 OFFCURVE",
"389 78 OFFCURVE",
"263 78 CURVE",
"185 78 OFFCURVE",
"144 141 OFFCURVE",
"144 229 CURVE"
);
}
);
userData = {
com.schriftgestaltung.Glyphs.lastChange = "2021-03-02 23:45:59 +0000";
};
width = 600;
}
);
leftKerningGroup = NO_KERN;
rightKerningGroup = NO_KERN;
unicode = 0030;
},
{
color = 5;
glyphname = one;
lastChange = "2021-09-23 17:11:44 +0000";
layers = (
{
layerId = m01;
paths = (
{
closed = 1;
nodes = (
"477 0 LINE",
"494 82 LINE",
"68 82 LINE",
"50 0 LINE"
);
},
{
closed = 1;
nodes = (
"193 525 LINE",
"407 608 LINE",
"395 690 LINE",
"170 600 LINE"
);
},
{
closed = 1;
nodes = (
"312 0 LINE",
"459 690 LINE",
"395 690 LINE",
"352 637 LINE",
"217 0 LINE"
);
}
);
userData = {
com.schriftgestaltung.Glyphs.lastChange = "2021-03-02 23:45:59 +0000";
};
width = 600;
}
);
leftKerningGroup = NO_KERN;
rightKerningGroup = NO_KERN;
unicode = 0031;
},
{
color = 5;
glyphname = two;
lastChange = "2021-09-23 17:11:44 +0000";
layers = (
{
layerId = m01;
paths = (
{
closed = 1;
nodes = (
"479 0 LINE",
"499 86 LINE",
"94 86 LINE",
"29 68 LINE",
"14 0 LINE"
);
},
{
closed = 1;
nodes = (
"69 0 LINE",
"372 262 LINE SMOOTH",
"486 360 OFFCURVE",
"558 431 OFFCURVE",
"558 526 CURVE",
"558 629 OFFCURVE",
"481 700 OFFCURVE",
"357 700 CURVE",
"234 700 OFFCURVE",
"153 624 OFFCURVE",
"115 590 CURVE",
"166 525 LINE",
"193 550 OFFCURVE",
"258 613 OFFCURVE",
"344 611 CURVE",
"415 611 OFFCURVE",
"456 569 OFFCURVE",
"456 515 CURVE",
"456 452 OFFCURVE",
"401 400 OFFCURVE",
"319 327 CURVE SMOOTH",
"29 68 LINE"
);
}
);
userData = {
com.schriftgestaltung.Glyphs.lastChange = "2021-03-02 23:45:59 +0000";
};
width = 600;
}
);
leftKerningGroup = NO_KERN;
rightKerningGroup = NO_KERN;
unicode = 0032;
},
{
color = 5;
glyphname = three;
lastChange = "2021-09-23 17:11:44 +0000";
layers = (
{
layerId = m01;
paths = (
{
closed = 1;
nodes = (
"36 52 OFFCURVE",
"118 -10 OFFCURVE",
"241 -10 CURVE SMOOTH",
"397 -10 OFFCURVE",
"517 93 OFFCURVE",
"517 236 CURVE",
"517 354 OFFCURVE",
"427 403 OFFCURVE",
"305 403 CURVE SMOOTH",
"258 403 LINE",
"200 386 LINE",
"188 330 LINE",
"264 330 LINE SMOOTH",
"362 330 OFFCURVE",
"419 296 OFFCURVE",
"419 230 CURVE",
"419 139 OFFCURVE",
"342 76 OFFCURVE",
"247 76 CURVE SMOOTH",
"148 76 OFFCURVE",
"91 124 OFFCURVE",
"67 153 CURVE",
"7 85 LINE"
);
},
{
closed = 1;
nodes = (
"515 604 LINE",
"567 625 LINE",
"581 690 LINE",
"153 690 LINE",
"135 604 LINE"
);
},
{
closed = 1;
nodes = (
"307 386 LINE",
"567 625 LINE",
"520 690 LINE",
"200 386 LINE"
);
}
);
userData = {
com.schriftgestaltung.Glyphs.lastChange = "2021-03-02 23:45:59 +0000";
};
width = 600;
}
);
leftKerningGroup = NO_KERN;
rightKerningGroup = NO_KERN;
unicode = 0033;
},
{
color = 5;
glyphname = four;
lastChange = "2021-09-23 17:11:44 +0000";
layers = (
{
layerId = m01;
paths = (
{
closed = 1;
nodes = (
"520 137 LINE",
"538 221 LINE",
"81 221 LINE",
"26 206 LINE",
"10 137 LINE"
);
},
{
closed = 1;
nodes = (
"77 137 LINE",
"525 690 LINE",
"427 690 LINE",
"26 206 LINE"
);
},
{
closed = 1;
nodes = (
"402 0 LINE",
"554 690 LINE",
"466 690 LINE",
"308 0 LINE"
);
}
);
userData = {
com.schriftgestaltung.Glyphs.lastChange = "2021-03-02 23:45:59 +0000";
};
width = 600;
}
);
leftKerningGroup = NO_KERN;
rightKerningGroup = NO_KERN;
unicode = 0034;
},
{
color = 5;
glyphname = five;
lastChange = "2021-09-23 17:11:44 +0000";
layers = (
{
layerId = m01;
paths = (
{
closed = 1;
nodes = (
"61 31 OFFCURVE",
"145 -10 OFFCURVE",
"247 -10 CURVE SMOOTH",
"407 -10 OFFCURVE",
"527 93 OFFCURVE",
"527 241 CURVE",
"527 360 OFFCURVE",
"441 427 OFFCURVE",
"331 427 CURVE SMOOTH",
"260 427 OFFCURVE",
"208 406 OFFCURVE",
"164 375 CURVE",
"143 297 LINE",
"192 330 OFFCURVE",
"246 347 OFFCURVE",
"300 347 CURVE SMOOTH",
"380 347 OFFCURVE",
"427 307 OFFCURVE",
"427 236 CURVE SMOOTH",
"427 139 OFFCURVE",
"349 76 OFFCURVE",
"251 76 CURVE SMOOTH",
"173 76 OFFCURVE",
"110 106 OFFCURVE",
"75 152 CURVE",
"15 85 LINE"
);
},
{
closed = 1;
nodes = (
"143 297 LINE",
"197 338 LINE",
"296 690 LINE",
"206 690 LINE",
"104 327 LINE"
);
},
{
closed = 1;
nodes = (
"235 604 LINE",
"561 604 LINE",
"580 690 LINE",
"211 690 LINE"
);
}
);
userData = {
com.schriftgestaltung.Glyphs.lastChange = "2021-03-02 23:45:59 +0000";
};
width = 600;
}
);
leftKerningGroup = NO_KERN;
rightKerningGroup = NO_KERN;
unicode = 0035;
},
{
color = 5;
glyphname = six;
lastChange = "2021-09-23 17:11:44 +0000";
layers = (
{
layerId = m01;
paths = (
{
closed = 1;
nodes = (
"63 91 OFFCURVE",
"148 -10 OFFCURVE",
"278 -10 CURVE",
"440 -10 OFFCURVE",
"543 130 OFFCURVE",
"543 259 CURVE",
"543 368 OFFCURVE",
"471 445 OFFCURVE",
"360 445 CURVE",
"279 445 OFFCURVE",
"207 402 OFFCURVE",
"161 350 CURVE",
"152 258 LINE",
"207 320 OFFCURVE",
"267 360 OFFCURVE",
"341 360 CURVE",
"404 360 OFFCURVE",
"449 319 OFFCURVE",
"449 252 CURVE",
"449 158 OFFCURVE",
"378 75 OFFCURVE",
"286 75 CURVE",
"210 75 OFFCURVE",
"157 136 OFFCURVE",
"157 230 CURVE",
"157 462 OFFCURVE",
"304 616 OFFCURVE",
"444 616 CURVE",
"487 616 OFFCURVE",
"520 606 OFFCURVE",
"551 579 CURVE",
"602 653 LINE",
"558 685 OFFCURVE",
"517 700 OFFCURVE",
"453 700 CURVE",
"241 700 OFFCURVE",
"63 494 OFFCURVE",
"63 239 CURVE"
);
}
);
userData = {
com.schriftgestaltung.Glyphs.lastChange = "2021-03-02 23:45:59 +0000";
};
width = 600;
}
);
leftKerningGroup = NO_KERN;
rightKerningGroup = NO_KERN;
unicode = 0036;
},
{
color = 5;
glyphname = seven;
lastChange = "2021-09-23 17:11:44 +0000";
layers = (
{
layerId = m01;
paths = (
{
closed = 1;
nodes = (
"216 0 LINE",
"594 626 LINE",
"530 690 LINE",
"103 0 LINE"
);
},
{
closed = 1;
nodes = (
"539 599 LINE",
"594 626 LINE",
"608 690 LINE",
"148 690 LINE",
"128 599 LINE"
);
}
);
userData = {
com.schriftgestaltung.Glyphs.lastChange = "2021-03-02 23:45:59 +0000";
};
width = 600;
}
);
leftKerningGroup = NO_KERN;
rightKerningGroup = NO_KERN;
unicode = 0037;
},
{
color = 5;
glyphname = eight;
lastChange = "2021-09-23 17:11:44 +0000";
layers = (
{
layerId = m01;
paths = (
{
closed = 1;
nodes = (
"34 59 OFFCURVE",
"128 -10 OFFCURVE",
"264 -10 CURVE",
"428 -10 OFFCURVE",
"529 95 OFFCURVE",
"529 199 CURVE",
"529 286 OFFCURVE",
"476 342 OFFCURVE",
"343 393 CURVE SMOOTH",
"253 430 OFFCURVE",
"224 467 OFFCURVE",
"224 513 CURVE",
"224 562 OFFCURVE",
"275 620 OFFCURVE",
"365 620 CURVE",
"441 620 OFFCURVE",
"483 584 OFFCURVE",
"483 529 CURVE",
"483 481 OFFCURVE",
"424 418 OFFCURVE",
"313 393 CURVE",
"377 356 LINE",
"505 384 OFFCURVE",
"573 462 OFFCURVE",
"573 548 CURVE",
"573 633 OFFCURVE",
"497 700 OFFCURVE",
"376 700 CURVE",
"221 700 OFFCURVE",
"127 604 OFFCURVE",
"127 506 CURVE",
"127 427 OFFCURVE",
"182 367 OFFCURVE",
"300 316 CURVE SMOOTH",
"400 273 OFFCURVE",
"432 242 OFFCURVE",
"432 190 CURVE",
"432 132 OFFCURVE",
"369 71 OFFCURVE",
"267 71 CURVE",
"187 71 OFFCURVE",
"129 114 OFFCURVE",
"129 168 CURVE",
"129 232 OFFCURVE",
"195 304 OFFCURVE",
"309 326 CURVE",
"246 369 LINE",
"112 336 OFFCURVE",
"34 251 OFFCURVE",
"34 162 CURVE"
);
}
);
userData = {
com.schriftgestaltung.Glyphs.lastChange = "2021-03-02 23:45:59 +0000";
};
width = 600;
}
);
leftKerningGroup = NO_KERN;
rightKerningGroup = NO_KERN;
unicode = 0038;
},
{
color = 5;
glyphname = nine;
lastChange = "2021-09-23 17:11:44 +0000";
layers = (
{
layerId = m01;
paths = (
{
closed = 1;
nodes = (
"74 6 OFFCURVE",
"124 -10 OFFCURVE",
"198 -10 CURVE",
"386 -10 OFFCURVE",
"567 194 OFFCURVE",
"567 474 CURVE",
"567 593 OFFCURVE",
"498 700 OFFCURVE",
"347 700 CURVE",
"196 700 OFFCURVE",
"87 580 OFFCURVE",
"87 446 CURVE",
"87 322 OFFCURVE",
"175 252 OFFCURVE",
"284 252 CURVE",
"373 252 OFFCURVE",
"449 298 OFFCURVE",
"481 356 CURVE",
"481 432 LINE",
"443 368 OFFCURVE",
"381 330 OFFCURVE",
"308 330 CURVE",
"234 330 OFFCURVE",
"181 371 OFFCURVE",
"181 448 CURVE",
"181 540 OFFCURVE",
"252 617 OFFCURVE",
"340 617 CURVE",
"429 617 OFFCURVE",
"476 549 OFFCURVE",
"476 472 CURVE",
"476 222 OFFCURVE",
"331 76 OFFCURVE",
"191 76 CURVE",
"154 76 OFFCURVE",
"109 87 OFFCURVE",
"76 112 CURVE",
"30 37 LINE"
);
}
);
userData = {
com.schriftgestaltung.Glyphs.lastChange = "2021-03-02 23:45:59 +0000";
};
width = 600;
}
);
leftKerningGroup = NO_KERN;
rightKerningGroup = NO_KERN;
unicode = 0039;
},
{
color = 5;
glyphname = one.lf;
lastChange = "2021-09-23 17:11:44 +0000";
layers = (
{
layerId = m01;
paths = (
{
closed = 1;
nodes = (
"123 525 LINE",
"337 608 LINE",
"325 690 LINE",
"100 600 LINE"
);
},
{
closed = 1;
nodes = (
"242 0 LINE",
"389 690 LINE",
"325 690 LINE",
"282 637 LINE",
"147 0 LINE"
);
}
);
userData = {
com.schriftgestaltung.Glyphs.lastChange = "2021-03-09 05:33:55 +0000";
};
width = 450;
}
);
},
{
color = 5;
glyphname = seven.lf;
lastChange = "2021-09-23 17:11:44 +0000";
layers = (
{
layerId = m01;
paths = (
{
closed = 1;
nodes = (
"215 0 LINE",
"593 626 LINE",
"529 690 LINE",
"102 0 LINE"
);
},
{
closed = 1;
nodes = (
"538 599 LINE",
"593 626 LINE",
"607 690 LINE",
"147 690 LINE",
"127 599 LINE"
);
}
);
userData = {
com.schriftgestaltung.Glyphs.lastChange = "2021-03-09 05:34:49 +0000";
};
width = 600;
}
);
},
{
color = 5;
glyphname = one.pl;
lastChange = "2021-09-23 17:11:44 +0000";
layers = (
{
layerId = m01;
paths = (
{
closed = 1;
nodes = (
"123 525 LINE",
"337 608 LINE",
"325 690 LINE",
"100 600 LINE"
);
},
{
closed = 1;
nodes = (
"242 0 LINE",
"389 690 LINE",
"325 690 LINE",
"282 637 LINE",
"147 0 LINE"
);
}
);
userData = {
com.schriftgestaltung.Glyphs.lastChange = "2021-03-02 23:45:59 +0000";
};
width = 450;
}
);
},
{
color = 5;
glyphname = seven.pl;
lastChange = "2021-09-23 17:11:44 +0000";
layers = (
{
layerId = m01;
paths = (
{
closed = 1;
nodes = (
"215 0 LINE",
"593 626 LINE",
"529 690 LINE",
"102 0 LINE"
);
},
{
closed = 1;
nodes = (
"538 599 LINE",
"593 626 LINE",
"607 690 LINE",
"147 690 LINE",
"127 599 LINE"
);
}
);
userData = {
com.schriftgestaltung.Glyphs.lastChange = "2021-03-02 23:45:59 +0000";
};
width = 600;
}
);
},
{
color = 5;
glyphname = onesuperior;
lastChange = "2021-09-23 17:11:44 +0000";
layers = (
{
layerId = m01;
paths = (
{
closed = 1;
nodes = (
"375 290 LINE",
"389 355 LINE",
"104 355 LINE",
"90 290 LINE"
);
},
{
closed = 1;
nodes = (
"159 564 LINE",
"315 628 LINE",
"300 690 LINE",
"143 626 LINE"
);
},
{
closed = 1;
nodes = (
"270 290 LINE",
"355 690 LINE",
"300 690 LINE",
"268 637 LINE",
"195 290 LINE"
);
}
);
userData = {
com.schriftgestaltung.Glyphs.lastChange = "2021-03-02 23:45:59 +0000";
};
width = 440;
}
);
unicode = 00B9;
},
{
color = 5;
glyphname = twosuperior;
lastChange = "2021-09-23 17:11:44 +0000";
layers = (
{
layerId = m01;
paths = (
{
closed = 1;
nodes = (
"366 290 LINE",
"382 356 LINE",
"149 356 LINE",
"88 338 LINE",
"78 290 LINE"
);
},
{
closed = 1;
nodes = (
"128 290 LINE",
"300 430 LINE SMOOTH",
"377 493 OFFCURVE",
"415 540 OFFCURVE",
"415 592 CURVE",
"415 656 OFFCURVE",
"369 700 OFFCURVE",
"297 700 CURVE",
"225 700 OFFCURVE",
"175 663 OFFCURVE",
"138 632 CURVE",
"176 584 LINE",
"209 611 OFFCURVE",
"245 633 OFFCURVE",
"286 633 CURVE",
"317 633 OFFCURVE",
"340 615 OFFCURVE",
"340 586 CURVE",
"340 553 OFFCURVE",
"311 521 OFFCURVE",
"253 474 CURVE SMOOTH",
"88 338 LINE"
);
}
);
userData = {
com.schriftgestaltung.Glyphs.lastChange = "2021-03-02 23:45:59 +0000";
};
width = 440;
}
);
unicode = 00B2;
},
{
color = 5;
glyphname = threesuperior;
lastChange = "2021-09-23 17:11:44 +0000";
layers = (
{
layerId = m01;
paths = (
{
closed = 1;
nodes = (
"103 300 OFFCURVE",
"155 281 OFFCURVE",
"215 281 CURVE SMOOTH",
"314 281 OFFCURVE",
"390 337 OFFCURVE",
"390 424 CURVE SMOOTH",
"390 496 OFFCURVE",
"339 523 OFFCURVE",
"264 523 CURVE SMOOTH",
"227 523 LINE",
"189 514 LINE",
"180 470 LINE",
"233 470 LINE SMOOTH",
"285 470 OFFCURVE",
"315 454 OFFCURVE",
"315 420 CURVE SMOOTH",
"315 374 OFFCURVE",
"271 347 OFFCURVE",
"221 347 CURVE SMOOTH",
"176 347 OFFCURVE",
"143 361 OFFCURVE",
"121 388 CURVE",
"69 337 LINE"
);
},
{
closed = 1;
nodes = (
"378 626 LINE",
"417 639 LINE",
"428 690 LINE",
"162 690 LINE",
"148 626 LINE"
);
},
{
closed = 1;
nodes = (
"272 514 LINE",
"417 639 LINE",
"385 690 LINE",
"189 514 LINE"
);
}
);
userData = {
com.schriftgestaltung.Glyphs.lastChange = "2021-03-02 23:45:59 +0000";
};
width = 440;
}
);
unicode = 00B3;
},
{
color = 5;
glyphname = fraction;
lastChange = "2021-09-23 17:11:44 +0000";
layers = (
{
layerId = m01;
paths = (
{
closed = 1;
nodes = (
"48 0 LINE",
"615 690 LINE",
"507 690 LINE",
"-60 0 LINE"
);
}
);
userData = {
com.schriftgestaltung.Glyphs.lastChange = "2021-03-02 23:45:59 +0000";
};
width = 528;
}
);
unicode = 2044;
},
{
color = 5;
glyphname = onequarter;
lastChange = "2021-09-23 17:11:44 +0000";
layers = (
{
components = (
{
name = onesuperior;
},
{
alignment = -1;
name = fraction;
transform = "{1, 0, 0, 1, 270, 0}";
}
);
layerId = m01;
paths = (
{
closed = 1;
nodes = (
"851 112 LINE",
"865 180 LINE",
"603 180 LINE",
"558 168 LINE",
"545 112 LINE"
);
},
{
closed = 1;
nodes = (
"600 112 LINE",
"814 400 LINE",
"734 400 LINE",
"558 168 LINE"
);
},
{
closed = 1;
nodes = (
"755 0 LINE",
"837 400 LINE",
"766 400 LINE",
"678 0 LINE"
);
}
);
userData = {
com.schriftgestaltung.Glyphs.lastChange = "2021-03-09 19:52:59 +0000";
};
width = 942;
}
);
unicode = 00BC;
},
{
color = 5;
glyphname = threequarters;
lastChange = "2021-09-23 17:11:44 +0000";
layers = (
{
components = (
{
name = threesuperior;
},
{
alignment = -1;
name = fraction;
transform = "{1, 0, 0, 1, 207, 0}";
}
);
layerId = m01;
paths = (
{
closed = 1;
nodes = (
"793 112 LINE",
"807 180 LINE",
"545 180 LINE",
"500 168 LINE",
"487 112 LINE"
);
},
{
closed = 1;
nodes = (
"542 112 LINE",
"756 400 LINE",
"676 400 LINE",
"500 168 LINE"
);
},
{
closed = 1;
nodes = (
"697 0 LINE",
"779 400 LINE",
"708 400 LINE",
"620 0 LINE"
);
}
);
userData = {
com.schriftgestaltung.Glyphs.lastChange = "2021-03-09 19:52:35 +0000";
};
width = 884;
}
);
unicode = 00BE;
},
{
color = 5;
glyphname = .notdef;
lastChange = "2021-09-23 17:11:44 +0000";
layers = (
{
layerId = m01;
paths = (
{
closed = 1;
nodes = (
"180 -185 LINE",
"180 690 LINE",
"98 690 LINE",
"98 -185 LINE"
);
},
{
closed = 1;
nodes = (
"443 -185 LINE",
"443 -109 LINE",
"145 -109 LINE",
"145 -185 LINE"
);
},
{
closed = 1;
nodes = (
"443 614 LINE",
"443 690 LINE",
"145 690 LINE",
"145 614 LINE"
);
},
{
closed = 1;
nodes = (
"490 -185 LINE",
"490 690 LINE",
"408 690 LINE",
"408 -185 LINE"
);
}
);
userData = {
com.schriftgestaltung.Glyphs.lastChange = "2021-03-02 23:45:59 +0000";
};
width = 600;
}
);
leftKerningGroup = NO_KERN;
rightKerningGroup = NO_KERN;
},
{
color = 5;
glyphname = "leftanglebracket-math";
lastChange = "2021-09-23 17:11:44 +0000";
layers = (
{
layerId = m01;
paths = (
{
closed = 1;
nodes = (
"210 -185 LINE",
"132 275 LINE",
"407 720 LINE",
"330 720 LINE",
"65 279 LINE",
"147 -185 LINE"
);
}
);
userData = {
com.schriftgestaltung.Glyphs.lastChange = "2021-03-09 22:29:43 +0000";
};
width = 364;
}
);
unicode = 27E8;
},
{
color = 5;
glyphname = "rightanglebracket-math";
lastChange = "2021-09-23 17:11:44 +0000";
layers = (
{
layerId = m01;
paths = (
{
closed = 1;
nodes = (
"30 -185 LINE",
"282 288 LINE",
"230 720 LINE",
"169 720 LINE",
"218 292 LINE",
"-34 -185 LINE"
);
}
);
userData = {
com.schriftgestaltung.Glyphs.lastChange = "2021-03-09 22:38:19 +0000";
};
width = 336;
}
);
unicode = 27E9;
},
{
color = 5;
glyphname = period;
lastChange = "2021-09-23 17:11:44 +0000";
layers = (
{
layerId = m01;
paths = (
{
closed = 1;
nodes = (
"-3 10 OFFCURVE",
"17 -10 OFFCURVE",
"50 -10 CURVE SMOOTH",
"88 -10 OFFCURVE",
"121 22 OFFCURVE",
"121 61 CURVE SMOOTH",
"121 92 OFFCURVE",
"101 112 OFFCURVE",
"68 112 CURVE SMOOTH",
"30 112 OFFCURVE",
"-3 80 OFFCURVE",
"-3 41 CURVE SMOOTH"
);
}
);
userData = {
com.schriftgestaltung.Glyphs.lastChange = "2021-03-02 23:45:59 +0000";
};
width = 216;
}
);
leftKerningGroup = punc_low;
rightKerningGroup = punc_low;
unicode = 002E;
},
{
color = 5;
glyphname = comma;
lastChange = "2021-09-23 17:11:44 +0000";
layers = (
{
layerId = m01;
paths = (
{
closed = 1;
nodes = (
"17 -152 LINE",
"90 -26 LINE SMOOTH",
"108 5 OFFCURVE",
"122 31 OFFCURVE",
"122 58 CURVE",
"122 93 OFFCURVE",
"101 113 OFFCURVE",
"68 113 CURVE",
"29 113 OFFCURVE",
"-3 83 OFFCURVE",
"-3 43 CURVE SMOOTH",
"-3 19 OFFCURVE",
"13 1 OFFCURVE",
"27 -5 CURVE",
"-40 -152 LINE"
);
}
);
userData = {
com.schriftgestaltung.Glyphs.lastChange = "2021-03-02 23:45:59 +0000";
};
width = 216;
}
);
leftKerningGroup = punc_low;
rightKerningGroup = punc_low;
unicode = 002C;
},
{
color = 5;
glyphname = colon;
lastChange = "2021-09-23 17:11:44 +0000";
layers = (
{
layerId = m01;
paths = (
{
closed = 1;
nodes = (
"-3 10 OFFCURVE",
"17 -10 OFFCURVE",
"50 -10 CURVE SMOOTH",
"88 -10 OFFCURVE",
"121 22 OFFCURVE",
"121 61 CURVE SMOOTH",
"121 92 OFFCURVE",
"101 112 OFFCURVE",
"68 112 CURVE SMOOTH",
"30 112 OFFCURVE",
"-3 80 OFFCURVE",
"-3 41 CURVE SMOOTH"
);
},
{
closed = 1;
nodes = (
"85 423 OFFCURVE",
"105 403 OFFCURVE",
"138 403 CURVE SMOOTH",
"176 403 OFFCURVE",
"209 435 OFFCURVE",
"209 474 CURVE SMOOTH",
"209 505 OFFCURVE",
"189 525 OFFCURVE",
"156 525 CURVE SMOOTH",
"118 525 OFFCURVE",
"85 493 OFFCURVE",
"85 454 CURVE SMOOTH"
);
}
);
userData = {
com.schriftgestaltung.Glyphs.lastChange = "2021-03-02 23:45:59 +0000";
};
width = 216;
}
);
unicode = 003A;
},
{
color = 5;
glyphname = semicolon;
lastChange = "2021-09-23 17:11:44 +0000";
layers = (
{
layerId = m01;
paths = (
{
closed = 1;
nodes = (
"17 -152 LINE",
"90 -26 LINE SMOOTH",
"108 5 OFFCURVE",
"122 31 OFFCURVE",
"122 58 CURVE",
"122 93 OFFCURVE",
"101 113 OFFCURVE",
"68 113 CURVE",
"29 113 OFFCURVE",
"-3 83 OFFCURVE",
"-3 43 CURVE SMOOTH",
"-3 19 OFFCURVE",
"13 1 OFFCURVE",
"27 -5 CURVE",
"-40 -152 LINE"
);
},
{
closed = 1;
nodes = (
"85 423 OFFCURVE",
"105 403 OFFCURVE",
"138 403 CURVE SMOOTH",
"176 403 OFFCURVE",
"209 435 OFFCURVE",
"209 474 CURVE SMOOTH",
"209 505 OFFCURVE",
"189 525 OFFCURVE",
"156 525 CURVE SMOOTH",
"118 525 OFFCURVE",
"85 493 OFFCURVE",
"85 454 CURVE SMOOTH"
);
}
);
userData = {
com.schriftgestaltung.Glyphs.lastChange = "2021-03-02 23:45:59 +0000";
};
width = 216;
}
);
unicode = 003B;
},
{
color = 5;
glyphname = exclam;
lastChange = "2021-09-23 17:11:44 +0000";
layers = (
{
layerId = m01;
paths = (
{
closed = 1;
nodes = (
"45 10 OFFCURVE",
"65 -10 OFFCURVE",
"98 -10 CURVE SMOOTH",
"136 -10 OFFCURVE",
"169 22 OFFCURVE",
"169 61 CURVE SMOOTH",
"169 92 OFFCURVE",
"149 112 OFFCURVE",
"116 112 CURVE SMOOTH",
"78 112 OFFCURVE",
"45 80 OFFCURVE",
"45 41 CURVE SMOOTH"
);
},
{
closed = 1;
nodes = (
"175 208 LINE",
"257 515 LINE",
"294 690 LINE",
"195 690 LINE",
"158 515 LINE",
"106 208 LINE"
);
}
);
userData = {
com.schriftgestaltung.Glyphs.lastChange = "2021-03-02 23:45:59 +0000";
};
width = 312;
}
);
unicode = 0021;
},
{
color = 5;
glyphname = exclamdown;
lastChange = "2021-09-23 17:11:44 +0000";
layers = (
{
layerId = m01;
paths = (
{
closed = 1;
nodes = (
"110 -185 LINE",
"149 0 LINE",
"200 307 LINE",
"131 307 LINE",
"50 0 LINE",
"11 -185 LINE"
);
},
{
closed = 1;
nodes = (
"134 423 OFFCURVE",
"154 403 OFFCURVE",
"187 403 CURVE SMOOTH",
"225 403 OFFCURVE",
"258 435 OFFCURVE",
"258 474 CURVE SMOOTH",
"258 505 OFFCURVE",
"238 525 OFFCURVE",
"205 525 CURVE SMOOTH",
"167 525 OFFCURVE",
"134 493 OFFCURVE",
"134 454 CURVE SMOOTH"
);
}
);
userData = {
com.schriftgestaltung.Glyphs.lastChange = "2021-03-02 23:45:59 +0000";
};
width = 314;
}
);
unicode = 00A1;
},
{
color = 5;
glyphname = question;
lastChange = "2021-09-23 17:11:44 +0000";
layers = (
{
layerId = m01;
paths = (
{
closed = 1;
nodes = (
"131 10 OFFCURVE",
"151 -10 OFFCURVE",
"184 -10 CURVE SMOOTH",
"222 -10 OFFCURVE",
"255 22 OFFCURVE",
"255 61 CURVE SMOOTH",
"255 92 OFFCURVE",
"235 112 OFFCURVE",
"202 112 CURVE SMOOTH",
"164 112 OFFCURVE",
"131 80 OFFCURVE",
"131 41 CURVE SMOOTH"
);
},
{
closed = 1;
nodes = (
"135 527 LINE",
"184 577 OFFCURVE",
"235 610 OFFCURVE",
"295 610 CURVE",
"351 610 OFFCURVE",
"387 574 OFFCURVE",
"387 526 CURVE",
"386 473 OFFCURVE",
"356 441 OFFCURVE",
"282 394 CURVE SMOOTH",
"233 363 OFFCURVE",
"201 329 OFFCURVE",
"196 274 CURVE SMOOTH",
"187 203 LINE",
"256 203 LINE",
"271 259 LINE SMOOTH",
"281 293 OFFCURVE",
"301 317 OFFCURVE",
"331 334 CURVE SMOOTH",
"428 395 OFFCURVE",
"489 451 OFFCURVE",
"489 545 CURVE",
"489 627 OFFCURVE",
"423 700 OFFCURVE",
"314 700 CURVE",
"224 700 OFFCURVE",
"146 655 OFFCURVE",
"85 588 CURVE"
);
}
);
userData = {
com.schriftgestaltung.Glyphs.lastChange = "2021-03-02 23:45:59 +0000";
};
width = 493;
}
);
unicode = 003F;
},
{
color = 5;
glyphname = questiondown;
lastChange = "2021-09-23 17:11:44 +0000";
layers = (
{
layerId = m01;
paths = (
{
closed = 1;
nodes = (
"-8 -120 OFFCURVE",
"58 -192 OFFCURVE",
"167 -192 CURVE SMOOTH",
"257 -192 OFFCURVE",
"335 -148 OFFCURVE",
"396 -81 CURVE",
"346 -20 LINE",
"297 -70 OFFCURVE",
"246 -103 OFFCURVE",
"186 -103 CURVE SMOOTH",
"130 -103 OFFCURVE",
"94 -67 OFFCURVE",
"94 -19 CURVE SMOOTH",
"94 34 OFFCURVE",
"127 66 OFFCURVE",
"198 111 CURVE SMOOTH",
"247 142 OFFCURVE",
"280 178 OFFCURVE",
"286 233 CURVE SMOOTH",
"295 312 LINE",
"228 312 LINE",
"210 248 LINE SMOOTH",
"200 214 OFFCURVE",
"180 190 OFFCURVE",
"150 173 CURVE SMOOTH",
"53 112 OFFCURVE",
"-8 60 OFFCURVE",
"-8 -38 CURVE SMOOTH"
);
},
{
closed = 1;
nodes = (
"223 423 OFFCURVE",
"243 403 OFFCURVE",
"276 403 CURVE SMOOTH",
"314 403 OFFCURVE",
"347 435 OFFCURVE",
"347 474 CURVE SMOOTH",
"347 505 OFFCURVE",
"327 525 OFFCURVE",
"294 525 CURVE SMOOTH",
"256 525 OFFCURVE",
"223 493 OFFCURVE",
"223 454 CURVE SMOOTH"
);
}
);
userData = {
com.schriftgestaltung.Glyphs.lastChange = "2021-03-02 23:45:59 +0000";
};
width = 493;
}
);
unicode = 00BF;
},
{
color = 5;
glyphname = bullet;
lastChange = "2021-09-23 17:11:44 +0000";
layers = (
{
layerId = m01;
paths = (
{
closed = 1;
nodes = (
"76 212 OFFCURVE",
"117 170 OFFCURVE",
"182 170 CURVE SMOOTH",
"257 170 OFFCURVE",
"320 227 OFFCURVE",
"320 306 CURVE SMOOTH",
"320 368 OFFCURVE",
"279 410 OFFCURVE",
"214 410 CURVE SMOOTH",
"139 410 OFFCURVE",
"76 353 OFFCURVE",
"76 274 CURVE SMOOTH"
);
}
);
userData = {
com.schriftgestaltung.Glyphs.lastChange = "2021-03-02 23:45:59 +0000";
};
width = 393;
}
);
unicode = 2022;
},
{
color = 5;
glyphname = asterisk;
lastChange = "2021-09-23 17:11:44 +0000";
layers = (
{
layerId = m01;
paths = (
{
closed = 1;
nodes = (
"282 478 LINE",
"123 323 LINE",
"188 266 LINE",
"328 435 LINE",
"399 267 LINE",
"482 318 LINE",
"387 471 LINE",
"581 517 LINE",
"571 606 LINE",
"379 534 LINE",
"432 720 LINE",
"336 720 LINE",
"314 537 LINE",
"149 607 LINE",
"113 522 LINE"
);
}
);
userData = {
com.schriftgestaltung.Glyphs.lastChange = "2021-03-02 23:45:59 +0000";
};
width = 593;
}
);
unicode = 002A;
},
{
color = 5;
glyphname = numbersign;
lastChange = "2021-09-23 17:11:44 +0000";
layers = (
{
layerId = m01;
paths = (
{
closed = 1;
nodes = (
"135 0 LINE",
"451 690 LINE",
"359 690 LINE",
"43 0 LINE"
);
},
{
closed = 1;
nodes = (
"558 189 LINE",
"576 271 LINE",
"58 271 LINE",
"40 189 LINE"
);
},
{
closed = 1;
nodes = (
"665 419 LINE",
"682 501 LINE",
"164 501 LINE",
"147 419 LINE"
);
},
{
closed = 1;
nodes = (
"365 0 LINE",
"681 690 LINE",
"588 690 LINE",
"273 0 LINE"
);
}
);
userData = {
com.schriftgestaltung.Glyphs.lastChange = "2021-03-02 23:45:59 +0000";
};
width = 696;
}
);
unicode = 0023;
},
{
color = 5;
glyphname = slash;
lastChange = "2021-09-23 17:11:44 +0000";
layers = (
{
layerId = m01;
paths = (
{
closed = 1;
nodes = (
"32 -30 LINE",
"440 720 LINE",
"342 720 LINE",
"-66 -30 LINE"
);
}
);
userData = {
com.schriftgestaltung.Glyphs.lastChange = "2021-03-02 23:45:59 +0000";
};
width = 347;
}
);
unicode = 002F;
},
{
color = 5;
glyphname = backslash;
lastChange = "2021-09-23 17:11:44 +0000";
layers = (
{
layerId = m01;
paths = (
{
closed = 1;
nodes = (
"183 -30 LINE",
"271 -30 LINE",
"181 720 LINE",
"93 720 LINE"
);
}
);
userData = {
com.schriftgestaltung.Glyphs.lastChange = "2021-03-02 23:45:59 +0000";
};
width = 337;
}
);
unicode = 005C;
},
{
color = 5;
glyphname = hyphen;
lastChange = "2021-09-23 17:11:44 +0000";
layers = (
{
layerId = m01;
paths = (
{
closed = 1;
nodes = (
"300 238 LINE",
"316 313 LINE",
"65 313 LINE",
"49 238 LINE"
);
}
);
userData = {
com.schriftgestaltung.Glyphs.lastChange = "2021-03-02 23:45:59 +0000";
};
width = 367;
}
);
leftKerningGroup = punc_mid;
rightKerningGroup = punc_mid;
unicode = 002D;
},
{
color = 5;
glyphname = endash;
lastChange = "2021-09-23 17:11:44 +0000";
layers = (
{
layerId = m01;
paths = (
{
closed = 1;
nodes = (
"529 239 LINE",
"545 314 LINE",
"65 314 LINE",
"49 239 LINE"
);
}
);
userData = {
com.schriftgestaltung.Glyphs.lastChange = "2021-03-02 23:45:59 +0000";
};
width = 596;
}
);
leftKerningGroup = punc_mid;
rightKerningGroup = punc_mid;
unicode = 2013;
},
{
color = 5;
glyphname = emdash;
lastChange = "2021-09-23 17:11:44 +0000";
layers = (
{
layerId = m01;
paths = (
{
closed = 1;
nodes = (
"819 239 LINE",
"835 314 LINE",
"65 314 LINE",
"49 239 LINE"
);
}
);
userData = {
com.schriftgestaltung.Glyphs.lastChange = "2021-03-02 23:45:59 +0000";
};
width = 886;
}
);
leftKerningGroup = punc_mid;
rightKerningGroup = punc_mid;
unicode = 2014;
},
{
color = 5;
glyphname = underscore;
lastChange = "2021-09-23 17:11:44 +0000";
layers = (
{
layerId = m01;
paths = (
{
closed = 1;
nodes = (
"345 -75 LINE",
"361 0 LINE",
"-60 0 LINE",
"-76 -75 LINE"
);
}
);
userData = {
com.schriftgestaltung.Glyphs.lastChange = "2021-03-02 23:45:59 +0000";
};
width = 421;
}
);
unicode = 005F;
},
{
color = 5;
glyphname = parenleft;
lastChange = "2021-09-23 17:11:44 +0000";
layers = (
{
layerId = m01;
paths = (
{
closed = 1;
nodes = (
"58 -14 OFFCURVE",
"102 -139 OFFCURVE",
"170 -238 CURVE",
"228 -198 LINE",
"180 -110 OFFCURVE",
"143 9 OFFCURVE",
"143 139 CURVE SMOOTH",
"143 348 OFFCURVE",
"239 565 OFFCURVE",
"422 722 CURVE",
"386 774 LINE",
"182 624 OFFCURVE",
"56 395 OFFCURVE",
"57 133 CURVE SMOOTH"
);
}
);
userData = {
com.schriftgestaltung.Glyphs.lastChange = "2021-03-02 23:45:59 +0000";
};
width = 295;
}
);
rightKerningGroup = braceleft;
unicode = 0028;
},
{
color = 5;
glyphname = parenright;
lastChange = "2021-09-23 17:11:44 +0000";
layers = (
{
layerId = m01;
paths = (
{
closed = 1;
nodes = (
"-97 -239 LINE",
"107 -89 OFFCURVE",
"233 140 OFFCURVE",
"232 402 CURVE SMOOTH",
"231 549 OFFCURVE",
"187 674 OFFCURVE",
"119 773 CURVE",
"61 733 LINE",
"109 645 OFFCURVE",
"146 526 OFFCURVE",
"146 396 CURVE SMOOTH",
"146 187 OFFCURVE",
"50 -30 OFFCURVE",
"-133 -187 CURVE"
);
}
);
userData = {
com.schriftgestaltung.Glyphs.lastChange = "2021-03-02 23:45:59 +0000";
};
width = 295;
}
);
leftKerningGroup = braceright;
unicode = 0029;
},
{
color = 5;
glyphname = braceleft;
lastChange = "2021-09-23 17:11:44 +0000";
layers = (
{
layerId = m01;
paths = (
{
closed = 1;
nodes = (
"36 -183 OFFCURVE",
"90 -235 OFFCURVE",
"187 -254 CURVE",
"219 -194 LINE",
"146 -170 OFFCURVE",
"125 -148 OFFCURVE",
"125 -107 CURVE SMOOTH",
"125 -21 OFFCURVE",
"251 54 OFFCURVE",
"251 160 CURVE",
"251 213 OFFCURVE",
"224 249 OFFCURVE",
"167 267 CURVE",
"257 291 OFFCURVE",
"309 344 OFFCURVE",
"309 427 CURVE",
"309 488 OFFCURVE",
"271 537 OFFCURVE",
"271 591 CURVE SMOOTH",
"271 657 OFFCURVE",
"320 700 OFFCURVE",
"416 728 CURVE",
"408 789 LINE",
"269 764 OFFCURVE",
"183 691 OFFCURVE",
"183 593 CURVE SMOOTH",
"183 530 OFFCURVE",
"225 483 OFFCURVE",
"225 424 CURVE SMOOTH",
"225 361 OFFCURVE",
"169 316 OFFCURVE",
"69 296 CURVE",
"56 240 LINE",
"126 224 OFFCURVE",
"168 199 OFFCURVE",
"168 155 CURVE SMOOTH",
"168 74 OFFCURVE",
"36 -12 OFFCURVE",
"36 -115 CURVE SMOOTH"
);
}
);
userData = {
com.schriftgestaltung.Glyphs.lastChange = "2021-03-02 23:45:59 +0000";
};
width = 348;
}
);
rightKerningGroup = braceleft;
unicode = 007B;
},
{
color = 5;
glyphname = braceright;
lastChange = "2021-09-23 17:11:44 +0000";
layers = (
{
layerId = m01;
paths = (
{
closed = 1;
nodes = (
"-66 -255 LINE",
"73 -230 OFFCURVE",
"159 -157 OFFCURVE",
"159 -59 CURVE SMOOTH",
"159 4 OFFCURVE",
"117 51 OFFCURVE",
"117 110 CURVE SMOOTH",
"117 173 OFFCURVE",
"173 218 OFFCURVE",
"273 238 CURVE",
"286 294 LINE",
"216 310 OFFCURVE",
"174 335 OFFCURVE",
"174 379 CURVE SMOOTH",
"174 460 OFFCURVE",
"306 546 OFFCURVE",
"306 649 CURVE SMOOTH",
"306 717 OFFCURVE",
"252 769 OFFCURVE",
"155 788 CURVE",
"123 728 LINE",
"196 704 OFFCURVE",
"217 682 OFFCURVE",
"217 641 CURVE SMOOTH",
"217 555 OFFCURVE",
"91 480 OFFCURVE",
"91 374 CURVE",
"91 321 OFFCURVE",
"118 285 OFFCURVE",
"175 267 CURVE",
"85 243 OFFCURVE",
"33 190 OFFCURVE",
"33 107 CURVE",
"33 46 OFFCURVE",
"71 -3 OFFCURVE",
"71 -57 CURVE SMOOTH",
"71 -123 OFFCURVE",
"22 -166 OFFCURVE",
"-74 -194 CURVE"
);
}
);
userData = {
com.schriftgestaltung.Glyphs.lastChange = "2021-03-02 23:45:59 +0000";
};
width = 349;
}
);
leftKerningGroup = braceright;
unicode = 007D;
},
{
color = 5;
glyphname = bracketleft;
lastChange = "2021-09-23 17:11:44 +0000";
layers = (
{
layerId = m01;
paths = (
{
closed = 1;
nodes = (
"69 -250 LINE",
"289 785 LINE",
"202 785 LINE",
"-18 -250 LINE"
);
},
{
closed = 1;
nodes = (
"213 -250 LINE",
"229 -175 LINE",
"15 -175 LINE",
"-1 -250 LINE"
);
},
{
closed = 1;
nodes = (
"417 710 LINE",
"433 785 LINE",
"219 785 LINE",
"203 710 LINE"
);
}
);
userData = {
com.schriftgestaltung.Glyphs.lastChange = "2021-03-02 23:45:59 +0000";
};
width = 296;
}
);
rightKerningGroup = braceleft;
unicode = 005B;
},
{
color = 5;
glyphname = bracketright;
lastChange = "2021-09-23 17:11:44 +0000";
layers = (
{
layerId = m01;
paths = (
{
closed = 1;
nodes = (
"71 -250 LINE",
"87 -175 LINE",
"-127 -175 LINE",
"-143 -250 LINE"
);
},
{
closed = 1;
nodes = (
"88 -250 LINE",
"308 785 LINE",
"221 785 LINE",
"1 -250 LINE"
);
},
{
closed = 1;
nodes = (
"275 710 LINE",
"291 785 LINE",
"77 785 LINE",
"61 710 LINE"
);
}
);
userData = {
com.schriftgestaltung.Glyphs.lastChange = "2021-03-02 23:45:59 +0000";
};
width = 296;
}
);
leftKerningGroup = braceright;
unicode = 005D;
},
{
color = 5;
glyphname = quoteleft;
lastChange = "2021-09-23 17:11:44 +0000";
layers = (
{
layerId = m01;
paths = (
{
closed = 1;
nodes = (
"202 720 LINE",
"129 594 LINE SMOOTH",
"111 563 OFFCURVE",
"97 537 OFFCURVE",
"97 510 CURVE",
"97 475 OFFCURVE",
"118 455 OFFCURVE",
"151 455 CURVE",
"190 455 OFFCURVE",
"222 485 OFFCURVE",
"222 525 CURVE SMOOTH",
"222 549 OFFCURVE",
"206 567 OFFCURVE",
"192 573 CURVE",
"259 720 LINE"
);
}
);
userData = {
com.schriftgestaltung.Glyphs.lastChange = "2021-03-02 23:45:59 +0000";
};
width = 220;
}
);
leftKerningGroup = punc_high;
rightKerningGroup = punc_high;
unicode = 2018;
},
{
color = 5;
glyphname = quoteright;
lastChange = "2021-09-23 17:11:44 +0000";
layers = (
{
layerId = m01;
paths = (
{
closed = 1;
nodes = (
"149 464 LINE",
"222 590 LINE SMOOTH",
"240 621 OFFCURVE",
"254 647 OFFCURVE",
"254 674 CURVE",
"254 709 OFFCURVE",
"233 729 OFFCURVE",
"200 729 CURVE",
"161 729 OFFCURVE",
"129 699 OFFCURVE",
"129 659 CURVE SMOOTH",
"129 635 OFFCURVE",
"145 617 OFFCURVE",
"159 611 CURVE",
"92 464 LINE"
);
}
);
userData = {
com.schriftgestaltung.Glyphs.lastChange = "2021-03-02 23:45:59 +0000";
};
width = 220;
}
);
leftKerningGroup = punc_high;
rightKerningGroup = punc_high;
unicode = 2019;
},
{
color = 5;
glyphname = guillemetleft;
lastChange = "2021-09-23 17:11:44 +0000";
layers = (
{
layerId = m01;
paths = (
{
closed = 1;
nodes = (
"128 81 LINE",
"222 81 LINE",
"111 286 LINE",
"46 294 LINE",
"35 250 LINE"
);
},
{
closed = 1;
nodes = (
"115 260 LINE",
"303 457 LINE",
"202 457 LINE",
"46 294 LINE",
"35 250 LINE"
);
},
{
closed = 1;
nodes = (
"326 81 LINE",
"420 81 LINE",
"309 286 LINE",
"244 294 LINE",
"233 250 LINE"
);
},
{
closed = 1;
nodes = (
"313 260 LINE",
"501 457 LINE",
"400 457 LINE",
"244 294 LINE",
"233 250 LINE"
);
}
);
userData = {
com.schriftgestaltung.Glyphs.lastChange = "2021-03-02 23:45:59 +0000";
};
width = 496;
}
);
unicode = 00AB;
},
{
color = 5;
glyphname = guillemetright;
lastChange = "2021-09-23 17:11:44 +0000";
layers = (
{
layerId = m01;
paths = (
{
closed = 1;
nodes = (
"90 81 LINE",
"247 243 LINE",
"257 288 LINE",
"177 277 LINE",
"-11 81 LINE"
);
},
{
closed = 1;
nodes = (
"181 252 LINE",
"247 243 LINE",
"257 288 LINE",
"164 456 LINE",
"70 456 LINE"
);
},
{
closed = 1;
nodes = (
"288 81 LINE",
"445 243 LINE",
"455 288 LINE",
"375 277 LINE",
"187 81 LINE"
);
},
{
closed = 1;
nodes = (
"379 252 LINE",
"445 243 LINE",
"455 288 LINE",
"362 456 LINE",
"268 456 LINE"
);
}
);
userData = {
com.schriftgestaltung.Glyphs.lastChange = "2021-03-02 23:45:59 +0000";
};
width = 496;
}
);
unicode = 00BB;
},
{
color = 5;
glyphname = guilsinglleft;
lastChange = "2021-09-23 17:11:44 +0000";
layers = (
{
layerId = m01;
paths = (
{
closed = 1;
nodes = (
"128 81 LINE",
"222 81 LINE",
"111 286 LINE",
"46 294 LINE",
"35 250 LINE"
);
},
{
closed = 1;
nodes = (
"115 260 LINE",
"303 457 LINE",
"202 457 LINE",
"46 294 LINE",
"35 250 LINE"
);
}
);
userData = {
com.schriftgestaltung.Glyphs.lastChange = "2021-03-02 23:45:59 +0000";
};
width = 298;
}
);
unicode = 2039;
},
{
color = 5;
glyphname = guilsinglright;
lastChange = "2021-09-23 17:11:44 +0000";
layers = (
{
layerId = m01;
paths = (
{
closed = 1;
nodes = (
"90 81 LINE",
"247 243 LINE",
"257 288 LINE",
"177 277 LINE",
"-11 81 LINE"
);
},
{
closed = 1;
nodes = (
"181 252 LINE",
"247 243 LINE",
"257 288 LINE",
"164 456 LINE",
"70 456 LINE"
);
}
);
userData = {
com.schriftgestaltung.Glyphs.lastChange = "2021-03-02 23:45:59 +0000";
};
width = 298;
}
);
unicode = 203A;
},
{
color = 5;
glyphname = quotedbl;
lastChange = "2021-09-23 17:11:44 +0000";
layers = (
{
layerId = m01;
paths = (
{
closed = 1;
nodes = (
"180 456 LINE",
"255 720 LINE",
"153 720 LINE",
"115 456 LINE"
);
},
{
closed = 1;
nodes = (
"345 456 LINE",
"420 720 LINE",
"319 720 LINE",
"280 456 LINE"
);
}
);
userData = {
com.schriftgestaltung.Glyphs.lastChange = "2021-03-02 23:45:59 +0000";
};
width = 387;
}
);
leftKerningGroup = punc_high;
rightKerningGroup = punc_high;
unicode = 0022;
},
{
color = 5;
glyphname = quotesingle;
lastChange = "2021-09-23 17:11:44 +0000";
layers = (
{
layerId = m01;
paths = (
{
closed = 1;
nodes = (
"180 456 LINE",
"255 720 LINE",
"153 720 LINE",
"114 456 LINE"
);
}
);
userData = {
com.schriftgestaltung.Glyphs.lastChange = "2021-03-02 23:45:59 +0000";
};
width = 222;
}
);
leftKerningGroup = punc_high;
rightKerningGroup = punc_high;
unicode = 0027;
},
{
color = 5;
glyphname = florin;
lastChange = "2021-09-23 17:11:44 +0000";
layers = (
{
layerId = m01;
paths = (
{
closed = 1;
nodes = (
"22 -183 OFFCURVE",
"51 -195 OFFCURVE",
"92 -195 CURVE",
"149 -195 OFFCURVE",
"231 -172 OFFCURVE",
"260 -36 CURVE SMOOTH",
"388 555 LINE SMOOTH",
"403 622 OFFCURVE",
"436 650 OFFCURVE",
"485 650 CURVE",
"508 650 OFFCURVE",
"531 645 OFFCURVE",
"554 633 CURVE",
"586 706 LINE",
"561 720 OFFCURVE",
"524 730 OFFCURVE",
"488 730 CURVE",
"387 730 OFFCURVE",
"321 676 OFFCURVE",
"297 562 CURVE SMOOTH",
"178 0 LINE SMOOTH",
"158 -98 OFFCURVE",
"124 -112 OFFCURVE",
"81 -112 CURVE",
"63 -112 OFFCURVE",
"47 -109 OFFCURVE",
"29 -102 CURVE",
"2 -173 LINE"
);
},
{
closed = 1;
nodes = (
"507 442 LINE",
"523 515 LINE",
"196 515 LINE",
"180 442 LINE"
);
}
);
userData = {
com.schriftgestaltung.Glyphs.lastChange = "2021-03-02 23:45:59 +0000";
};
width = 600;
}
);
unicode = 0192;
},
{
color = 5;
glyphname = at;
lastChange = "2021-09-23 17:11:44 +0000";
layers = (
{
layerId = m01;
paths = (
{
closed = 1;
nodes = (
"51 -54 OFFCURVE",
"176 -195 OFFCURVE",
"405 -195 CURVE SMOOTH",
"492 -195 OFFCURVE",
"580 -172 OFFCURVE",
"647 -147 CURVE",
"633 -74 LINE",
"573 -100 OFFCURVE",
"488 -121 OFFCURVE",
"413 -121 CURVE SMOOTH",
"221 -121 OFFCURVE",
"132 -1 OFFCURVE",
"132 156 CURVE SMOOTH",
"132 413 OFFCURVE",
"317 627 OFFCURVE",
"568 627 CURVE SMOOTH",
"732 627 OFFCURVE",
"844 549 OFFCURVE",
"844 366 CURVE",
"844 234 OFFCURVE",
"781 63 OFFCURVE",
"696 63 CURVE",
"657 63 OFFCURVE",
"638 107 OFFCURVE",
"652 168 CURVE SMOOTH",
"730 493 LINE",
"649 493 LINE",
"617 411 LINE",
"579 236 LINE SMOOTH",
"560 144 OFFCURVE",
"488 85 OFFCURVE",
"425 85 CURVE",
"371 85 OFFCURVE",
"340 117 OFFCURVE",
"340 190 CURVE",
"340 297 OFFCURVE",
"402 426 OFFCURVE",
"511 426 CURVE SMOOTH",
"561 426 OFFCURVE",
"596 403 OFFCURVE",
"622 359 CURVE",
"639 433 LINE",
"607 475 OFFCURVE",
"569 501 OFFCURVE",
"511 501 CURVE SMOOTH",
"353 501 OFFCURVE",
"247 343 OFFCURVE",
"247 179 CURVE",
"247 78 OFFCURVE",
"297 4 OFFCURVE",
"397 4 CURVE",
"471 4 OFFCURVE",
"544 54 OFFCURVE",
"578 114 CURVE",
"561 126 LINE",
"559 49 OFFCURVE",
"605 -10 OFFCURVE",
"683 -10 CURVE",
"829 -10 OFFCURVE",
"923 183 OFFCURVE",
"923 370 CURVE",
"923 599 OFFCURVE",
"771 700 OFFCURVE",
"576 700 CURVE SMOOTH",
"279 700 OFFCURVE",
"51 469 OFFCURVE",
"51 148 CURVE SMOOTH"
);
}
);
userData = {
com.schriftgestaltung.Glyphs.lastChange = "2021-03-02 23:45:59 +0000";
};
width = 982;
}
);
unicode = 0040;
},
{
color = 5;
glyphname = ampersand;
lastChange = "2021-09-23 17:11:44 +0000";
layers = (
{
layerId = m01;
paths = (
{
closed = 1;
nodes = (
"31 60 OFFCURVE",
"103 -10 OFFCURVE",
"217 -10 CURVE",
"412 -10 OFFCURVE",
"544 175 OFFCURVE",
"603 297 CURVE",
"528 328 LINE",
"482 217 OFFCURVE",
"357 73 OFFCURVE",
"234 73 CURVE",
"170 73 OFFCURVE",
"124 105 OFFCURVE",
"124 160 CURVE",
"124 215 OFFCURVE",
"171 257 OFFCURVE",
"242 294 CURVE SMOOTH",
"385 369 LINE SMOOTH",
"478 418 OFFCURVE",
"542 473 OFFCURVE",
"542 557 CURVE",
"542 632 OFFCURVE",
"481 700 OFFCURVE",
"378 700 CURVE",
"246 700 OFFCURVE",
"184 614 OFFCURVE",
"184 519 CURVE",
"184 451 OFFCURVE",
"217 399 OFFCURVE",
"247 353 CURVE SMOOTH",
"473 0 LINE",
"577 0 LINE",
"320 397 LINE SMOOTH",
"291 442 OFFCURVE",
"275 475 OFFCURVE",
"275 521 CURVE",
"275 588 OFFCURVE",
"323 624 OFFCURVE",
"373 624 CURVE",
"427 624 OFFCURVE",
"456 585 OFFCURVE",
"454 545 CURVE",
"451 499 OFFCURVE",
"411 465 OFFCURVE",
"354 436 CURVE SMOOTH",
"206 361 LINE SMOOTH",
"98 306 OFFCURVE",
"31 240 OFFCURVE",
"31 152 CURVE"
);
}
);
userData = {
com.schriftgestaltung.Glyphs.lastChange = "2021-03-02 23:45:59 +0000";
};
width = 662;
}
);
unicode = 0026;
},
{
color = 5;
glyphname = paragraph;
lastChange = "2021-09-23 17:11:44 +0000";
layers = (
{
layerId = m01;
paths = (
{
closed = 1;
nodes = (
"96 285 OFFCURVE",
"177 205 OFFCURVE",
"295 205 CURVE",
"329 205 LINE",
"244 -196 LINE",
"329 -196 LINE",
"518 690 LINE",
"398 690 LINE",
"223 690 OFFCURVE",
"96 556 OFFCURVE",
"96 395 CURVE SMOOTH"
);
},
{
closed = 1;
nodes = (
"505 -196 LINE",
"693 690 LINE",
"608 690 LINE",
"419 -196 LINE"
);
}
);
userData = {
com.schriftgestaltung.Glyphs.lastChange = "2021-03-02 23:45:59 +0000";
};
width = 702;
}
);
unicode = 00B6;
},
{
color = 5;
glyphname = section;
lastChange = "2021-09-23 17:11:44 +0000";
layers = (
{
layerId = m01;
paths = (
{
closed = 1;
nodes = (
"20 -159 OFFCURVE",
"100 -195 OFFCURVE",
"203 -195 CURVE SMOOTH",
"362 -195 OFFCURVE",
"453 -99 OFFCURVE",
"453 -7 CURVE SMOOTH",
"453 70 OFFCURVE",
"402 116 OFFCURVE",
"279 162 CURVE SMOOTH",
"173 202 OFFCURVE",
"139 231 OFFCURVE",
"139 280 CURVE SMOOTH",
"139 332 OFFCURVE",
"185 382 OFFCURVE",
"278 397 CURVE",
"211 445 LINE",
"111 419 OFFCURVE",
"45 345 OFFCURVE",
"45 266 CURVE SMOOTH",
"45 180 OFFCURVE",
"104 136 OFFCURVE",
"233 86 CURVE SMOOTH",
"324 51 OFFCURVE",
"354 30 OFFCURVE",
"354 -12 CURVE SMOOTH",
"354 -69 OFFCURVE",
"292 -111 OFFCURVE",
"207 -111 CURVE SMOOTH",
"135 -111 OFFCURVE",
"70 -83 OFFCURVE",
"34 -47 CURVE",
"-25 -116 LINE"
);
},
{
closed = 1;
nodes = (
"153 432 OFFCURVE",
"207 385 OFFCURVE",
"324 338 CURVE SMOOTH",
"432 295 OFFCURVE",
"468 269 OFFCURVE",
"468 226 CURVE SMOOTH",
"468 169 OFFCURVE",
"420 124 OFFCURVE",
"328 109 CURVE",
"393 55 LINE",
"480 85 OFFCURVE",
"562 147 OFFCURVE",
"562 238 CURVE SMOOTH",
"562 318 OFFCURVE",
"506 359 OFFCURVE",
"381 411 CURVE SMOOTH",
"292 448 OFFCURVE",
"251 471 OFFCURVE",
"251 519 CURVE",
"251 576 OFFCURVE",
"317 616 OFFCURVE",
"411 616 CURVE SMOOTH",
"468 616 OFFCURVE",
"535 597 OFFCURVE",
"572 558 CURVE",
"630 624 LINE",
"585 670 OFFCURVE",
"510 700 OFFCURVE",
"417 700 CURVE SMOOTH",
"259 700 OFFCURVE",
"153 613 OFFCURVE",
"153 512 CURVE SMOOTH"
);
}
);
userData = {
com.schriftgestaltung.Glyphs.lastChange = "2021-03-02 23:45:59 +0000";
};
width = 620;
}
);
unicode = 00A7;
},
{
color = 5;
glyphname = copyright;
lastChange = "2021-09-23 17:11:44 +0000";
layers = (
{
layerId = m01;
paths = (
{
closed = 1;
nodes = (
"619 -10 OFFCURVE",
"774 145 OFFCURVE",
"774 345 CURVE SMOOTH",
"774 545 OFFCURVE",
"619 700 OFFCURVE",
"419 700 CURVE SMOOTH",
"219 700 OFFCURVE",
"64 545 OFFCURVE",
"64 345 CURVE SMOOTH",
"64 145 OFFCURVE",
"219 -10 OFFCURVE",
"419 -10 CURVE SMOOTH"
);
},
{
closed = 1;
nodes = (
"259 60 OFFCURVE",
"136 185 OFFCURVE",
"136 345 CURVE SMOOTH",
"136 505 OFFCURVE",
"259 630 OFFCURVE",
"419 630 CURVE SMOOTH",
"579 630 OFFCURVE",
"702 505 OFFCURVE",
"702 345 CURVE SMOOTH",
"702 185 OFFCURVE",
"579 60 OFFCURVE",
"419 60 CURVE SMOOTH"
);
},
{
closed = 1;
nodes = (
"230 210 OFFCURVE",
"316 135 OFFCURVE",
"419 135 CURVE SMOOTH",
"471 135 OFFCURVE",
"515 155 OFFCURVE",
"551 191 CURVE",
"504 241 LINE",
"482 217 OFFCURVE",
"454 205 OFFCURVE",
"420 205 CURVE SMOOTH",
"354 205 OFFCURVE",
"304 254 OFFCURVE",
"304 345 CURVE SMOOTH",
"304 436 OFFCURVE",
"354 485 OFFCURVE",
"420 485 CURVE SMOOTH",
"450 485 OFFCURVE",
"476 474 OFFCURVE",
"499 450 CURVE",
"546 500 LINE",
"510 535 OFFCURVE",
"467 555 OFFCURVE",
"419 555 CURVE SMOOTH",
"316 555 OFFCURVE",
"230 480 OFFCURVE",
"230 345 CURVE SMOOTH"
);
}
);
userData = {
com.schriftgestaltung.Glyphs.lastChange = "2021-03-02 23:45:59 +0000";
};
width = 810;
}
);
unicode = 00A9;
},
{
color = 5;
glyphname = registered;
lastChange = "2021-09-23 17:11:44 +0000";
layers = (
{
layerId = m01;
paths = (
{
closed = 1;
nodes = (
"619 -10 OFFCURVE",
"774 145 OFFCURVE",
"774 345 CURVE SMOOTH",
"774 545 OFFCURVE",
"619 700 OFFCURVE",
"419 700 CURVE SMOOTH",
"219 700 OFFCURVE",
"64 545 OFFCURVE",
"64 345 CURVE SMOOTH",
"64 145 OFFCURVE",
"219 -10 OFFCURVE",
"419 -10 CURVE SMOOTH"
);
},
{
closed = 1;
nodes = (
"259 60 OFFCURVE",
"136 185 OFFCURVE",
"136 345 CURVE SMOOTH",
"136 505 OFFCURVE",
"259 630 OFFCURVE",
"419 630 CURVE SMOOTH",
"579 630 OFFCURVE",
"702 505 OFFCURVE",
"702 345 CURVE SMOOTH",
"702 185 OFFCURVE",
"579 60 OFFCURVE",
"419 60 CURVE SMOOTH"
);
},
{
closed = 1;
nodes = (
"352 138 LINE",
"352 552 LINE",
"282 552 LINE",
"282 138 LINE"
);
},
{
closed = 1;
nodes = (
"423 294 LINE SMOOTH",
"504 294 OFFCURVE",
"570 339 OFFCURVE",
"570 423 CURVE SMOOTH",
"570 506 OFFCURVE",
"504 552 OFFCURVE",
"423 552 CURVE SMOOTH",
"314 552 LINE",
"314 492 LINE",
"419 492 LINE SMOOTH",
"466 492 OFFCURVE",
"498 468 OFFCURVE",
"498 423 CURVE SMOOTH",
"498 378 OFFCURVE",
"465 352 OFFCURVE",
"419 352 CURVE SMOOTH",
"314 352 LINE",
"314 294 LINE"
);
},
{
closed = 1;
nodes = (
"500 138 LINE",
"582 138 LINE",
"476 312 LINE",
"400 312 LINE"
);
}
);
userData = {
com.schriftgestaltung.Glyphs.lastChange = "2021-03-02 23:45:59 +0000";
};
width = 810;
}
);
unicode = 00AE;
},
{
color = 5;
glyphname = trademark;
lastChange = "2021-09-23 17:11:44 +0000";
layers = (
{
layerId = m01;
paths = (
{
closed = 1;
nodes = (
"414 624 LINE",
"428 690 LINE",
"123 690 LINE",
"108 624 LINE"
);
},
{
closed = 1;
nodes = (
"227 290 LINE",
"312 690 LINE",
"239 690 LINE",
"154 290 LINE"
);
},
{
closed = 1;
nodes = (
"486 290 LINE",
"571 690 LINE",
"502 690 LINE",
"417 290 LINE"
);
},
{
closed = 1;
nodes = (
"595 369 LINE",
"640 369 LINE",
"656 426 LINE",
"615 690 LINE",
"548 690 LINE"
);
},
{
closed = 1;
nodes = (
"661 369 LINE",
"846 690 LINE",
"771 690 LINE",
"624 426 LINE",
"617 369 LINE"
);
},
{
closed = 1;
nodes = (
"807 290 LINE",
"892 690 LINE",
"823 690 LINE",
"738 290 LINE"
);
}
);
userData = {
com.schriftgestaltung.Glyphs.lastChange = "2021-03-02 23:45:59 +0000";
};
width = 905;
}
);
unicode = 2122;
},
{
color = 5;
glyphname = degree;
lastChange = "2021-09-23 17:11:44 +0000";
layers = (
{
layerId = m01;
paths = (
{
closed = 1;
nodes = (
"101 460 OFFCURVE",
"155 402 OFFCURVE",
"234 402 CURVE",
"331 402 OFFCURVE",
"406 475 OFFCURVE",
"406 572 CURVE",
"406 643 OFFCURVE",
"351 700 OFFCURVE",
"274 700 CURVE",
"176 700 OFFCURVE",
"101 629 OFFCURVE",
"101 532 CURVE"
);
},
{
closed = 1;
nodes = (
"170 591 OFFCURVE",
"214 637 OFFCURVE",
"266 637 CURVE",
"310 637 OFFCURVE",
"337 608 OFFCURVE",
"337 565 CURVE",
"337 512 OFFCURVE",
"292 465 OFFCURVE",
"242 465 CURVE",
"197 465 OFFCURVE",
"170 496 OFFCURVE",
"170 535 CURVE"
);
}
);
userData = {
com.schriftgestaltung.Glyphs.lastChange = "2021-03-02 23:45:59 +0000";
};
width = 393;
}
);
unicode = 00B0;
},
{
color = 5;
glyphname = bar;
lastChange = "2021-09-23 17:11:44 +0000";
layers = (
{
layerId = m01;
paths = (
{
closed = 1;
nodes = (
"75 -215 LINE",
"274 720 LINE",
"188 720 LINE",
"-11 -215 LINE"
);
}
);
userData = {
com.schriftgestaltung.Glyphs.lastChange = "2021-03-02 23:45:59 +0000";
};
width = 276;
}
);
unicode = 007C;
},
{
color = 5;
glyphname = brokenbar;
lastChange = "2021-09-23 17:11:44 +0000";
layers = (
{
layerId = m01;
paths = (
{
closed = 1;
nodes = (
"75 -215 LINE",
"153 150 LINE",
"67 150 LINE",
"-11 -215 LINE"
);
},
{
closed = 1;
nodes = (
"196 355 LINE",
"274 720 LINE",
"188 720 LINE",
"110 355 LINE"
);
}
);
userData = {
com.schriftgestaltung.Glyphs.lastChange = "2021-03-02 23:45:59 +0000";
};
width = 276;
}
);
unicode = 00A6;
},
{
color = 5;
glyphname = dagger;
lastChange = "2021-09-23 17:11:44 +0000";
layers = (
{
layerId = m01;
paths = (
{
closed = 1;
nodes = (
"439 440 LINE",
"455 515 LINE",
"76 515 LINE",
"61 440 LINE"
);
},
{
closed = 1;
nodes = (
"160 -185 LINE",
"352 720 LINE",
"266 720 LINE",
"74 -185 LINE"
);
}
);
userData = {
com.schriftgestaltung.Glyphs.lastChange = "2021-03-02 23:45:59 +0000";
};
width = 433;
}
);
unicode = 2020;
},
{
color = 5;
glyphname = litre;
lastChange = "2021-09-23 17:11:44 +0000";
layers = (
{
layerId = m01;
paths = (
{
closed = 1;
nodes = (
"40 158 LINE",
"283 208 OFFCURVE",
"496 391 OFFCURVE",
"496 585 CURVE SMOOTH",
"496 674 OFFCURVE",
"447 730 OFFCURVE",
"363 730 CURVE SMOOTH",
"266 730 OFFCURVE",
"206 666 OFFCURVE",
"181 550 CURVE SMOOTH",
"97 157 LINE SMOOTH",
"74 49 OFFCURVE",
"124 -10 OFFCURVE",
"218 -10 CURVE",
"254 -10 OFFCURVE",
"293 -1 OFFCURVE",
"324 12 CURVE",
"311 92 LINE",
"284 81 OFFCURVE",
"262 75 OFFCURVE",
"237 75 CURVE",
"198 75 OFFCURVE",
"175 95 OFFCURVE",
"188 160 CURVE SMOOTH",
"270 544 LINE SMOOTH",
"283 603 OFFCURVE",
"314 650 OFFCURVE",
"357 650 CURVE SMOOTH",
"390 650 OFFCURVE",
"406 623 OFFCURVE",
"406 579 CURVE SMOOTH",
"406 434 OFFCURVE",
"253 282 OFFCURVE",
"26 228 CURVE"
);
}
);
userData = {
com.schriftgestaltung.Glyphs.lastChange = "2021-03-02 23:45:59 +0000";
};
width = 503;
}
);
unicode = 2113;
},
{
color = 5;
glyphname = daggerdbl;
lastChange = "2021-09-23 17:11:44 +0000";
layers = (
{
layerId = m01;
paths = (
{
closed = 1;
nodes = (
"350 20 LINE",
"366 95 LINE",
"-13 95 LINE",
"-29 20 LINE"
);
},
{
closed = 1;
nodes = (
"439 440 LINE",
"455 515 LINE",
"76 515 LINE",
"61 440 LINE"
);
},
{
closed = 1;
nodes = (
"160 -185 LINE",
"352 720 LINE",
"266 720 LINE",
"74 -185 LINE"
);
}
);
userData = {
com.schriftgestaltung.Glyphs.lastChange = "2021-03-02 23:45:59 +0000";
};
width = 433;
}
);
unicode = 2021;
},
{
color = 5;
glyphname = estimated;
lastChange = "2021-09-23 17:11:44 +0000";
layers = (
{
layerId = m01;
paths = (
{
closed = 1;
nodes = (
"59 75 OFFCURVE",
"157 -10 OFFCURVE",
"308 -10 CURVE SMOOTH",
"401 -10 OFFCURVE",
"484 20 OFFCURVE",
"556 64 CURVE",
"536 116 LINE",
"477 80 OFFCURVE",
"403 50 OFFCURVE",
"325 50 CURVE SMOOTH",
"195 50 OFFCURVE",
"121 117 OFFCURVE",
"121 249 CURVE SMOOTH",
"121 431 OFFCURVE",
"269 640 OFFCURVE",
"436 640 CURVE SMOOTH",
"557 640 OFFCURVE",
"609 573 OFFCURVE",
"609 445 CURVE SMOOTH",
"609 418 OFFCURVE",
"606 388 OFFCURVE",
"599 356 CURVE",
"621 390 LINE",
"111 390 LINE",
"98 330 LINE",
"652 330 LINE",
"665 372 OFFCURVE",
"672 420 OFFCURVE",
"672 458 CURVE SMOOTH",
"672 613 OFFCURVE",
"575 700 OFFCURVE",
"449 700 CURVE SMOOTH",
"220 700 OFFCURVE",
"59 458 OFFCURVE",
"59 238 CURVE SMOOTH"
);
},
{
closed = 1;
nodes = (
"136 80 LINE",
"247 600 LINE",
"130 480 LINE",
"75 220 LINE"
);
},
{
closed = 1;
nodes = (
"627 350 LINE",
"655 480 LINE",
"591 605 LINE",
"536 350 LINE"
);
}
);
userData = {
com.schriftgestaltung.Glyphs.lastChange = "2021-03-02 23:45:59 +0000";
};
width = 702;
}
);
unicode = 212E;
},
{
color = 5;
glyphname = numero;
lastChange = "2021-09-23 17:11:44 +0000";
layers = (
{
layerId = m01;
paths = (
{
closed = 1;
nodes = (
"1017 115 LINE",
"1033 190 LINE",
"726 190 LINE",
"710 115 LINE"
);
},
{
closed = 1;
nodes = (
"753 346 OFFCURVE",
"810 280 OFFCURVE",
"902 280 CURVE SMOOTH",
"1014 280 OFFCURVE",
"1091 370 OFFCURVE",
"1111 510 CURVE SMOOTH",
"1130 634 OFFCURVE",
"1073 700 OFFCURVE",
"985 700 CURVE SMOOTH",
"870 700 OFFCURVE",
"792 613 OFFCURVE",
"772 470 CURVE SMOOTH"
);
},
{
closed = 1;
nodes = (
"867 572 OFFCURVE",
"913 630 OFFCURVE",
"973 630 CURVE SMOOTH",
"1022 630 OFFCURVE",
"1048 594 OFFCURVE",
"1032 505 CURVE SMOOTH",
"1017 408 OFFCURVE",
"971 350 OFFCURVE",
"911 350 CURVE SMOOTH",
"863 350 OFFCURVE",
"836 387 OFFCURVE",
"851 475 CURVE SMOOTH"
);
},
{
closed = 1;
nodes = (
"126 0 LINE",
"273 690 LINE",
"182 690 LINE",
"35 0 LINE"
);
},
{
closed = 1;
nodes = (
"447 0 LINE",
"537 0 LINE",
"304 690 LINE",
"213 690 LINE"
);
},
{
closed = 1;
nodes = (
"565 0 LINE",
"712 690 LINE",
"621 690 LINE",
"474 0 LINE"
);
}
);
userData = {
com.schriftgestaltung.Glyphs.lastChange = "2021-03-02 23:45:59 +0000";
};
width = 1119;
}
);
unicode = 2116;
},
{
color = 5;
glyphname = gem;
lastChange = "2021-09-23 17:11:44 +0000";
layers = (
{
layerId = m01;
paths = (
{
closed = 1;
nodes = (
"72 256 OFFCURVE",
"108 198 OFFCURVE",
"159 167 CURVE",
"159 473 LINE",
"108 442 OFFCURVE",
"72 384 OFFCURVE",
"72 320 CURVE SMOOTH"
);
},
{
closed = 1;
nodes = (
"188 221 OFFCURVE",
"268 141 OFFCURVE",
"366 141 CURVE",
"366 499 LINE",
"268 499 OFFCURVE",
"188 419 OFFCURVE",
"188 320 CURVE SMOOTH"
);
},
{
closed = 1;
nodes = (
"196 20 OFFCURVE",
"272 -56 OFFCURVE",
"366 -56 CURVE",
"366 114 LINE",
"196 114 LINE"
);
},
{
closed = 1;
nodes = (
"366 526 LINE",
"366 696 LINE",
"272 696 OFFCURVE",
"196 620 OFFCURVE",
"196 526 CURVE"
);
},
{
closed = 1;
nodes = (
"393 16 OFFCURVE",
"473 -64 OFFCURVE",
"572 -64 CURVE SMOOTH",
"671 -64 OFFCURVE",
"751 16 OFFCURVE",
"751 114 CURVE",
"393 114 LINE"
);
},
{
closed = 1;
nodes = (
"393 221 OFFCURVE",
"473 141 OFFCURVE",
"572 141 CURVE SMOOTH",
"671 141 OFFCURVE",
"751 221 OFFCURVE",
"751 320 CURVE SMOOTH",
"751 419 OFFCURVE",
"671 499 OFFCURVE",
"572 499 CURVE SMOOTH",
"473 499 OFFCURVE",
"393 419 OFFCURVE",
"393 320 CURVE SMOOTH"
);
},
{
closed = 1;
nodes = (
"751 526 LINE",
"751 624 OFFCURVE",
"671 704 OFFCURVE",
"572 704 CURVE SMOOTH",
"473 704 OFFCURVE",
"393 624 OFFCURVE",
"393 526 CURVE"
);
},
{
closed = 1;
nodes = (
"450 -144 OFFCURVE",
"508 -180 OFFCURVE",
"572 -180 CURVE SMOOTH",
"636 -180 OFFCURVE",
"694 -144 OFFCURVE",
"725 -93 CURVE",
"419 -93 LINE"
);
},
{
closed = 1;
nodes = (
"725 733 LINE",
"694 784 OFFCURVE",
"636 820 OFFCURVE",
"572 820 CURVE SMOOTH",
"508 820 OFFCURVE",
"450 784 OFFCURVE",
"419 733 CURVE"
);
},
{
closed = 1;
nodes = (
"872 -56 OFFCURVE",
"948 20 OFFCURVE",
"948 114 CURVE",
"778 114 LINE",
"778 -56 LINE"
);
},
{
closed = 1;
nodes = (
"876 141 OFFCURVE",
"956 221 OFFCURVE",
"956 320 CURVE SMOOTH",
"956 419 OFFCURVE",
"876 499 OFFCURVE",
"778 499 CURVE",
"778 141 LINE"
);
},
{
closed = 1;
nodes = (
"948 526 LINE",
"948 620 OFFCURVE",
"872 696 OFFCURVE",
"778 696 CURVE",
"778 526 LINE"
);
},
{
closed = 1;
nodes = (
"1036 198 OFFCURVE",
"1072 256 OFFCURVE",
"1072 320 CURVE SMOOTH",
"1072 384 OFFCURVE",
"1036 442 OFFCURVE",
"985 473 CURVE",
"985 167 LINE"
);
}
);
userData = {
com.schriftgestaltung.Glyphs.lastChange = "2021-03-02 23:45:59 +0000";
};
width = 1128;
}
);
unicode = F8FF;
},
{
color = 5;
glyphname = Euro;
lastChange = "2021-09-23 17:11:44 +0000";
layers = (
{
layerId = m01;
paths = (
{
closed = 1;
nodes = (
"398 222 LINE",
"414 296 LINE",
"33 296 LINE",
"17 222 LINE"
);
},
{
closed = 1;
nodes = (
"434 394 LINE",
"451 468 LINE",
"70 468 LINE",
"54 394 LINE"
);
},
{
closed = 1;
nodes = (
"83 79 OFFCURVE",
"179 -10 OFFCURVE",
"324 -10 CURVE",
"405 -10 OFFCURVE",
"478 21 OFFCURVE",
"548 82 CURVE",
"496 151 LINE",
"447 104 OFFCURVE",
"394 81 OFFCURVE",
"336 81 CURVE",
"241 81 OFFCURVE",
"184 138 OFFCURVE",
"184 249 CURVE",
"184 445 OFFCURVE",
"312 610 OFFCURVE",
"455 610 CURVE SMOOTH",
"514 610 OFFCURVE",
"550 590 OFFCURVE",
"582 547 CURVE",
"651 611 LINE",
"606 672 OFFCURVE",
"550 700 OFFCURVE",
"470 700 CURVE SMOOTH",
"263 700 OFFCURVE",
"83 487 OFFCURVE",
"83 237 CURVE"
);
}
);
userData = {
com.schriftgestaltung.Glyphs.lastChange = "2021-03-02 23:45:59 +0000";
};
width = 600;
}
);
leftKerningGroup = NO_KERN;
rightKerningGroup = NO_KERN;
unicode = 20AC;
},
{
color = 5;
glyphname = cedi;
lastChange = "2021-09-23 17:11:44 +0000";
layers = (
{
components = (
{
name = C;
}
);
layerId = m01;
paths = (
{
closed = 1;
nodes = (
"300 -128 LINE",
"499 807 LINE",
"413 807 LINE",
"214 -128 LINE"
);
}
);
userData = {
com.schriftgestaltung.Glyphs.lastChange = "2021-03-10 03:42:25 +0000";
};
width = 626;
}
);
unicode = 20B5;
},
{
color = 5;
glyphname = cent;
lastChange = "2021-09-23 17:11:44 +0000";
layers = (
{
layerId = m01;
paths = (
{
closed = 1;
nodes = (
"101 99 OFFCURVE",
"171 28 OFFCURVE",
"275 28 CURVE",
"353 28 OFFCURVE",
"418 62 OFFCURVE",
"475 116 CURVE",
"428 178 LINE",
"389 137 OFFCURVE",
"341 110 OFFCURVE",
"290 110 CURVE SMOOTH",
"231 110 OFFCURVE",
"195 149 OFFCURVE",
"195 225 CURVE SMOOTH",
"195 350 OFFCURVE",
"274 481 OFFCURVE",
"379 481 CURVE SMOOTH",
"419 481 OFFCURVE",
"449 464 OFFCURVE",
"470 430 CURVE",
"534 486 LINE",
"506 533 OFFCURVE",
"450 563 OFFCURVE",
"389 563 CURVE SMOOTH",
"224 563 OFFCURVE",
"101 396 OFFCURVE",
"101 212 CURVE SMOOTH"
);
},
{
closed = 1;
nodes = (
"283 -100 LINE",
"364 280 LINE",
"288 280 LINE",
"207 -100 LINE"
);
},
{
closed = 1;
nodes = (
"364 280 LINE",
"452 695 LINE",
"376 695 LINE",
"288 280 LINE"
);
}
);
userData = {
com.schriftgestaltung.Glyphs.lastChange = "2021-03-02 23:45:59 +0000";
};
width = 600;
}
);
leftKerningGroup = NO_KERN;
rightKerningGroup = NO_KERN;
unicode = 00A2;
},
{
color = 5;
glyphname = colonsign;
lastChange = "2021-09-23 17:11:44 +0000";
layers = (
{
components = (
{
name = C;
}
);
layerId = m01;
paths = (
{
closed = 1;
nodes = (
"231 -141 LINE",
"430 794 LINE",
"354 794 LINE",
"155 -141 LINE"
);
},
{
closed = 1;
nodes = (
"361 -141 LINE",
"560 794 LINE",
"484 794 LINE",
"285 -141 LINE"
);
}
);
userData = {
com.schriftgestaltung.Glyphs.lastChange = "2021-03-10 03:43:30 +0000";
};
width = 626;
}
);
unicode = 20A1;
},
{
color = 5;
glyphname = currency;
lastChange = "2021-09-23 17:11:44 +0000";
layers = (
{
layerId = m01;
paths = (
{
closed = 1;
nodes = (
"56 79 LINE",
"155 160 LINE",
"104 224 LINE",
"5 142 LINE"
);
},
{
closed = 1;
nodes = (
"85 171 OFFCURVE",
"160 108 OFFCURVE",
"270 108 CURVE SMOOTH",
"421 108 OFFCURVE",
"543 234 OFFCURVE",
"543 400 CURVE SMOOTH",
"543 519 OFFCURVE",
"469 582 OFFCURVE",
"358 582 CURVE SMOOTH",
"209 582 OFFCURVE",
"85 452 OFFCURVE",
"85 290 CURVE SMOOTH"
);
},
{
closed = 1;
nodes = (
"161 469 LINE",
"231 529 LINE",
"167 610 LINE",
"97 551 LINE"
);
},
{
closed = 1;
nodes = (
"171 402 OFFCURVE",
"238 502 OFFCURVE",
"349 502 CURVE SMOOTH",
"419 502 OFFCURVE",
"457 464 OFFCURVE",
"457 395 CURVE SMOOTH",
"457 290 OFFCURVE",
"392 188 OFFCURVE",
"280 188 CURVE SMOOTH",
"209 188 OFFCURVE",
"171 227 OFFCURVE",
"171 296 CURVE SMOOTH"
);
},
{
closed = 1;
nodes = (
"460 80 LINE",
"530 139 LINE",
"466 221 LINE",
"396 161 LINE"
);
},
{
closed = 1;
nodes = (
"523 466 LINE",
"622 548 LINE",
"572 611 LINE",
"473 530 LINE"
);
}
);
userData = {
com.schriftgestaltung.Glyphs.lastChange = "2021-03-02 23:45:59 +0000";
};
width = 600;
}
);
leftKerningGroup = NO_KERN;
rightKerningGroup = NO_KERN;
unicode = 00A4;
},
{
color = 5;
glyphname = dollar;
lastChange = "2021-09-23 17:11:44 +0000";
layers = (
{
layerId = m01;
paths = (
{
closed = 1;
nodes = (
"71 32 OFFCURVE",
"159 -10 OFFCURVE",
"266 -10 CURVE",
"431 -10 OFFCURVE",
"520 79 OFFCURVE",
"520 184 CURVE",
"520 261 OFFCURVE",
"478 326 OFFCURVE",
"333 401 CURVE SMOOTH",
"236 451 OFFCURVE",
"213 483 OFFCURVE",
"213 524 CURVE",
"213 569 OFFCURVE",
"263 615 OFFCURVE",
"349 615 CURVE",
"418 615 OFFCURVE",
"478 586 OFFCURVE",
"525 547 CURVE",
"576 624 LINE",
"520 669 OFFCURVE",
"446 700 OFFCURVE",
"362 700 CURVE",
"205 700 OFFCURVE",
"115 611 OFFCURVE",
"115 518 CURVE",
"115 445 OFFCURVE",
"156 387 OFFCURVE",
"282 319 CURVE SMOOTH",
"397 259 OFFCURVE",
"416 223 OFFCURVE",
"416 175 CURVE",
"416 124 OFFCURVE",
"378 78 OFFCURVE",
"272 78 CURVE",
"190 78 OFFCURVE",
"114 115 OFFCURVE",
"62 167 CURVE",
"4 92 LINE"
);
},
{
closed = 1;
nodes = (
"261 -100 LINE",
"354 340 LINE",
"281 364 LINE",
"183 -100 LINE"
);
},
{
closed = 1;
nodes = (
"354 340 LINE",
"450 790 LINE",
"372 790 LINE",
"281 364 LINE"
);
}
);
userData = {
com.schriftgestaltung.Glyphs.lastChange = "2021-03-02 23:45:59 +0000";
};
width = 600;
}
);
leftKerningGroup = NO_KERN;
rightKerningGroup = NO_KERN;
unicode = 0024;
},
{
color = 5;
glyphname = dong;
lastChange = "2021-09-23 17:11:44 +0000";
layers = (
{
components = (
{
name = d;
}
);
layerId = m01;
paths = (
{
closed = 1;
nodes = (
"424 -150 LINE",
"439 -80 LINE",
"13 -80 LINE",
"-2 -150 LINE"
);
},
{
closed = 1;
nodes = (
"614 570 LINE",
"629 640 LINE",
"343 640 LINE",
"328 570 LINE"
);
}
);
userData = {
com.schriftgestaltung.Glyphs.lastChange = "2021-03-10 04:17:56 +0000";
};
width = 580;
}
);
unicode = 20AB;
},
{
color = 5;
glyphname = guarani;
lastChange = "2021-09-23 17:11:44 +0000";
layers = (
{
anchors = (
{
name = bottom;
position = "{342, 0}";
},
{
name = top;
position = "{435, 690}";
}
);
components = (
{
name = bar;
transform = "{1, 0, 0, 1, 226, 90}";
}
);
layerId = m01;
paths = (
{
closed = 1;
nodes = (
"60 81 OFFCURVE",
"161 -10 OFFCURVE",
"306 -10 CURVE",
"392 -10 OFFCURVE",
"489 23 OFFCURVE",
"562 85 CURVE",
"503 143 LINE",
"452 101 OFFCURVE",
"382 76 OFFCURVE",
"321 76 CURVE",
"223 76 OFFCURVE",
"161 138 OFFCURVE",
"161 249 CURVE SMOOTH",
"161 445 OFFCURVE",
"288 610 OFFCURVE",
"434 610 CURVE SMOOTH",
"495 610 OFFCURVE",
"540 588 OFFCURVE",
"573 545 CURVE",
"648 609 LINE",
"593 671 OFFCURVE",
"530 700 OFFCURVE",
"449 700 CURVE SMOOTH",
"239 700 OFFCURVE",
"60 487 OFFCURVE",
"60 237 CURVE SMOOTH"
);
},
{
closed = 1;
nodes = (
"557 266 LINE",
"574 348 LINE",
"380 348 LINE",
"363 266 LINE"
);
},
{
closed = 1;
nodes = (
"562 85 LINE",
"618 348 LINE",
"523 348 LINE",
"466 81 LINE"
);
}
);
userData = {
com.schriftgestaltung.Glyphs.lastChange = "2021-03-10 06:47:16 +0000";
};
width = 680;
}
);
unicode = 20B2;
},
{
color = 5;
glyphname = kip;
lastChange = "2021-09-23 17:11:44 +0000";
layers = (
{
components = (
{
name = K;
}
);
layerId = m01;
paths = (
{
closed = 1;
nodes = (
"525 299 LINE",
"540 369 LINE",
"44 369 LINE",
"29 299 LINE"
);
}
);
userData = {
com.schriftgestaltung.Glyphs.lastChange = "2021-03-10 06:47:54 +0000";
};
width = 620;
}
);
unicode = 20AD;
},
{
color = 5;
glyphname = lira;
lastChange = "2021-09-23 17:11:44 +0000";
layers = (
{
layerId = m01;
paths = (
{
closed = 1;
nodes = (
"472 0 LINE",
"489 82 LINE",
"21 82 LINE",
"3 0 LINE"
);
},
{
closed = 1;
nodes = (
"163 66 OFFCURVE",
"262 167 OFFCURVE",
"262 294 CURVE",
"262 354 OFFCURVE",
"260 381 OFFCURVE",
"260 428 CURVE",
"260 540 OFFCURVE",
"321 612 OFFCURVE",
"415 612 CURVE",
"470 612 OFFCURVE",
"512 590 OFFCURVE",
"536 549 CURVE",
"606 607 LINE",
"576 665 OFFCURVE",
"505 700 OFFCURVE",
"418 700 CURVE",
"280 700 OFFCURVE",
"166 608 OFFCURVE",
"166 437 CURVE",
"166 382 OFFCURVE",
"170 352 OFFCURVE",
"170 319 CURVE SMOOTH",
"170 237 OFFCURVE",
"136 139 OFFCURVE",
"21 85 CURVE",
"6 17 LINE"
);
},
{
closed = 1;
nodes = (
"439 212 LINE",
"456 289 LINE",
"81 289 LINE",
"64 212 LINE"
);
},
{
closed = 1;
nodes = (
"439 352 LINE",
"456 429 LINE",
"81 429 LINE",
"64 352 LINE"
);
}
);
userData = {
com.schriftgestaltung.Glyphs.lastChange = "2021-03-10 19:09:39 +0000";
};
width = 600;
}
);
unicode = 20A4;
},
{
color = 5;
glyphname = liraTurkish;
lastChange = "2021-09-23 17:11:44 +0000";
layers = (
{
layerId = m01;
paths = (
{
closed = 1;
nodes = (
"132 0 LINE",
"279 690 LINE",
"182 690 LINE",
"35 0 LINE"
);
},
{
closed = 1;
nodes = (
"263 0 OFFCURVE",
"416 54 OFFCURVE",
"416 224 CURVE",
"333 224 LINE",
"333 129 OFFCURVE",
"241 85 OFFCURVE",
"139 85 CURVE",
"121 0 LINE"
);
},
{
closed = 1;
nodes = (
"319 298 LINE",
"336 375 LINE",
"52 375 LINE",
"35 298 LINE"
);
},
{
closed = 1;
nodes = (
"344 438 LINE",
"361 515 LINE",
"81 515 LINE",
"64 438 LINE"
);
}
);
userData = {
com.schriftgestaltung.Glyphs.lastChange = "2021-03-10 19:34:52 +0000";
};
width = 600;
}
);
unicode = 20BA;
},
{
color = 5;
glyphname = manat;
lastChange = "2021-09-23 17:11:44 +0000";
layers = (
{
components = (
{
alignment = -1;
name = U;
transform = "{-1, 0, 0, -1, 741, 690}";
}
);
layerId = m01;
paths = (
{
closed = 1;
nodes = (
"347 1 LINE",
"522 822 LINE",
"436 822 LINE",
"261 1 LINE"
);
}
);
userData = {
com.schriftgestaltung.Glyphs.lastChange = "2021-03-10 23:40:13 +0000";
};
width = 701;
}
);
unicode = 20BC;
},
{
color = 5;
glyphname = naira;
lastChange = "2021-09-23 17:11:44 +0000";
layers = (
{
components = (
{
name = N;
}
);
layerId = m01;
paths = (
{
closed = 1;
nodes = (
"718 325 LINE",
"733 395 LINE",
"46 395 LINE",
"31 325 LINE"
);
}
);
userData = {
com.schriftgestaltung.Glyphs.lastChange = "2021-03-10 23:39:27 +0000";
};
width = 720;
}
);
unicode = 20A6;
},
{
color = 5;
glyphname = peseta;
lastChange = "2021-09-23 17:11:44 +0000";
layers = (
{
components = (
{
name = P;
}
);
layerId = m01;
paths = (
{
closed = 1;
nodes = (
"634 428 LINE",
"649 498 LINE",
"63 498 LINE",
"48 428 LINE"
);
}
);
userData = {
com.schriftgestaltung.Glyphs.lastChange = "2021-03-10 23:21:37 +0000";
};
width = 613;
}
);
unicode = 20A7;
},
{
color = 5;
glyphname = peso;
lastChange = "2021-09-23 17:11:44 +0000";
layers = (
{
components = (
{
name = P;
}
);
layerId = m01;
paths = (
{
closed = 1;
nodes = (
"624 369 LINE",
"639 439 LINE",
"50 439 LINE",
"35 369 LINE"
);
},
{
closed = 1;
nodes = (
"649 485 LINE",
"664 555 LINE",
"75 555 LINE",
"60 485 LINE"
);
}
);
userData = {
com.schriftgestaltung.Glyphs.lastChange = "2021-03-10 23:22:26 +0000";
};
width = 613;
}
);
unicode = 20B1;
},
{
color = 5;
glyphname = ruble;
lastChange = "2021-09-23 17:11:44 +0000";
layers = (
{
components = (
{
name = P;
}
);
layerId = m01;
paths = (
{
closed = 1;
nodes = (
"261 87 LINE",
"276 157 LINE",
"-10 157 LINE",
"-25 87 LINE"
);
},
{
closed = 1;
nodes = (
"201 237 LINE",
"216 307 LINE",
"20 307 LINE",
"5 237 LINE"
);
}
);
userData = {
com.schriftgestaltung.Glyphs.lastChange = "2021-03-10 23:37:26 +0000";
};
width = 613;
}
);
unicode = 20BD;
},
{
color = 5;
glyphname = rupeeIndian;
lastChange = "2021-09-23 17:11:44 +0000";
layers = (
{
layerId = m01;
paths = (
{
closed = 1;
nodes = (
"296 263 LINE SMOOTH",
"476 263 OFFCURVE",
"598 366 OFFCURVE",
"598 506 CURVE SMOOTH",
"598 617 OFFCURVE",
"509 690 OFFCURVE",
"386 690 CURVE SMOOTH",
"228 690 LINE",
"209 605 LINE",
"363 605 LINE SMOOTH",
"449 605 OFFCURVE",
"497 566 OFFCURVE",
"497 498 CURVE SMOOTH",
"497 407 OFFCURVE",
"425 344 OFFCURVE",
"303 344 CURVE SMOOTH",
"154 344 LINE",
"136 263 LINE"
);
},
{
closed = 1;
nodes = (
"301 0 LINE",
"404 0 LINE",
"231 263 LINE",
"136 263 LINE"
);
},
{
closed = 1;
nodes = (
"648 445 LINE",
"663 515 LINE",
"67 515 LINE",
"52 445 LINE"
);
},
{
closed = 1;
nodes = (
"686 620 LINE",
"701 690 LINE",
"267 690 LINE",
"252 620 LINE"
);
}
);
userData = {
com.schriftgestaltung.Glyphs.lastChange = "2021-03-10 23:18:20 +0000";
};
width = 619;
}
);
unicode = 20B9;
},
{
color = 5;
glyphname = sterling;
lastChange = "2021-09-23 17:11:44 +0000";
layers = (
{
layerId = m01;
paths = (
{
closed = 1;
nodes = (
"472 0 LINE",
"489 82 LINE",
"21 82 LINE",
"3 0 LINE"
);
},
{
closed = 1;
nodes = (
"163 66 OFFCURVE",
"262 167 OFFCURVE",
"262 294 CURVE",
"262 354 OFFCURVE",
"260 381 OFFCURVE",
"260 428 CURVE",
"260 540 OFFCURVE",
"321 612 OFFCURVE",
"415 612 CURVE",
"470 612 OFFCURVE",
"512 590 OFFCURVE",
"536 549 CURVE",
"606 607 LINE",
"576 665 OFFCURVE",
"505 700 OFFCURVE",
"418 700 CURVE",
"280 700 OFFCURVE",
"166 608 OFFCURVE",
"166 437 CURVE",
"166 382 OFFCURVE",
"170 352 OFFCURVE",
"170 319 CURVE SMOOTH",
"170 237 OFFCURVE",
"136 139 OFFCURVE",
"21 85 CURVE",
"6 17 LINE"
);
},
{
closed = 1;
nodes = (
"439 290 LINE",
"456 367 LINE",
"81 367 LINE",
"64 290 LINE"
);
}
);
userData = {
com.schriftgestaltung.Glyphs.lastChange = "2021-03-02 23:45:59 +0000";
};
width = 600;
}
);
leftKerningGroup = NO_KERN;
rightKerningGroup = NO_KERN;
unicode = 00A3;
},
{
color = 5;
glyphname = won;
lastChange = "2021-09-23 17:11:44 +0000";
layers = (
{
components = (
{
name = W;
}
);
layerId = m01;
paths = (
{
closed = 1;
nodes = (
"900 325 LINE",
"915 395 LINE",
"50 395 LINE",
"35 325 LINE"
);
}
);
userData = {
com.schriftgestaltung.Glyphs.lastChange = "2021-03-10 21:11:37 +0000";
};
width = 900;
}
);
unicode = 20A9;
},
{
color = 5;
glyphname = yen;
lastChange = "2021-09-23 17:11:44 +0000";
layers = (
{
layerId = m01;
paths = (
{
closed = 1;
nodes = (
"486 132 LINE",
"502 206 LINE",
"71 206 LINE",
"55 132 LINE"
);
},
{
closed = 1;
nodes = (
"518 285 LINE",
"535 359 LINE",
"104 359 LINE",
"87 285 LINE"
);
},
{
closed = 1;
nodes = (
"259 273 LINE",
"312 273 LINE",
"325 348 LINE",
"201 690 LINE",
"97 690 LINE"
);
},
{
closed = 1;
nodes = (
"284 0 LINE",
"350 303 LINE",
"260 303 LINE",
"196 0 LINE"
);
},
{
closed = 1;
nodes = (
"340 273 LINE",
"679 690 LINE",
"566 690 LINE",
"298 348 LINE",
"290 273 LINE"
);
}
);
userData = {
com.schriftgestaltung.Glyphs.lastChange = "2021-03-02 23:45:59 +0000";
};
width = 600;
}
);
leftKerningGroup = NO_KERN;
rightKerningGroup = NO_KERN;
unicode = 00A5;
},
{
color = 5;
glyphname = bulletoperator;
lastChange = "2021-09-23 17:11:44 +0000";
layers = (
{
layerId = m01;
paths = (
{
closed = 1;
nodes = (
"179 212 OFFCURVE",
"220 170 OFFCURVE",
"285 170 CURVE SMOOTH",
"360 170 OFFCURVE",
"423 227 OFFCURVE",
"423 306 CURVE SMOOTH",
"423 368 OFFCURVE",
"382 410 OFFCURVE",
"317 410 CURVE SMOOTH",
"242 410 OFFCURVE",
"179 353 OFFCURVE",
"179 274 CURVE SMOOTH"
);
}
);
userData = {
com.schriftgestaltung.Glyphs.lastChange = "2021-03-02 23:45:59 +0000";
};
width = 600;
}
);
leftKerningGroup = NO_KERN;
rightKerningGroup = NO_KERN;
unicode = 2219;
},
{
color = 5;
glyphname = divisionslash;
lastChange = "2021-09-23 17:11:44 +0000";
layers = (
{
layerId = m01;
paths = (
{
closed = 1;
nodes = (
"48 0 LINE",
"615 690 LINE",
"507 690 LINE",
"-60 0 LINE"
);
}
);
userData = {
com.schriftgestaltung.Glyphs.lastChange = "2021-03-02 23:45:59 +0000";
};
width = 528;
}
);
leftKerningGroup = NO_KERN;
rightKerningGroup = NO_KERN;
unicode = 2215;
},
{
color = 5;
glyphname = plus;
lastChange = "2021-09-23 17:11:44 +0000";
layers = (
{
layerId = m01;
paths = (
{
closed = 1;
nodes = (
"520 249 LINE",
"537 331 LINE",
"83 331 LINE",
"66 249 LINE"
);
},
{
closed = 1;
nodes = (
"297 65 LINE",
"392 515 LINE",
"307 515 LINE",
"211 65 LINE"
);
}
);
userData = {
com.schriftgestaltung.Glyphs.lastChange = "2021-03-02 23:45:59 +0000";
};
width = 600;
}
);
leftKerningGroup = NO_KERN;
rightKerningGroup = NO_KERN;
unicode = 002B;
},
{
color = 5;
glyphname = minus;
lastChange = "2021-09-23 17:11:44 +0000";
layers = (
{
layerId = m01;
paths = (
{
closed = 1;
nodes = (
"520 249 LINE",
"537 331 LINE",
"83 331 LINE",
"66 249 LINE"
);
}
);
userData = {
com.schriftgestaltung.Glyphs.lastChange = "2021-03-02 23:45:59 +0000";
};
width = 600;
}
);
leftKerningGroup = NO_KERN;
rightKerningGroup = NO_KERN;
unicode = 2212;
},
{
color = 5;
glyphname = multiply;
lastChange = "2021-09-23 17:11:44 +0000";
layers = (
{
layerId = m01;
paths = (
{
closed = 1;
nodes = (
"105 77 LINE",
"546 440 LINE",
"497 506 LINE",
"56 143 LINE"
);
},
{
closed = 1;
nodes = (
"410 79 LINE",
"480 134 LINE",
"194 501 LINE",
"124 446 LINE"
);
}
);
userData = {
com.schriftgestaltung.Glyphs.lastChange = "2021-03-02 23:45:59 +0000";
};
width = 600;
}
);
leftKerningGroup = NO_KERN;
rightKerningGroup = NO_KERN;
unicode = 00D7;
},
{
color = 5;
glyphname = divide;
lastChange = "2021-09-23 17:11:44 +0000";
layers = (
{
layerId = m01;
paths = (
{
closed = 1;
nodes = (
"520 249 LINE",
"537 331 LINE",
"83 331 LINE",
"66 249 LINE"
);
},
{
closed = 1;
nodes = (
"197 59 OFFCURVE",
"217 40 OFFCURVE",
"248 40 CURVE",
"287 40 OFFCURVE",
"322 71 OFFCURVE",
"322 112 CURVE",
"322 142 OFFCURVE",
"301 162 OFFCURVE",
"270 162 CURVE",
"231 162 OFFCURVE",
"197 130 OFFCURVE",
"197 89 CURVE"
);
},
{
closed = 1;
nodes = (
"277 437 OFFCURVE",
"298 417 OFFCURVE",
"329 417 CURVE",
"368 417 OFFCURVE",
"402 449 OFFCURVE",
"402 490 CURVE",
"402 520 OFFCURVE",
"382 540 OFFCURVE",
"350 540 CURVE",
"311 540 OFFCURVE",
"277 508 OFFCURVE",
"277 467 CURVE"
);
}
);
userData = {
com.schriftgestaltung.Glyphs.lastChange = "2021-03-02 23:45:59 +0000";
};
width = 600;
}
);
leftKerningGroup = NO_KERN;
rightKerningGroup = NO_KERN;
unicode = 00F7;
},
{
color = 5;
glyphname = equal;
lastChange = "2021-09-23 17:11:44 +0000";
layers = (
{
layerId = m01;
paths = (
{
closed = 1;
nodes = (
"496 133 LINE",
"513 216 LINE",
"59 216 LINE",
"42 133 LINE"
);
},
{
closed = 1;
nodes = (
"544 364 LINE",
"562 447 LINE",
"108 447 LINE",
"90 364 LINE"
);
}
);
userData = {
com.schriftgestaltung.Glyphs.lastChange = "2021-03-02 23:45:59 +0000";
};
width = 600;
}
);
leftKerningGroup = NO_KERN;
rightKerningGroup = NO_KERN;
unicode = 003D;
},
{
color = 5;
glyphname = notequal;
lastChange = "2021-09-23 17:11:44 +0000";
layers = (
{
layerId = m01;
paths = (
{
closed = 1;
nodes = (
"496 133 LINE",
"513 216 LINE",
"59 216 LINE",
"42 133 LINE"
);
},
{
closed = 1;
nodes = (
"170 -30 LINE",
"526 610 LINE",
"434 610 LINE",
"78 -30 LINE"
);
},
{
closed = 1;
nodes = (
"544 364 LINE",
"562 447 LINE",
"108 447 LINE",
"90 364 LINE"
);
}
);
userData = {
com.schriftgestaltung.Glyphs.lastChange = "2021-03-02 23:45:59 +0000";
};
width = 600;
}
);
leftKerningGroup = NO_KERN;
rightKerningGroup = NO_KERN;
unicode = 2260;
},
{
color = 5;
glyphname = greater;
lastChange = "2021-09-23 17:11:44 +0000";
layers = (
{
layerId = m01;
paths = (
{
closed = 1;
nodes = (
"514 251 LINE",
"530 328 LINE",
"463 318 LINE",
"76 149 LINE",
"57 54 LINE"
);
},
{
closed = 1;
nodes = (
"456 275 LINE",
"514 251 LINE",
"530 328 LINE",
"157 525 LINE",
"139 435 LINE"
);
}
);
userData = {
com.schriftgestaltung.Glyphs.lastChange = "2021-03-02 23:45:59 +0000";
};
width = 600;
}
);
leftKerningGroup = NO_KERN;
rightKerningGroup = NO_KERN;
unicode = 003E;
},
{
color = 5;
glyphname = less;
lastChange = "2021-09-23 17:11:44 +0000";
layers = (
{
layerId = m01;
paths = (
{
closed = 1;
nodes = (
"445 54 LINE",
"464 142 LINE",
"147 301 LINE",
"89 328 LINE",
"72 251 LINE"
);
},
{
closed = 1;
nodes = (
"139 261 LINE",
"526 430 LINE",
"545 525 LINE",
"89 328 LINE",
"72 251 LINE"
);
}
);
userData = {
com.schriftgestaltung.Glyphs.lastChange = "2021-03-02 23:45:59 +0000";
};
width = 600;
}
);
leftKerningGroup = NO_KERN;
rightKerningGroup = NO_KERN;
unicode = 003C;
},
{
color = 5;
glyphname = greaterequal;
lastChange = "2021-09-23 17:11:44 +0000";
layers = (
{
layerId = m01;
paths = (
{
closed = 1;
nodes = (
"478 70 LINE",
"496 153 LINE",
"81 153 LINE",
"81 153 LINE",
"63 70 LINE"
);
},
{
closed = 1;
nodes = (
"531 322 LINE",
"549 406 LINE",
"480 387 LINE",
"103 257 LINE",
"83 168 LINE"
);
},
{
closed = 1;
nodes = (
"473 355 LINE",
"531 322 LINE",
"549 406 LINE",
"167 560 LINE",
"148 474 LINE"
);
}
);
userData = {
com.schriftgestaltung.Glyphs.lastChange = "2021-03-02 23:45:59 +0000";
};
width = 600;
}
);
leftKerningGroup = NO_KERN;
rightKerningGroup = NO_KERN;
unicode = 2265;
},
{
color = 5;
glyphname = lessequal;
lastChange = "2021-09-23 17:11:44 +0000";
layers = (
{
layerId = m01;
paths = (
{
closed = 1;
nodes = (
"448 70 LINE",
"464 153 LINE",
"464 153 LINE",
"50 153 LINE",
"32 70 LINE"
);
},
{
closed = 1;
nodes = (
"467 168 LINE",
"487 253 LINE",
"161 375 LINE",
"103 406 LINE",
"85 322 LINE"
);
},
{
closed = 1;
nodes = (
"155 342 LINE",
"531 469 LINE",
"551 560 LINE",
"103 406 LINE",
"85 322 LINE"
);
}
);
userData = {
com.schriftgestaltung.Glyphs.lastChange = "2021-03-02 23:45:59 +0000";
};
width = 600;
}
);
leftKerningGroup = NO_KERN;
rightKerningGroup = NO_KERN;
unicode = 2264;
},
{
color = 5;
glyphname = plusminus;
lastChange = "2021-09-23 17:11:44 +0000";
layers = (
{
layerId = m01;
paths = (
{
closed = 1;
nodes = (
"481 65 LINE",
"498 147 LINE",
"44 147 LINE",
"27 65 LINE"
);
},
{
closed = 1;
nodes = (
"526 279 LINE",
"544 361 LINE",
"90 361 LINE",
"72 279 LINE"
);
},
{
closed = 1;
nodes = (
"297 65 LINE",
"392 515 LINE",
"307 515 LINE",
"211 65 LINE"
);
}
);
userData = {
com.schriftgestaltung.Glyphs.lastChange = "2021-03-02 23:45:59 +0000";
};
width = 600;
}
);
leftKerningGroup = NO_KERN;
rightKerningGroup = NO_KERN;
unicode = 00B1;
},
{
color = 5;
glyphname = approxequal;
lastChange = "2021-09-23 17:11:44 +0000";
layers = (
{
layerId = m01;
paths = (
{
closed = 1;
nodes = (
"71 113 LINE",
"100 133 OFFCURVE",
"140 162 OFFCURVE",
"180 162 CURVE SMOOTH",
"250 162 OFFCURVE",
"281 107 OFFCURVE",
"361 107 CURVE SMOOTH",
"421 107 OFFCURVE",
"473 140 OFFCURVE",
"520 173 CURVE",
"482 236 LINE",
"454 216 OFFCURVE",
"413 190 OFFCURVE",
"373 190 CURVE SMOOTH",
"303 190 OFFCURVE",
"272 243 OFFCURVE",
"192 243 CURVE SMOOTH",
"132 243 OFFCURVE",
"80 210 OFFCURVE",
"34 176 CURVE"
);
},
{
closed = 1;
nodes = (
"120 342 LINE",
"148 362 OFFCURVE",
"190 388 OFFCURVE",
"230 388 CURVE SMOOTH",
"300 388 OFFCURVE",
"330 335 OFFCURVE",
"410 335 CURVE SMOOTH",
"470 335 OFFCURVE",
"522 368 OFFCURVE",
"568 402 CURVE",
"531 465 LINE",
"503 445 OFFCURVE",
"461 418 OFFCURVE",
"421 418 CURVE SMOOTH",
"351 418 OFFCURVE",
"321 471 OFFCURVE",
"241 471 CURVE SMOOTH",
"181 471 OFFCURVE",
"129 438 OFFCURVE",
"83 405 CURVE"
);
}
);
userData = {
com.schriftgestaltung.Glyphs.lastChange = "2021-03-02 23:45:59 +0000";
};
width = 600;
}
);
leftKerningGroup = NO_KERN;
rightKerningGroup = NO_KERN;
unicode = 2248;
},
{
color = 5;
glyphname = asciitilde;
lastChange = "2021-09-23 17:11:44 +0000";
layers = (
{
layerId = m01;
paths = (
{
closed = 1;
nodes = (
"158 300 LINE",
"183 369 OFFCURVE",
"208 393 OFFCURVE",
"235 393 CURVE SMOOTH",
"288 393 OFFCURVE",
"309 295 OFFCURVE",
"390 295 CURVE SMOOTH",
"462 295 OFFCURVE",
"511 350 OFFCURVE",
"541 458 CURVE",
"483 458 LINE",
"458 389 OFFCURVE",
"433 365 OFFCURVE",
"407 365 CURVE SMOOTH",
"351 365 OFFCURVE",
"332 463 OFFCURVE",
"251 463 CURVE SMOOTH",
"184 463 OFFCURVE",
"130 407 OFFCURVE",
"101 300 CURVE"
);
}
);
userData = {
com.schriftgestaltung.Glyphs.lastChange = "2021-03-02 23:45:59 +0000";
};
width = 600;
}
);
leftKerningGroup = NO_KERN;
rightKerningGroup = NO_KERN;
unicode = 007E;
},
{
color = 5;
glyphname = logicalnot;
lastChange = "2021-09-23 17:11:44 +0000";
layers = (
{
layerId = m01;
paths = (
{
closed = 1;
nodes = (
"520 249 LINE",
"537 331 LINE",
"83 331 LINE",
"66 249 LINE"
);
},
{
closed = 1;
nodes = (
"481 65 LINE",
"537 331 LINE",
"451 331 LINE",
"395 65 LINE"
);
}
);
userData = {
com.schriftgestaltung.Glyphs.lastChange = "2021-03-02 23:45:59 +0000";
};
width = 600;
}
);
leftKerningGroup = NO_KERN;
rightKerningGroup = NO_KERN;
unicode = 00AC;
},
{
color = 5;
glyphname = asciicircum;
lastChange = "2021-09-23 17:11:44 +0000";
layers = (
{
layerId = m01;
paths = (
{
closed = 1;
nodes = (
"159 275 LINE",
"392 626 LINE",
"403 690 LINE",
"342 690 LINE",
"62 275 LINE"
);
},
{
closed = 1;
nodes = (
"357 628 LINE",
"445 275 LINE",
"533 275 LINE",
"425 690 LINE",
"362 690 LINE"
);
}
);
userData = {
com.schriftgestaltung.Glyphs.lastChange = "2021-03-02 23:45:59 +0000";
};
width = 600;
}
);
leftKerningGroup = NO_KERN;
rightKerningGroup = NO_KERN;
unicode = 005E;
},
{
color = 5;
glyphname = infinity;
lastChange = "2021-09-23 17:11:44 +0000";
layers = (
{
layerId = m01;
paths = (
{
closed = 1;
nodes = (
"44 157 OFFCURVE",
"96 103 OFFCURVE",
"167 103 CURVE SMOOTH",
"233 103 OFFCURVE",
"298 148 OFFCURVE",
"366 279 CURVE SMOOTH",
"410 364 OFFCURVE",
"454 398 OFFCURVE",
"492 398 CURVE SMOOTH",
"524 398 OFFCURVE",
"548 371 OFFCURVE",
"548 322 CURVE SMOOTH",
"548 243 OFFCURVE",
"498 182 OFFCURVE",
"449 182 CURVE SMOOTH",
"402 182 OFFCURVE",
"372 229 OFFCURVE",
"372 295 CURVE SMOOTH",
"372 298 OFFCURVE",
"372 301 OFFCURVE",
"372 304 CURVE",
"324 241 LINE",
"324 177 OFFCURVE",
"364 103 OFFCURVE",
"444 103 CURVE SMOOTH",
"542 103 OFFCURVE",
"626 208 OFFCURVE",
"626 329 CURVE SMOOTH",
"626 420 OFFCURVE",
"577 477 OFFCURVE",
"504 477 CURVE",
"441 477 OFFCURVE",
"369 430 OFFCURVE",
"303 301 CURVE SMOOTH",
"258 215 OFFCURVE",
"215 182 OFFCURVE",
"176 182 CURVE SMOOTH",
"146 182 OFFCURVE",
"123 209 OFFCURVE",
"123 255 CURVE SMOOTH",
"123 332 OFFCURVE",
"171 398 OFFCURVE",
"225 398 CURVE SMOOTH",
"269 398 OFFCURVE",
"293 350 OFFCURVE",
"294 287 CURVE SMOOTH",
"294 284 OFFCURVE",
"294 280 OFFCURVE",
"294 276 CURVE",
"344 340 LINE",
"346 413 OFFCURVE",
"303 477 OFFCURVE",
"229 477 CURVE SMOOTH",
"131 477 OFFCURVE",
"44 373 OFFCURVE",
"44 247 CURVE SMOOTH"
);
}
);
userData = {
com.schriftgestaltung.Glyphs.lastChange = "2021-03-02 23:45:59 +0000";
};
width = 667;
}
);
leftKerningGroup = NO_KERN;
rightKerningGroup = NO_KERN;
unicode = 221E;
},
{
color = 5;
glyphname = integral;
lastChange = "2021-09-23 17:11:44 +0000";
layers = (
{
layerId = m01;
paths = (
{
closed = 1;
nodes = (
"-57 -186 OFFCURVE",
"-25 -195 OFFCURVE",
"9 -195 CURVE SMOOTH",
"79 -195 OFFCURVE",
"157 -162 OFFCURVE",
"186 -27 CURVE SMOOTH",
"312 555 LINE SMOOTH",
"327 622 OFFCURVE",
"359 650 OFFCURVE",
"408 650 CURVE SMOOTH",
"428 650 OFFCURVE",
"448 647 OFFCURVE",
"461 640 CURVE",
"491 712 LINE",
"472 720 OFFCURVE",
"445 730 OFFCURVE",
"405 730 CURVE SMOOTH",
"310 730 OFFCURVE",
"246 680 OFFCURVE",
"221 562 CURVE SMOOTH",
"100 -8 LINE SMOOTH",
"82 -93 OFFCURVE",
"47 -112 OFFCURVE",
"4 -112 CURVE SMOOTH",
"-13 -112 OFFCURVE",
"-29 -109 OFFCURVE",
"-47 -102 CURVE",
"-77 -176 LINE"
);
}
);
userData = {
com.schriftgestaltung.Glyphs.lastChange = "2021-03-02 23:45:59 +0000";
};
width = 440;
}
);
leftKerningGroup = NO_KERN;
rightKerningGroup = NO_KERN;
unicode = 222B;
},
{
color = 5;
glyphname = product;
lastChange = "2021-09-23 17:11:44 +0000";
layers = (
{
layerId = m01;
paths = (
{
closed = 1;
nodes = (
"140 -185 LINE",
"326 690 LINE",
"229 690 LINE",
"43 -185 LINE"
);
},
{
closed = 1;
nodes = (
"719 604 LINE",
"738 690 LINE",
"149 690 LINE",
"131 604 LINE"
);
},
{
closed = 1;
nodes = (
"472 -185 LINE",
"658 690 LINE",
"561 690 LINE",
"375 -185 LINE"
);
}
);
userData = {
com.schriftgestaltung.Glyphs.lastChange = "2021-03-02 23:45:59 +0000";
};
width = 712;
}
);
unicode = 220F;
},
{
color = 5;
glyphname = summation;
lastChange = "2021-09-23 17:11:44 +0000";
layers = (
{
layerId = m01;
paths = (
{
closed = 1;
nodes = (
"476 -185 LINE",
"494 -99 LINE",
"57 -99 LINE",
"3 -117 LINE",
"-11 -185 LINE"
);
},
{
closed = 1;
nodes = (
"104 -128 LINE",
"436 262 LINE",
"330 276 LINE",
"3 -117 LINE"
);
},
{
closed = 1;
nodes = (
"331 267 LINE",
"436 262 LINE",
"252 639 LINE",
"160 622 LINE"
);
},
{
closed = 1;
nodes = (
"206 604 LINE",
"643 604 LINE",
"662 690 LINE",
"175 690 LINE",
"160 622 LINE"
);
}
);
userData = {
com.schriftgestaltung.Glyphs.lastChange = "2021-03-02 23:45:59 +0000";
};
width = 644;
}
);
unicode = 2211;
},
{
color = 5;
glyphname = radical;
lastChange = "2021-09-23 17:11:44 +0000";
layers = (
{
layerId = m01;
paths = (
{
closed = 1;
nodes = (
"175 251 LINE",
"193 337 LINE",
"35 337 LINE",
"17 251 LINE"
);
},
{
closed = 1;
nodes = (
"202 -185 LINE",
"256 -185 LINE",
"276 -98 LINE",
"210 337 LINE",
"120 337 LINE"
);
},
{
closed = 1;
nodes = (
"276 -185 LINE",
"789 690 LINE",
"688 690 LINE",
"234 -98 LINE",
"225 -185 LINE"
);
}
);
userData = {
com.schriftgestaltung.Glyphs.lastChange = "2021-03-02 23:45:59 +0000";
};
width = 702;
}
);
leftKerningGroup = NO_KERN;
rightKerningGroup = NO_KERN;
unicode = 221A;
},
{
color = 5;
glyphname = partialdiff;
lastChange = "2021-09-23 17:11:44 +0000";
layers = (
{
layerId = m01;
paths = (
{
closed = 1;
nodes = (
"32 55 OFFCURVE",
"97 -10 OFFCURVE",
"197 -10 CURVE",
"399 -10 OFFCURVE",
"555 213 OFFCURVE",
"555 479 CURVE",
"555 636 OFFCURVE",
"488 730 OFFCURVE",
"364 730 CURVE",
"330 730 OFFCURVE",
"293 721 OFFCURVE",
"261 708 CURVE",
"270 632 LINE",
"297 643 OFFCURVE",
"324 650 OFFCURVE",
"350 650 CURVE",
"427 650 OFFCURVE",
"471 607 OFFCURVE",
"471 476 CURVE SMOOTH",
"471 251 OFFCURVE",
"336 69 OFFCURVE",
"209 69 CURVE",
"158 69 OFFCURVE",
"119 99 OFFCURVE",
"119 166 CURVE SMOOTH",
"119 286 OFFCURVE",
"224 402 OFFCURVE",
"329 402 CURVE SMOOTH",
"397 402 OFFCURVE",
"445 375 OFFCURVE",
"466 324 CURVE",
"490 388 LINE",
"468 429 OFFCURVE",
"410 479 OFFCURVE",
"324 479 CURVE",
"175 479 OFFCURVE",
"32 324 OFFCURVE",
"32 158 CURVE SMOOTH"
);
}
);
userData = {
com.schriftgestaltung.Glyphs.lastChange = "2021-03-02 23:45:59 +0000";
};
width = 580;
}
);
unicode = 2202;
},
{
color = 5;
glyphname = percent;
lastChange = "2021-09-23 17:11:44 +0000";
layers = (
{
layerId = m01;
paths = (
{
closed = 1;
nodes = (
"120 409 OFFCURVE",
"175 358 OFFCURVE",
"250 358 CURVE",
"368 358 OFFCURVE",
"442 459 OFFCURVE",
"442 562 CURVE",
"442 649 OFFCURVE",
"389 700 OFFCURVE",
"311 700 CURVE",
"198 700 OFFCURVE",
"120 601 OFFCURVE",
"120 497 CURVE"
);
},
{
closed = 1;
nodes = (
"194 568 OFFCURVE",
"239 632 OFFCURVE",
"303 632 CURVE",
"345 632 OFFCURVE",
"370 605 OFFCURVE",
"370 558 CURVE",
"370 489 OFFCURVE",
"325 426 OFFCURVE",
"261 426 CURVE",
"220 426 OFFCURVE",
"194 453 OFFCURVE",
"194 501 CURVE"
);
},
{
closed = 1;
nodes = (
"221 0 LINE",
"799 690 LINE",
"707 690 LINE",
"129 0 LINE"
);
},
{
closed = 1;
nodes = (
"491 41 OFFCURVE",
"547 -10 OFFCURVE",
"622 -10 CURVE",
"740 -10 OFFCURVE",
"813 91 OFFCURVE",
"813 194 CURVE",
"813 281 OFFCURVE",
"760 332 OFFCURVE",
"682 332 CURVE",
"568 332 OFFCURVE",
"491 233 OFFCURVE",
"491 129 CURVE"
);
},
{
closed = 1;
nodes = (
"565 199 OFFCURVE",
"610 263 OFFCURVE",
"674 263 CURVE",
"715 263 OFFCURVE",
"741 237 OFFCURVE",
"741 189 CURVE",
"741 121 OFFCURVE",
"695 58 OFFCURVE",
"632 58 CURVE",
"591 58 OFFCURVE",
"565 85 OFFCURVE",
"565 133 CURVE"
);
}
);
userData = {
com.schriftgestaltung.Glyphs.lastChange = "2021-03-02 23:45:59 +0000";
};
width = 907;
}
);
unicode = 0025;
},
{
color = 5;
glyphname = perthousand;
lastChange = "2021-09-23 17:11:44 +0000";
layers = (
{
layerId = m01;
paths = (
{
closed = 1;
nodes = (
"125 409 OFFCURVE",
"180 358 OFFCURVE",
"255 358 CURVE",
"373 358 OFFCURVE",
"447 459 OFFCURVE",
"447 562 CURVE",
"447 649 OFFCURVE",
"394 700 OFFCURVE",
"316 700 CURVE",
"203 700 OFFCURVE",
"125 601 OFFCURVE",
"125 497 CURVE"
);
},
{
closed = 1;
nodes = (
"199 568 OFFCURVE",
"244 632 OFFCURVE",
"308 632 CURVE",
"350 632 OFFCURVE",
"375 605 OFFCURVE",
"375 558 CURVE",
"375 489 OFFCURVE",
"330 426 OFFCURVE",
"266 426 CURVE",
"225 426 OFFCURVE",
"199 453 OFFCURVE",
"199 501 CURVE"
);
},
{
closed = 1;
nodes = (
"226 0 LINE",
"804 690 LINE",
"712 690 LINE",
"134 0 LINE"
);
},
{
closed = 1;
nodes = (
"496 41 OFFCURVE",
"552 -10 OFFCURVE",
"627 -10 CURVE",
"745 -10 OFFCURVE",
"818 91 OFFCURVE",
"818 194 CURVE",
"818 281 OFFCURVE",
"765 332 OFFCURVE",
"687 332 CURVE",
"573 332 OFFCURVE",
"496 233 OFFCURVE",
"496 129 CURVE"
);
},
{
closed = 1;
nodes = (
"570 199 OFFCURVE",
"615 263 OFFCURVE",
"679 263 CURVE",
"720 263 OFFCURVE",
"746 237 OFFCURVE",
"746 189 CURVE",
"746 121 OFFCURVE",
"700 58 OFFCURVE",
"637 58 CURVE",
"596 58 OFFCURVE",
"570 85 OFFCURVE",
"570 133 CURVE"
);
},
{
closed = 1;
nodes = (
"869 41 OFFCURVE",
"925 -10 OFFCURVE",
"1000 -10 CURVE",
"1118 -10 OFFCURVE",
"1191 91 OFFCURVE",
"1191 194 CURVE",
"1191 281 OFFCURVE",
"1138 332 OFFCURVE",
"1060 332 CURVE",
"946 332 OFFCURVE",
"869 233 OFFCURVE",
"869 129 CURVE"
);
},
{
closed = 1;
nodes = (
"943 199 OFFCURVE",
"988 263 OFFCURVE",
"1052 263 CURVE",
"1093 263 OFFCURVE",
"1119 237 OFFCURVE",
"1119 189 CURVE",
"1119 121 OFFCURVE",
"1073 58 OFFCURVE",
"1010 58 CURVE",
"969 58 OFFCURVE",
"943 85 OFFCURVE",
"943 133 CURVE"
);
}
);
userData = {
com.schriftgestaltung.Glyphs.lastChange = "2021-03-02 23:45:59 +0000";
};
width = 1290;
}
);
unicode = 2030;
},
{
color = 5;
glyphname = lozenge;
lastChange = "2021-09-23 17:11:44 +0000";
layers = (
{
layerId = m01;
paths = (
{
closed = 1;
nodes = (
"204 -110 LINE",
"259 -110 LINE",
"270 -35 LINE",
"141 300 LINE",
"51 290 LINE"
);
},
{
closed = 1;
nodes = (
"145 268 LINE",
"428 615 LINE",
"426 690 LINE",
"374 690 LINE",
"51 290 LINE"
);
},
{
closed = 1;
nodes = (
"282 -110 LINE",
"605 290 LINE",
"508 307 LINE",
"239 -35 LINE",
"230 -110 LINE"
);
},
{
closed = 1;
nodes = (
"515 280 LINE",
"605 290 LINE",
"452 690 LINE",
"397 690 LINE",
"387 615 LINE"
);
}
);
userData = {
com.schriftgestaltung.Glyphs.lastChange = "2021-03-02 23:45:59 +0000";
};
width = 651;
}
);
unicode = 25CA;
},
{
color = 5;
glyphname = dieresiscomb;
lastChange = "2021-09-23 17:11:44 +0000";
layers = (
{
anchors = (
{
name = _top;
position = "{57, 515}";
},
{
name = top;
position = "{99, 720}";
}
);
layerId = m01;
paths = (
{
closed = 1;
nodes = (
"-59 641 OFFCURVE",
"-42 622 OFFCURVE",
"-13 622 CURVE SMOOTH",
"21 622 OFFCURVE",
"50 651 OFFCURVE",
"50 685 CURVE SMOOTH",
"50 712 OFFCURVE",
"33 730 OFFCURVE",
"4 730 CURVE SMOOTH",
"-30 730 OFFCURVE",
"-59 701 OFFCURVE",
"-59 667 CURVE SMOOTH"
);
},
{
closed = 1;
nodes = (
"137 641 OFFCURVE",
"154 622 OFFCURVE",
"183 622 CURVE SMOOTH",
"217 622 OFFCURVE",
"246 651 OFFCURVE",
"246 685 CURVE SMOOTH",
"246 712 OFFCURVE",
"229 730 OFFCURVE",
"200 730 CURVE SMOOTH",
"166 730 OFFCURVE",
"137 701 OFFCURVE",
"137 667 CURVE SMOOTH"
);
}
);
userData = {
com.schriftgestaltung.Glyphs.lastChange = "2021-03-07 20:13:27 +0000";
};
width = 0;
}
);
unicode = 0308;
},
{
color = 5;
glyphname = dotaccentcomb;
lastChange = "2021-09-23 17:11:44 +0000";
layers = (
{
anchors = (
{
name = _top;
position = "{55, 515}";
},
{
name = top;
position = "{97, 713}";
}
);
layerId = m01;
paths = (
{
closed = 1;
nodes = (
"24 630 OFFCURVE",
"43 608 OFFCURVE",
"75 608 CURVE SMOOTH",
"114 608 OFFCURVE",
"146 641 OFFCURVE",
"146 679 CURVE SMOOTH",
"146 708 OFFCURVE",
"127 730 OFFCURVE",
"95 730 CURVE SMOOTH",
"56 730 OFFCURVE",
"24 696 OFFCURVE",
"24 658 CURVE SMOOTH"
);
}
);
userData = {
com.schriftgestaltung.Glyphs.lastChange = "2021-03-07 20:13:27 +0000";
};
width = 0;
}
);
unicode = 0307;
},
{
color = 5;
glyphname = gravecomb;
lastChange = "2021-09-23 17:11:44 +0000";
layers = (
{
anchors = (
{
name = _top;
position = "{56, 515}";
},
{
name = top;
position = "{98, 720}";
}
);
layerId = m01;
paths = (
{
closed = 1;
nodes = (
"34 590 LINE",
"111 590 LINE",
"45 740 LINE",
"-55 740 LINE"
);
}
);
userData = {
com.schriftgestaltung.Glyphs.lastChange = "2021-03-07 20:13:27 +0000";
};
width = 0;
}
);
unicode = 0300;
},
{
color = 5;
glyphname = acutecomb;
lastChange = "2021-09-23 17:11:44 +0000";
layers = (
{
anchors = (
{
name = _top;
position = "{55, 515}";
},
{
name = top;
position = "{98, 719}";
}
);
layerId = m01;
paths = (
{
closed = 1;
nodes = (
"99 590 LINE",
"250 740 LINE",
"133 740 LINE",
"8 590 LINE"
);
}
);
userData = {
com.schriftgestaltung.Glyphs.lastChange = "2021-03-07 20:13:27 +0000";
};
width = 0;
}
);
unicode = 0301;
},
{
color = 5;
glyphname = hungarumlautcomb;
lastChange = "2021-09-23 17:11:44 +0000";
layers = (
{
anchors = (
{
name = _top;
position = "{56, 515}";
},
{
name = top;
position = "{98, 720}";
}
);
layerId = m01;
paths = (
{
closed = 1;
nodes = (
"12 590 LINE",
"126 740 LINE",
"29 740 LINE",
"-58 590 LINE"
);
},
{
closed = 1;
nodes = (
"172 590 LINE",
"296 740 LINE",
"200 740 LINE",
"103 590 LINE"
);
}
);
userData = {
com.schriftgestaltung.Glyphs.lastChange = "2021-03-07 20:13:27 +0000";
};
width = 0;
}
);
unicode = 030B;
},
{
color = 5;
glyphname = caroncomb.alt;
lastChange = "2021-09-23 17:11:44 +0000";
layers = (
{
anchors = (
{
name = _top;
position = "{55, 515}";
},
{
name = top;
position = "{99, 720}";
}
);
layerId = m01;
paths = (
{
closed = 1;
nodes = (
"96 590 LINE",
"247 740 LINE",
"130 740 LINE",
"5 590 LINE"
);
}
);
userData = {
com.schriftgestaltung.Glyphs.lastChange = "2021-03-07 20:13:27 +0000";
};
width = 0;
}
);
},
{
color = 5;
glyphname = circumflexcomb;
lastChange = "2021-09-23 17:11:44 +0000";
layers = (
{
anchors = (
{
name = _top;
position = "{55, 515}";
},
{
name = top;
position = "{98, 720}";
}
);
layerId = m01;
paths = (
{
closed = 1;
nodes = (
"7 590 LINE",
"147 740 LINE",
"52 740 LINE",
"-73 590 LINE"
);
},
{
closed = 1;
nodes = (
"137 590 LINE",
"212 590 LINE",
"149 740 LINE",
"60 740 LINE"
);
}
);
userData = {
com.schriftgestaltung.Glyphs.lastChange = "2021-03-07 20:13:27 +0000";
};
width = 0;
}
);
unicode = 0302;
},
{
color = 5;
glyphname = caroncomb;
lastChange = "2021-09-23 17:11:44 +0000";
layers = (
{
anchors = (
{
name = _top;
position = "{55, 515}";
},
{
name = top;
position = "{98, 720}";
}
);
layerId = m01;
paths = (
{
closed = 1;
nodes = (
"26 590 LINE",
"115 590 LINE",
"38 740 LINE",
"-37 740 LINE"
);
},
{
closed = 1;
nodes = (
"123 590 LINE",
"248 740 LINE",
"168 740 LINE",
"28 590 LINE"
);
}
);
userData = {
com.schriftgestaltung.Glyphs.lastChange = "2021-03-07 20:13:27 +0000";
};
width = 0;
}
);
unicode = 030C;
},
{
color = 5;
glyphname = brevecomb;
lastChange = "2021-09-23 17:11:44 +0000";
layers = (
{
anchors = (
{
name = _top;
position = "{56, 515}";
},
{
name = top;
position = "{98, 720}";
}
);
layerId = m01;
paths = (
{
closed = 1;
nodes = (
"-43 643 OFFCURVE",
"-8 593 OFFCURVE",
"74 593 CURVE",
"154 593 OFFCURVE",
"215 640 OFFCURVE",
"231 737 CURVE",
"168 737 LINE",
"154 683 OFFCURVE",
"126 659 OFFCURVE",
"85 659 CURVE",
"39 659 OFFCURVE",
"22 682 OFFCURVE",
"22 723 CURVE SMOOTH",
"22 727 OFFCURVE",
"22 729 OFFCURVE",
"23 737 CURVE",
"-38 737 LINE",
"-40 729 OFFCURVE",
"-43 719 OFFCURVE",
"-43 697 CURVE"
);
}
);
userData = {
com.schriftgestaltung.Glyphs.lastChange = "2021-03-07 20:13:27 +0000";
};
width = 0;
}
);
unicode = 0306;
},
{
color = 5;
glyphname = ringcomb;
lastChange = "2021-09-23 17:11:44 +0000";
layers = (
{
anchors = (
{
name = _top;
position = "{55, 515}";
},
{
name = top;
position = "{107, 770}";
}
);
layerId = m01;
paths = (
{
closed = 1;
nodes = (
"-25 625 OFFCURVE",
"12 582 OFFCURVE",
"72 582 CURVE",
"144 582 OFFCURVE",
"202 638 OFFCURVE",
"202 713 CURVE SMOOTH",
"202 764 OFFCURVE",
"165 806 OFFCURVE",
"105 806 CURVE",
"33 806 OFFCURVE",
"-25 752 OFFCURVE",
"-25 675 CURVE SMOOTH"
);
},
{
closed = 1;
nodes = (
"33 722 OFFCURVE",
"63 755 OFFCURVE",
"102 755 CURVE",
"127 755 OFFCURVE",
"144 736 OFFCURVE",
"144 709 CURVE SMOOTH",
"144 667 OFFCURVE",
"114 633 OFFCURVE",
"75 633 CURVE",
"50 633 OFFCURVE",
"33 652 OFFCURVE",
"33 679 CURVE SMOOTH"
);
}
);
userData = {
com.schriftgestaltung.Glyphs.lastChange = "2021-03-07 20:13:27 +0000";
};
width = 0;
}
);
unicode = 030A;
},
{
color = 5;
glyphname = tildecomb;
lastChange = "2021-09-23 17:11:44 +0000";
layers = (
{
anchors = (
{
name = _top;
position = "{56, 515}";
},
{
name = top;
position = "{97, 720}";
}
);
layerId = m01;
paths = (
{
closed = 1;
nodes = (
"-10 608 LINE",
"-1 647 OFFCURVE",
"15 656 OFFCURVE",
"31 656 CURVE SMOOTH",
"63 656 OFFCURVE",
"92 602 OFFCURVE",
"143 602 CURVE SMOOTH",
"198 602 OFFCURVE",
"229 647 OFFCURVE",
"247 724 CURVE",
"192 724 LINE",
"183 685 OFFCURVE",
"168 676 OFFCURVE",
"152 676 CURVE SMOOTH",
"119 676 OFFCURVE",
"90 730 OFFCURVE",
"40 730 CURVE SMOOTH",
"-16 730 OFFCURVE",
"-46 685 OFFCURVE",
"-64 608 CURVE"
);
}
);
userData = {
com.schriftgestaltung.Glyphs.lastChange = "2021-03-07 20:13:27 +0000";
};
width = 0;
}
);
unicode = 0303;
},
{
color = 5;
glyphname = macroncomb;
lastChange = "2021-09-23 17:11:44 +0000";
layers = (
{
anchors = (
{
name = _top;
position = "{55, 515}";
},
{
name = top;
position = "{98, 720}";
}
);
layerId = m01;
paths = (
{
closed = 1;
nodes = (
"222 630 LINE",
"237 700 LINE",
"-59 700 LINE",
"-74 630 LINE"
);
}
);
userData = {
com.schriftgestaltung.Glyphs.lastChange = "2021-03-07 20:13:27 +0000";
};
width = 0;
}
);
unicode = 0304;
},
{
color = 5;
glyphname = hookabovecomb;
lastChange = "2021-09-23 17:11:44 +0000";
layers = (
{
anchors = (
{
name = _top;
position = "{54, 515}";
},
{
name = top;
position = "{98, 720}";
}
);
layerId = m01;
paths = (
{
closed = 1;
nodes = (
"86 576 LINE",
"86 643 LINE",
"123 649 OFFCURVE",
"165 669 OFFCURVE",
"165 702 CURVE SMOOTH",
"165 764 OFFCURVE",
"123 785 OFFCURVE",
"42 785 CURVE SMOOTH",
"21 785 LINE",
"21 737 LINE",
"86 737 OFFCURVE",
"98 721 OFFCURVE",
"98 703 CURVE SMOOTH",
"98 690 OFFCURVE",
"87 680 OFFCURVE",
"60 678 CURVE SMOOTH",
"38 676 LINE",
"38 575 LINE"
);
}
);
userData = {
com.schriftgestaltung.Glyphs.lastChange = "2021-03-09 00:39:07 +0000";
};
width = 0;
}
);
unicode = 0309;
},
{
color = 5;
glyphname = commaturnedabovecomb;
lastChange = "2021-09-23 17:11:44 +0000";
layers = (
{
anchors = (
{
name = _top;
position = "{55, 515}";
}
);
layerId = m01;
paths = (
{
closed = 1;
nodes = (
"108 590 LINE",
"239 740 LINE",
"152 740 LINE",
"17 590 LINE"
);
}
);
userData = {
com.schriftgestaltung.Glyphs.lastChange = "2021-03-09 00:38:24 +0000";
};
width = 0;
}
);
unicode = 0312;
},
{
color = 5;
glyphname = horncomb;
lastChange = "2021-09-23 17:11:44 +0000";
layers = (
{
anchors = (
{
name = _horn;
position = "{56, 515}";
}
);
layerId = m01;
paths = (
{
closed = 1;
nodes = (
"53 409 LINE",
"172 409 OFFCURVE",
"250 490 OFFCURVE",
"250 610 CURVE",
"156 610 LINE",
"156 526 OFFCURVE",
"110 490 OFFCURVE",
"53 490 CURVE"
);
}
);
userData = {
com.schriftgestaltung.Glyphs.lastChange = "2021-03-08 22:07:37 +0000";
};
width = 0;
}
);
unicode = 031B;
},
{
color = 5;
glyphname = cedillacomb;
lastChange = "2021-09-23 17:11:44 +0000";
layers = (
{
anchors = (
{
name = _bottom;
position = "{-55, 0}";
}
);
layerId = m01;
paths = (
{
closed = 1;
nodes = (
"-137 -195 LINE SMOOTH",
"-56 -195 OFFCURVE",
"5 -174 OFFCURVE",
"5 -112 CURVE SMOOTH",
"5 -79 OFFCURVE",
"-18 -59 OFFCURVE",
"-55 -53 CURVE",
"-31 9 LINE",
"-79 15 LINE",
"-122 -86 LINE",
"-100 -88 LINE SMOOTH",
"-73 -90 OFFCURVE",
"-62 -100 OFFCURVE",
"-62 -113 CURVE",
"-62 -131 OFFCURVE",
"-87 -147 OFFCURVE",
"-152 -147 CURVE",
"-171 -195 LINE"
);
}
);
userData = {
com.schriftgestaltung.Glyphs.lastChange = "2021-03-07 20:13:27 +0000";
};
width = 0;
}
);
unicode = 0327;
},
{
color = 5;
glyphname = ogonekcomb;
lastChange = "2021-09-23 17:11:44 +0000";
layers = (
{
anchors = (
{
name = _ogonek;
position = "{-9, 0}";
}
);
layerId = m01;
paths = (
{
closed = 1;
nodes = (
"-180 -160 OFFCURVE",
"-150 -195 OFFCURVE",
"-93 -195 CURVE",
"-63 -195 OFFCURVE",
"-37 -187 OFFCURVE",
"-11 -172 CURVE",
"-29 -122 LINE",
"-46 -132 OFFCURVE",
"-67 -138 OFFCURVE",
"-82 -138 CURVE",
"-105 -138 OFFCURVE",
"-118 -125 OFFCURVE",
"-118 -107 CURVE SMOOTH",
"-118 -74 OFFCURVE",
"-78 -36 OFFCURVE",
"-9 0 CURVE",
"-90 0 LINE",
"-137 -23 OFFCURVE",
"-180 -66 OFFCURVE",
"-180 -119 CURVE"
);
}
);
userData = {
com.schriftgestaltung.Glyphs.lastChange = "2021-03-07 22:26:45 +0000";
};
width = 0;
}
);
unicode = 0328;
},
{
color = 5;
glyphname = dieresis;
lastChange = "2021-09-23 17:11:44 +0000";
layers = (
{
layerId = m01;
paths = (
{
closed = 1;
nodes = (
"231 641 OFFCURVE",
"248 622 OFFCURVE",
"277 622 CURVE SMOOTH",
"311 622 OFFCURVE",
"340 651 OFFCURVE",
"340 685 CURVE SMOOTH",
"340 712 OFFCURVE",
"323 730 OFFCURVE",
"294 730 CURVE SMOOTH",
"260 730 OFFCURVE",
"231 701 OFFCURVE",
"231 667 CURVE SMOOTH"
);
},
{
closed = 1;
nodes = (
"427 641 OFFCURVE",
"444 622 OFFCURVE",
"473 622 CURVE SMOOTH",
"507 622 OFFCURVE",
"536 651 OFFCURVE",
"536 685 CURVE SMOOTH",
"536 712 OFFCURVE",
"519 730 OFFCURVE",
"490 730 CURVE SMOOTH",
"456 730 OFFCURVE",
"427 701 OFFCURVE",
"427 667 CURVE SMOOTH"
);
}
);
userData = {
com.schriftgestaltung.Glyphs.lastChange = "2021-03-07 20:13:27 +0000";
};
width = 600;
}
);
leftKerningGroup = NO_KERN;
note = dieresis;
rightKerningGroup = NO_KERN;
unicode = 00A8;
},
{
color = 5;
glyphname = dotaccent;
lastChange = "2021-09-23 17:11:44 +0000";
layers = (
{
layerId = m01;
paths = (
{
closed = 1;
nodes = (
"321 630 OFFCURVE",
"340 608 OFFCURVE",
"372 608 CURVE SMOOTH",
"411 608 OFFCURVE",
"443 641 OFFCURVE",
"443 679 CURVE SMOOTH",
"443 708 OFFCURVE",
"424 730 OFFCURVE",
"392 730 CURVE SMOOTH",
"353 730 OFFCURVE",
"321 696 OFFCURVE",
"321 658 CURVE SMOOTH"
);
}
);
userData = {
com.schriftgestaltung.Glyphs.lastChange = "2021-03-07 20:13:27 +0000";
};
width = 600;
}
);
leftKerningGroup = NO_KERN;
note = dotaccent;
rightKerningGroup = NO_KERN;
unicode = 02D9;
},
{
color = 5;
glyphname = grave;
lastChange = "2021-09-23 17:11:44 +0000";
layers = (
{
layerId = m01;
paths = (
{
closed = 1;
nodes = (
"334 590 LINE",
"411 590 LINE",
"345 740 LINE",
"245 740 LINE"
);
}
);
userData = {
com.schriftgestaltung.Glyphs.lastChange = "2021-03-07 20:13:27 +0000";
};
width = 600;
}
);
leftKerningGroup = NO_KERN;
note = grave;
rightKerningGroup = NO_KERN;
unicode = 0060;
},
{
color = 5;
glyphname = acute;
lastChange = "2021-09-23 17:11:44 +0000";
layers = (
{
layerId = m01;
paths = (
{
closed = 1;
nodes = (
"396 590 LINE",
"547 740 LINE",
"430 740 LINE",
"305 590 LINE"
);
}
);
userData = {
com.schriftgestaltung.Glyphs.lastChange = "2021-03-07 20:13:27 +0000";
};
width = 600;
}
);
leftKerningGroup = NO_KERN;
note = acute;
rightKerningGroup = NO_KERN;
unicode = 00B4;
},
{
color = 5;
glyphname = hungarumlaut;
lastChange = "2021-09-23 17:11:44 +0000";
layers = (
{
layerId = m01;
paths = (
{
closed = 1;
nodes = (
"320 590 LINE",
"434 740 LINE",
"337 740 LINE",
"250 590 LINE"
);
},
{
closed = 1;
nodes = (
"480 590 LINE",
"604 740 LINE",
"508 740 LINE",
"411 590 LINE"
);
}
);
userData = {
com.schriftgestaltung.Glyphs.lastChange = "2021-03-07 20:13:27 +0000";
};
width = 600;
}
);
leftKerningGroup = NO_KERN;
note = hungarumlaut;
rightKerningGroup = NO_KERN;
unicode = 02DD;
},
{
color = 5;
glyphname = circumflex;
lastChange = "2021-09-23 17:11:44 +0000";
layers = (
{
layerId = m01;
paths = (
{
closed = 1;
nodes = (
"302 590 LINE",
"442 740 LINE",
"347 740 LINE",
"222 590 LINE"
);
},
{
closed = 1;
nodes = (
"432 590 LINE",
"507 590 LINE",
"444 740 LINE",
"355 740 LINE"
);
}
);
userData = {
com.schriftgestaltung.Glyphs.lastChange = "2021-03-07 20:13:27 +0000";
};
width = 600;
}
);
leftKerningGroup = NO_KERN;
note = circumflex;
rightKerningGroup = NO_KERN;
unicode = 02C6;
},
{
color = 5;
glyphname = caron;
lastChange = "2021-09-23 17:11:44 +0000";
layers = (
{
layerId = m01;
paths = (
{
closed = 1;
nodes = (
"318 590 LINE",
"407 590 LINE",
"330 740 LINE",
"255 740 LINE"
);
},
{
closed = 1;
nodes = (
"415 590 LINE",
"540 740 LINE",
"460 740 LINE",
"320 590 LINE"
);
}
);
userData = {
com.schriftgestaltung.Glyphs.lastChange = "2021-03-07 20:13:27 +0000";
};
width = 600;
}
);
leftKerningGroup = NO_KERN;
note = caron;
rightKerningGroup = NO_KERN;
unicode = 02C7;
},
{
color = 5;
glyphname = breve;
lastChange = "2021-09-23 17:11:44 +0000";
layers = (
{
layerId = m01;
paths = (
{
closed = 1;
nodes = (
"257 643 OFFCURVE",
"292 593 OFFCURVE",
"374 593 CURVE",
"454 593 OFFCURVE",
"515 640 OFFCURVE",
"531 737 CURVE",
"468 737 LINE",
"454 683 OFFCURVE",
"426 659 OFFCURVE",
"385 659 CURVE",
"339 659 OFFCURVE",
"322 682 OFFCURVE",
"322 723 CURVE SMOOTH",
"322 727 OFFCURVE",
"322 729 OFFCURVE",
"323 737 CURVE",
"262 737 LINE",
"260 729 OFFCURVE",
"257 719 OFFCURVE",
"257 697 CURVE"
);
}
);
userData = {
com.schriftgestaltung.Glyphs.lastChange = "2021-03-07 20:13:27 +0000";
};
width = 600;
}
);
leftKerningGroup = NO_KERN;
note = breve;
rightKerningGroup = NO_KERN;
unicode = 02D8;
},
{
color = 5;
glyphname = ring;
lastChange = "2021-09-23 17:11:44 +0000";
layers = (
{
layerId = m01;
paths = (
{
closed = 1;
nodes = (
"275 625 OFFCURVE",
"312 582 OFFCURVE",
"372 582 CURVE",
"444 582 OFFCURVE",
"502 638 OFFCURVE",
"502 713 CURVE SMOOTH",
"502 764 OFFCURVE",
"465 806 OFFCURVE",
"405 806 CURVE",
"333 806 OFFCURVE",
"275 752 OFFCURVE",
"275 675 CURVE SMOOTH"
);
},
{
closed = 1;
nodes = (
"333 722 OFFCURVE",
"363 755 OFFCURVE",
"402 755 CURVE",
"427 755 OFFCURVE",
"444 736 OFFCURVE",
"444 709 CURVE SMOOTH",
"444 667 OFFCURVE",
"414 633 OFFCURVE",
"375 633 CURVE",
"350 633 OFFCURVE",
"333 652 OFFCURVE",
"333 679 CURVE SMOOTH"
);
}
);
userData = {
com.schriftgestaltung.Glyphs.lastChange = "2021-03-07 20:13:27 +0000";
};
width = 600;
}
);
leftKerningGroup = NO_KERN;
note = ring;
rightKerningGroup = NO_KERN;
unicode = 02DA;
},
{
color = 5;
glyphname = tilde;
lastChange = "2021-09-23 17:11:44 +0000";
layers = (
{
layerId = m01;
paths = (
{
closed = 1;
nodes = (
"280 608 LINE",
"289 647 OFFCURVE",
"305 656 OFFCURVE",
"321 656 CURVE SMOOTH",
"353 656 OFFCURVE",
"382 602 OFFCURVE",
"433 602 CURVE SMOOTH",
"488 602 OFFCURVE",
"519 647 OFFCURVE",
"537 724 CURVE",
"482 724 LINE",
"473 685 OFFCURVE",
"458 676 OFFCURVE",
"442 676 CURVE SMOOTH",
"409 676 OFFCURVE",
"380 730 OFFCURVE",
"330 730 CURVE SMOOTH",
"274 730 OFFCURVE",
"244 685 OFFCURVE",
"226 608 CURVE"
);
}
);
userData = {
com.schriftgestaltung.Glyphs.lastChange = "2021-03-07 20:13:27 +0000";
};
width = 600;
}
);
leftKerningGroup = NO_KERN;
note = tilde;
rightKerningGroup = NO_KERN;
unicode = 02DC;
},
{
color = 5;
glyphname = macron;
lastChange = "2021-09-23 17:11:44 +0000";
layers = (
{
layerId = m01;
paths = (
{
closed = 1;
nodes = (
"522 630 LINE",
"537 700 LINE",
"241 700 LINE",
"226 630 LINE"
);
}
);
userData = {
com.schriftgestaltung.Glyphs.lastChange = "2021-03-07 20:13:27 +0000";
};
width = 600;
}
);
leftKerningGroup = NO_KERN;
note = macron;
rightKerningGroup = NO_KERN;
unicode = 00AF;
},
{
color = 5;
glyphname = cedilla;
lastChange = "2021-09-23 17:11:44 +0000";
layers = (
{
layerId = m01;
paths = (
{
closed = 1;
nodes = (
"163 -195 LINE SMOOTH",
"244 -195 OFFCURVE",
"305 -174 OFFCURVE",
"305 -112 CURVE SMOOTH",
"305 -79 OFFCURVE",
"282 -59 OFFCURVE",
"245 -53 CURVE",
"269 9 LINE",
"221 15 LINE",
"178 -86 LINE",
"200 -88 LINE SMOOTH",
"227 -90 OFFCURVE",
"238 -100 OFFCURVE",
"238 -113 CURVE",
"238 -131 OFFCURVE",
"213 -147 OFFCURVE",
"148 -147 CURVE",
"129 -195 LINE"
);
}
);
userData = {
com.schriftgestaltung.Glyphs.lastChange = "2021-03-07 20:13:27 +0000";
};
width = 600;
}
);
leftKerningGroup = NO_KERN;
note = cedilla;
rightKerningGroup = NO_KERN;
unicode = 00B8;
},
{
color = 5;
glyphname = ogonek;
lastChange = "2021-09-23 17:11:44 +0000";
layers = (
{
layerId = m01;
paths = (
{
closed = 1;
nodes = (
"150 -160 OFFCURVE",
"180 -195 OFFCURVE",
"237 -195 CURVE",
"267 -195 OFFCURVE",
"293 -187 OFFCURVE",
"319 -172 CURVE",
"301 -122 LINE",
"284 -132 OFFCURVE",
"263 -138 OFFCURVE",
"248 -138 CURVE",
"225 -138 OFFCURVE",
"212 -125 OFFCURVE",
"212 -107 CURVE SMOOTH",
"212 -74 OFFCURVE",
"252 -36 OFFCURVE",
"321 0 CURVE",
"240 0 LINE",
"193 -23 OFFCURVE",
"150 -66 OFFCURVE",
"150 -119 CURVE"
);
}
);
userData = {
com.schriftgestaltung.Glyphs.lastChange = "2021-03-07 20:13:27 +0000";
};
width = 600;
}
);
leftKerningGroup = NO_KERN;
note = ogonek;
rightKerningGroup = NO_KERN;
unicode = 02DB;
},
{
color = 5;
glyphname = acutecomb.case;
lastChange = "2021-09-23 17:11:44 +0000";
layers = (
{
anchors = (
{
name = _top;
position = "{94, 690}";
},
{
name = top;
position = "{130, 883}";
}
);
layerId = m01;
paths = (
{
closed = 1;
nodes = (
"144 750 LINE",
"300 885 LINE",
"178 885 LINE",
"52 750 LINE"
);
}
);
userData = {
com.schriftgestaltung.Glyphs.lastChange = "2021-03-08 06:07:55 +0000";
};
width = 0;
}
);
},
